<?xml version="1.0" encoding="utf-8"?>
<!DOCTYPE svg PUBLIC "-//W3C//DTD SVG 20010904//EN" "http://www.w3.org/TR/2001/REC-SVG-20010904/DTD/svg10.dtd">
<svg version="1.0" xmlns="http://www.w3.org/2000/svg" width="514pt" height="514pt" viewBox="0 0 514 514" style="" preserveAspectRatio="xMidYMid meet">
<g fill="#040404FD" stroke="#040404FD">
<path d="M 233.795 2.272 C 232.648 2.696 230.312 3.053 228.605 3.066 C 223.711 3.101 218.656 3.710 216.750 4.494 C 215.788 4.890 214.339 4.960 213.532 4.651 C 212.725 4.341 211.772 4.560 211.415 5.138 C 211.058 5.716 209.693 5.983 208.383 5.733 C 207.072 5.482 206.000 5.717 206.000 6.255 C 206.000 6.793 205.100 6.998 204.000 6.710 C 202.900 6.423 202.000 6.648 202.000 7.210 C 202.000 7.773 200.875 8.018 199.500 7.755 C 198.125 7.492 197.000 7.717 197.000 8.255 C 197.000 8.793 196.100 8.998 195.000 8.710 C 193.900 8.423 193.000 8.648 193.000 9.210 C 193.000 9.773 192.122 10.004 191.048 9.723 C 189.974 9.442 188.957 9.628 188.788 10.135 C 188.619 10.642 187.135 11.157 185.490 11.279 C 183.846 11.400 182.221 11.881 181.881 12.348 C 181.540 12.814 180.078 13.264 178.631 13.348 C 177.185 13.431 176.001 13.886 176.001 14.357 C 176.000 14.828 175.325 14.955 174.500 14.638 C 173.675 14.322 173.000 14.547 173.000 15.138 C 173.000 15.730 172.325 15.955 171.500 15.638 C 170.675 15.322 170.000 15.436 170.000 15.893 C 170.000 17.022 159.043 21.144 157.907 20.443 C 157.408 20.134 157.000 20.385 157.000 21.000 C 157.000 21.615 156.550 21.840 156.000 21.500 C 155.450 21.160 155.000 21.286 155.000 21.780 C 155.000 23.089 150.039 25.142 148.771 24.358 C 148.090 23.937 147.984 24.165 148.485 24.975 C 149.005 25.817 148.822 26.107 147.952 25.817 C 147.222 25.574 145.775 26.225 144.735 27.265 C 143.696 28.304 142.182 28.900 141.371 28.589 C 140.560 28.278 140.142 28.421 140.442 28.907 C 141.101 29.973 138.194 31.238 136.910 30.444 C 136.409 30.135 136.000 30.347 136.000 30.915 C 136.000 31.824 130.862 35.074 129.510 35.020 C 129.230 35.009 129.338 35.019 129.750 35.042 C 130.163 35.065 128.925 35.922 127.000 36.947 C 125.076 37.971 123.094 38.558 122.596 38.250 C 122.098 37.943 122.012 38.211 122.405 38.845 C 122.797 39.480 122.641 40.056 122.059 40.125 C 121.477 40.194 120.513 40.306 119.917 40.375 C 119.321 40.444 119.171 40.838 119.583 41.250 C 119.996 41.663 119.808 42.056 119.167 42.125 C 118.525 42.194 117.513 42.306 116.917 42.375 C 116.321 42.444 116.171 42.838 116.583 43.250 C 116.996 43.663 116.808 44.056 116.167 44.125 C 115.525 44.194 114.513 44.306 113.917 44.375 C 113.321 44.444 113.171 44.838 113.583 45.250 C 113.996 45.663 113.808 46.056 113.167 46.125 C 111.313 46.324 109.938 46.739 110.681 46.875 C 111.055 46.944 108.966 48.787 106.039 50.971 C 103.111 53.155 100.260 54.661 99.703 54.317 C 99.143 53.971 98.996 54.184 99.373 54.795 C 100.021 55.843 96.640 58.389 94.500 58.465 C 93.950 58.484 93.500 59.022 93.500 59.659 C 93.500 60.863 88.096 65.583 87.875 64.573 C 87.806 64.258 87.676 64.338 87.586 64.750 C 87.316 65.993 66.578 86.343 65.500 86.425 C 64.950 86.466 64.500 87.021 64.500 87.657 C 64.500 88.293 62.211 91.668 59.414 95.157 C 56.617 98.646 52.400 104.088 50.044 107.250 C 47.688 110.413 45.337 113.000 44.821 113.000 C 44.304 113.000 44.108 113.366 44.384 113.812 C 44.660 114.259 44.015 115.947 42.950 117.562 C 41.885 119.178 40.976 120.050 40.930 119.500 C 40.884 118.950 40.682 119.388 40.479 120.473 C 40.277 121.558 39.382 122.979 38.489 123.632 C 37.597 124.284 36.891 125.196 36.921 125.659 C 37.035 127.413 35.789 130.123 35.159 129.492 C 34.796 129.130 34.495 129.208 34.488 129.667 C 34.460 131.693 31.684 136.923 30.895 136.435 C 30.416 136.139 30.319 136.668 30.681 137.612 C 31.125 138.769 30.962 139.095 30.181 138.612 C 29.401 138.130 29.238 138.456 29.681 139.612 C 30.125 140.769 29.962 141.095 29.181 140.612 C 28.401 140.130 28.238 140.456 28.681 141.612 C 29.125 142.769 28.962 143.095 28.181 142.612 C 27.401 142.130 27.238 142.456 27.681 143.612 C 28.125 144.769 27.962 145.095 27.181 144.612 C 26.401 144.130 26.238 144.456 26.681 145.612 C 27.164 146.868 26.985 147.109 26.015 146.510 C 25.147 145.973 24.930 146.078 25.386 146.816 C 26.133 148.024 23.443 154.022 21.610 155.235 C 21.000 155.639 20.810 155.976 21.189 155.985 C 22.266 156.009 18.932 165.000 17.847 165.000 C 17.316 165.000 17.128 165.398 17.429 165.885 C 18.146 167.046 16.058 173.000 14.934 173.000 C 14.455 173.000 14.322 173.675 14.638 174.500 C 14.955 175.325 14.730 176.000 14.138 176.000 C 13.547 176.000 13.322 176.675 13.638 177.500 C 13.955 178.325 13.828 179.001 13.357 179.002 C 12.886 179.003 12.399 180.432 12.277 182.177 C 12.154 183.921 11.704 185.608 11.277 185.925 C 10.849 186.241 10.354 187.844 10.175 189.487 C 9.996 191.130 9.546 192.705 9.175 192.987 C 8.804 193.269 8.355 195.294 8.177 197.486 C 8.000 199.678 7.550 201.703 7.177 201.986 C 6.805 202.269 6.348 204.525 6.163 207.000 C 5.978 209.475 5.441 211.642 4.969 211.815 C 4.498 211.988 4.360 212.775 4.663 213.565 C 4.966 214.354 4.876 215.788 4.463 216.750 C 4.051 217.713 3.810 219.727 3.929 221.227 C 4.049 222.727 3.836 224.456 3.458 225.068 C 2.356 226.851 2.033 234.085 2.033 257.000 C 2.033 279.915 2.356 287.149 3.458 288.932 C 3.836 289.544 4.049 291.273 3.929 292.773 C 3.810 294.273 4.051 296.288 4.463 297.250 C 4.876 298.213 4.966 299.646 4.663 300.435 C 4.360 301.225 4.498 302.012 4.969 302.185 C 5.441 302.358 5.978 304.525 6.163 307.000 C 6.348 309.475 6.805 311.731 7.177 312.014 C 7.550 312.297 8.000 314.322 8.177 316.514 C 8.355 318.706 8.855 320.762 9.289 321.083 C 9.723 321.404 10.173 322.979 10.289 324.583 C 10.405 326.187 10.849 327.759 11.277 328.075 C 11.704 328.392 12.154 330.079 12.277 331.823 C 12.399 333.568 12.886 334.997 13.357 334.998 C 13.828 334.999 13.955 335.675 13.638 336.500 C 13.322 337.325 13.547 338.000 14.138 338.000 C 14.730 338.000 14.955 338.675 14.638 339.500 C 14.322 340.325 14.400 341.000 14.812 341.000 C 15.845 341.000 18.060 347.094 17.409 348.147 C 17.119 348.616 17.316 349.000 17.847 349.000 C 18.932 349.000 22.266 357.991 21.189 358.015 C 20.810 358.024 21.000 358.361 21.610 358.765 C 23.443 359.978 26.133 365.976 25.386 367.184 C 24.930 367.922 25.147 368.027 26.015 367.490 C 26.985 366.891 27.164 367.132 26.681 368.388 C 26.238 369.544 26.401 369.870 27.181 369.388 C 27.962 368.905 28.125 369.231 27.681 370.388 C 27.238 371.544 27.401 371.870 28.181 371.388 C 28.962 370.905 29.125 371.231 28.681 372.388 C 28.238 373.544 28.401 373.870 29.181 373.388 C 29.962 372.905 30.125 373.231 29.681 374.388 C 29.319 375.332 29.405 375.868 29.872 375.579 C 30.656 375.094 34.500 382.338 34.500 384.301 C 34.500 384.777 34.796 384.870 35.159 384.508 C 35.753 383.914 36.958 386.379 36.988 388.250 C 36.995 388.663 37.916 389.916 39.036 391.036 C 40.157 392.157 40.762 393.576 40.382 394.191 C 39.962 394.871 40.144 395.029 40.845 394.595 C 41.480 394.203 42.056 394.359 42.125 394.941 C 42.344 396.795 42.746 398.026 42.879 397.250 C 43.007 396.502 46.517 401.827 46.833 403.250 C 46.925 403.663 47.000 403.675 47.000 403.277 C 47.000 402.423 49.709 406.157 49.882 407.250 C 49.947 407.663 50.000 407.668 50.000 407.262 C 50.000 406.323 55.457 413.954 55.625 415.127 C 55.694 415.607 55.806 415.723 55.875 415.385 C 56.047 414.541 65.500 426.101 65.500 427.155 C 65.500 427.620 65.838 428.000 66.250 428.000 C 66.663 428.000 67.018 428.207 67.039 428.459 C 67.061 428.711 71.055 432.743 75.914 437.418 C 80.774 442.092 84.506 446.161 84.208 446.459 C 83.910 446.756 84.492 447.000 85.500 447.000 C 86.508 447.000 86.996 447.338 86.583 447.750 C 86.171 448.163 86.251 448.500 86.762 448.500 C 87.871 448.500 99.502 457.945 98.615 458.125 C 98.277 458.194 98.342 458.306 98.759 458.375 C 100.183 458.609 111.504 467.000 110.500 467.077 C 109.950 467.119 110.262 467.300 111.193 467.480 C 113.135 467.854 117.811 470.937 116.723 471.125 C 115.940 471.260 117.287 471.674 119.167 471.875 C 119.808 471.944 120.024 472.310 119.645 472.688 C 119.267 473.067 119.529 473.468 120.228 473.581 C 121.947 473.857 130.696 478.940 129.750 479.113 C 129.338 479.188 129.340 479.306 129.755 479.375 C 132.146 479.771 142.804 485.508 142.391 486.177 C 142.119 486.617 142.591 486.711 143.440 486.385 C 144.348 486.036 145.236 486.450 145.596 487.391 C 145.934 488.269 146.584 488.757 147.042 488.474 C 147.924 487.929 159.280 493.014 159.815 494.194 C 159.988 494.575 160.717 494.662 161.436 494.386 C 162.154 494.111 163.363 494.473 164.121 495.192 C 164.879 495.912 165.950 496.525 166.500 496.556 C 168.875 496.688 173.000 498.288 173.000 499.077 C 173.000 499.550 173.675 499.678 174.500 499.362 C 175.325 499.045 176.000 499.234 176.000 499.782 C 176.000 500.330 176.563 500.735 177.250 500.683 C 179.581 500.505 186.000 502.218 186.000 503.018 C 186.000 503.455 186.900 503.577 188.000 503.290 C 189.100 503.002 190.000 503.255 190.000 503.852 C 190.000 504.449 190.675 504.678 191.500 504.362 C 192.325 504.045 193.000 504.311 193.000 504.952 C 193.000 505.593 193.421 505.858 193.935 505.540 C 194.842 504.979 202.970 506.417 206.000 507.675 C 206.825 508.017 208.513 508.198 209.750 508.077 C 210.988 507.956 212.000 508.325 212.000 508.897 C 212.000 509.469 212.675 509.678 213.500 509.362 C 214.325 509.045 215.788 509.124 216.750 509.537 C 217.713 509.949 219.727 510.190 221.227 510.071 C 222.727 509.951 224.442 510.155 225.038 510.523 C 226.876 511.660 235.665 512.091 257.000 512.091 C 278.335 512.091 287.124 511.660 288.962 510.523 C 289.558 510.155 291.273 509.951 292.773 510.071 C 294.273 510.190 296.288 509.949 297.250 509.537 C 298.213 509.124 299.646 509.034 300.435 509.337 C 301.225 509.640 302.012 509.502 302.185 509.031 C 302.358 508.559 304.525 508.022 307.000 507.837 C 309.475 507.652 311.754 507.158 312.065 506.741 C 312.375 506.323 314.510 505.873 316.809 505.741 C 319.109 505.608 320.992 505.114 320.995 504.643 C 320.998 504.172 321.675 504.045 322.500 504.362 C 323.325 504.678 324.000 504.449 324.000 503.852 C 324.000 503.255 324.900 503.002 326.000 503.290 C 327.100 503.577 328.000 503.455 328.000 503.018 C 328.000 502.218 334.419 500.505 336.750 500.683 C 337.438 500.735 338.000 500.330 338.000 499.782 C 338.000 499.234 338.675 499.045 339.500 499.362 C 340.325 499.678 341.000 499.453 341.000 498.862 C 341.000 498.270 341.675 498.045 342.500 498.362 C 343.325 498.678 344.000 498.556 344.000 498.091 C 344.000 497.625 346.813 496.215 350.250 494.957 C 353.688 493.699 358.654 491.603 361.287 490.299 C 363.921 488.995 366.461 488.167 366.933 488.458 C 367.404 488.750 368.066 488.269 368.404 487.391 C 368.764 486.450 369.652 486.036 370.560 486.385 C 371.567 486.771 371.855 486.574 371.388 485.819 C 370.893 485.018 371.254 484.883 372.555 485.383 C 373.591 485.780 374.113 485.779 373.713 485.380 C 373.117 484.783 382.861 479.027 384.503 479.006 C 384.776 479.003 384.663 478.995 384.250 478.988 C 383.181 478.971 392.239 473.828 393.772 473.581 C 394.471 473.468 394.733 473.067 394.355 472.688 C 393.976 472.310 394.192 471.944 394.833 471.875 C 396.713 471.674 398.060 471.260 397.277 471.125 C 396.189 470.937 400.865 467.854 402.807 467.480 C 403.738 467.300 404.050 467.119 403.500 467.077 C 402.496 467.000 413.817 458.609 415.241 458.375 C 415.658 458.306 415.675 458.194 415.277 458.125 C 414.880 458.056 415.555 457.299 416.777 456.443 C 418.000 455.587 419.053 455.025 419.118 455.193 C 419.184 455.362 419.198 455.205 419.150 454.845 C 419.043 454.038 426.180 448.508 427.333 448.503 C 427.792 448.501 427.829 448.163 427.417 447.750 C 427.004 447.338 427.492 447.000 428.500 447.000 C 429.508 447.000 430.090 446.756 429.792 446.459 C 429.494 446.161 433.226 442.092 438.086 437.418 C 442.945 432.743 446.939 428.711 446.961 428.459 C 446.982 428.207 447.338 428.000 447.750 428.000 C 448.163 428.000 448.500 427.620 448.500 427.155 C 448.500 426.127 457.196 415.454 458.250 415.189 C 458.663 415.085 458.697 415.000 458.326 415.000 C 457.955 415.000 458.542 413.988 459.631 412.750 C 460.719 411.513 462.696 408.845 464.024 406.823 C 465.352 404.801 466.677 403.167 466.969 403.192 C 467.261 403.216 467.394 403.184 467.265 403.118 C 467.135 403.053 467.921 401.538 469.011 399.750 C 470.101 397.963 471.050 396.838 471.121 397.250 C 471.254 398.026 471.656 396.795 471.875 394.941 C 471.944 394.359 472.520 394.203 473.155 394.595 C 473.856 395.029 474.038 394.871 473.618 394.191 C 473.238 393.576 473.843 392.157 474.964 391.036 C 476.084 389.916 476.934 388.888 476.853 388.750 C 476.404 387.985 478.291 383.958 478.841 384.508 C 479.204 384.870 479.500 384.777 479.500 384.301 C 479.500 382.338 483.344 375.094 484.128 375.579 C 484.595 375.868 484.681 375.332 484.319 374.388 C 483.875 373.231 484.038 372.905 484.819 373.388 C 485.599 373.870 485.762 373.544 485.319 372.388 C 484.875 371.231 485.038 370.905 485.819 371.388 C 486.599 371.870 486.762 371.544 486.319 370.388 C 485.875 369.231 486.038 368.905 486.819 369.388 C 487.599 369.870 487.762 369.544 487.319 368.388 C 486.836 367.132 487.015 366.891 487.985 367.490 C 488.836 368.017 489.069 367.921 488.638 367.223 C 487.945 366.103 490.865 359.000 492.019 359.000 C 492.375 359.000 492.667 358.379 492.667 357.620 C 492.667 355.333 497.180 344.000 498.091 344.000 C 498.556 344.000 498.678 343.325 498.362 342.500 C 498.045 341.675 498.270 341.000 498.862 341.000 C 499.453 341.000 499.678 340.325 499.362 339.500 C 499.045 338.675 499.270 338.000 499.862 338.000 C 500.453 338.000 500.678 337.325 500.362 336.500 C 500.045 335.675 500.172 334.999 500.643 334.998 C 501.114 334.997 501.601 333.568 501.723 331.823 C 501.846 330.079 502.296 328.392 502.723 328.075 C 503.151 327.759 503.595 326.187 503.711 324.583 C 503.827 322.979 504.277 321.404 504.711 321.083 C 505.145 320.762 505.645 318.706 505.823 316.514 C 506.000 314.322 506.450 312.297 506.823 312.014 C 507.195 311.731 507.652 309.475 507.837 307.000 C 508.022 304.525 508.559 302.358 509.031 302.185 C 509.502 302.012 509.640 301.225 509.337 300.435 C 509.034 299.646 509.124 298.213 509.537 297.250 C 509.949 296.288 510.190 294.273 510.071 292.773 C 509.951 291.273 510.164 289.544 510.542 288.932 C 511.644 287.149 511.967 279.915 511.967 257.000 C 511.967 234.085 511.644 226.851 510.542 225.068 C 510.164 224.456 509.951 222.727 510.071 221.227 C 510.190 219.727 509.949 217.713 509.537 216.750 C 509.124 215.788 509.034 214.354 509.337 213.565 C 509.640 212.775 509.502 211.988 509.031 211.815 C 508.559 211.642 508.022 209.475 507.837 207.000 C 507.652 204.525 507.195 202.269 506.823 201.986 C 506.450 201.703 506.000 199.678 505.823 197.486 C 505.645 195.294 505.196 193.269 504.825 192.987 C 504.454 192.705 504.004 191.130 503.825 189.487 C 503.646 187.844 503.151 186.241 502.723 185.925 C 502.296 185.608 501.846 183.921 501.723 182.177 C 501.601 180.432 501.114 179.003 500.643 179.002 C 500.172 179.001 500.045 178.325 500.362 177.500 C 500.678 176.675 500.453 176.000 499.862 176.000 C 499.270 176.000 499.045 175.325 499.362 174.500 C 499.678 173.675 499.453 173.000 498.862 173.000 C 498.270 173.000 498.045 172.325 498.362 171.500 C 498.678 170.675 498.556 170.000 498.091 170.000 C 497.180 170.000 492.667 158.667 492.667 156.380 C 492.667 155.621 492.375 155.000 492.019 155.000 C 490.865 155.000 487.945 147.897 488.638 146.777 C 489.069 146.079 488.836 145.983 487.985 146.510 C 487.015 147.109 486.836 146.868 487.319 145.612 C 487.762 144.456 487.599 144.130 486.819 144.612 C 486.038 145.095 485.875 144.769 486.319 143.612 C 486.762 142.456 486.599 142.130 485.819 142.612 C 485.038 143.095 484.875 142.769 485.319 141.612 C 485.762 140.456 485.599 140.130 484.819 140.612 C 484.038 141.095 483.875 140.769 484.319 139.612 C 484.762 138.456 484.599 138.130 483.819 138.612 C 483.038 139.095 482.875 138.769 483.319 137.612 C 483.681 136.668 483.584 136.139 483.105 136.435 C 482.316 136.923 479.540 131.693 479.512 129.667 C 479.505 129.208 479.204 129.130 478.841 129.492 C 478.247 130.086 477.042 127.621 477.012 125.750 C 477.005 125.338 476.084 124.084 474.964 122.964 C 473.843 121.843 473.238 120.424 473.618 119.809 C 473.998 119.194 473.872 118.961 473.338 119.291 C 472.804 119.621 471.584 118.566 470.627 116.946 C 469.670 115.326 469.187 114.000 469.554 114.000 C 469.921 114.000 469.248 113.212 468.059 112.249 C 466.869 111.285 465.729 109.598 465.525 108.499 C 465.320 107.399 465.119 106.905 465.077 107.400 C 465.034 107.895 463.647 106.433 461.994 104.150 C 460.340 101.868 459.215 99.944 459.494 99.875 C 459.772 99.806 459.592 99.694 459.094 99.625 C 457.822 99.450 449.500 89.070 449.500 87.660 C 449.500 87.022 449.050 86.461 448.500 86.414 C 447.432 86.322 425.791 65.086 426.550 64.875 C 426.797 64.806 426.663 64.688 426.250 64.611 C 424.718 64.328 418.873 59.495 419.916 59.375 C 420.991 59.251 420.692 58.898 419.250 58.590 C 416.899 58.087 414.042 55.742 414.627 54.795 C 415.004 54.184 414.857 53.971 414.297 54.317 C 413.740 54.661 410.889 53.155 407.961 50.971 C 405.034 48.787 402.945 46.944 403.319 46.875 C 404.062 46.739 402.687 46.324 400.833 46.125 C 400.192 46.056 400.004 45.663 400.417 45.250 C 400.829 44.838 400.679 44.444 400.083 44.375 C 399.488 44.306 398.475 44.194 397.833 44.125 C 397.192 44.056 397.004 43.663 397.417 43.250 C 397.829 42.838 397.679 42.444 397.083 42.375 C 396.488 42.306 395.475 42.194 394.833 42.125 C 394.192 42.056 394.004 41.663 394.417 41.250 C 394.829 40.838 394.679 40.444 394.083 40.375 C 393.488 40.306 392.475 40.194 391.833 40.125 C 391.192 40.056 391.004 39.663 391.417 39.250 C 391.829 38.838 391.792 38.478 391.333 38.451 C 389.034 38.315 386.039 36.747 386.537 35.939 C 386.849 35.435 386.387 35.298 385.511 35.634 C 384.635 35.970 383.990 35.853 384.078 35.373 C 384.165 34.893 384.184 34.624 384.118 34.776 C 383.812 35.489 378.000 31.822 378.000 30.915 C 378.000 30.347 377.591 30.135 377.090 30.444 C 375.806 31.238 372.899 29.973 373.558 28.907 C 373.858 28.421 373.440 28.278 372.629 28.589 C 371.818 28.900 370.304 28.304 369.265 27.265 C 368.225 26.225 366.778 25.574 366.048 25.817 C 365.178 26.107 364.995 25.817 365.515 24.975 C 366.016 24.165 365.910 23.937 365.229 24.358 C 363.961 25.142 359.000 23.089 359.000 21.780 C 359.000 21.286 358.550 21.160 358.000 21.500 C 357.450 21.840 357.000 21.691 357.000 21.170 C 357.000 20.649 356.438 20.243 355.750 20.269 C 352.325 20.396 350.932 19.919 351.595 18.845 C 352.009 18.176 351.873 17.961 351.269 18.334 C 349.996 19.121 344.000 17.141 344.000 15.934 C 344.000 15.455 343.325 15.322 342.500 15.638 C 341.675 15.955 341.000 15.730 341.000 15.138 C 341.000 14.547 340.325 14.322 339.500 14.638 C 338.675 14.955 338.000 14.828 337.999 14.357 C 337.999 13.886 336.815 13.431 335.369 13.348 C 333.922 13.264 332.460 12.814 332.119 12.348 C 331.779 11.881 330.154 11.400 328.510 11.279 C 326.865 11.157 325.381 10.642 325.212 10.135 C 325.043 9.628 324.026 9.442 322.952 9.723 C 321.878 10.004 321.000 9.773 321.000 9.210 C 321.000 8.648 320.100 8.423 319.000 8.710 C 317.900 8.998 317.000 8.793 317.000 8.255 C 317.000 7.717 315.875 7.492 314.500 7.755 C 313.125 8.018 312.000 7.773 312.000 7.210 C 312.000 6.648 311.100 6.423 310.000 6.710 C 308.900 6.998 308.000 6.793 308.000 6.255 C 308.000 5.717 306.928 5.482 305.617 5.733 C 304.307 5.983 302.942 5.716 302.585 5.138 C 302.228 4.560 301.275 4.341 300.468 4.651 C 299.661 4.960 298.213 4.890 297.250 4.494 C 296.288 4.098 294.150 3.651 292.500 3.500 C 290.850 3.350 287.025 2.950 284.000 2.611 C 275.556 1.667 236.149 1.401 233.795 2.272 M 314.769 88.750 L 315.038 111.000 317.269 110.956 C 318.496 110.932 324.225 110.516 330.000 110.031 C 352.873 108.111 380.320 115.394 404.500 129.801 C 428.493 144.095 451.136 169.150 462.522 194.000 C 464.160 197.575 465.725 200.725 466.000 201.000 C 466.275 201.275 466.659 202.625 466.852 204.000 C 467.046 205.375 467.566 207.178 468.007 208.006 C 469.050 209.963 472.434 224.442 474.082 234.000 C 475.746 243.645 475.746 266.355 474.082 276.000 C 472.434 285.558 469.050 300.037 468.007 301.994 C 467.566 302.822 467.046 304.625 466.852 306.000 C 466.659 307.375 466.275 308.725 466.000 309.000 C 465.725 309.275 464.156 312.425 462.513 316.000 C 447.095 349.544 415.996 378.480 381.341 391.524 C 364.048 398.033 341.255 401.603 324.810 400.378 C 319.689 399.997 313.813 399.643 311.751 399.593 C 309.689 399.542 308.002 399.128 308.001 398.673 C 308.001 398.219 306.396 397.985 304.436 398.154 C 302.453 398.325 301.233 398.076 301.686 397.594 C 302.139 397.111 301.294 396.945 299.780 397.219 C 298.112 397.521 297.300 397.324 297.679 396.711 C 298.057 396.098 297.281 395.904 295.679 396.211 C 294.239 396.486 293.267 396.378 293.519 395.970 C 293.771 395.562 292.893 395.022 291.568 394.768 C 289.438 394.361 288.919 394.937 287.078 399.747 C 285.934 402.738 285.292 405.664 285.653 406.248 C 286.023 406.847 285.838 407.018 285.227 406.640 C 284.616 406.263 283.854 406.959 283.478 408.235 C 282.465 411.683 265.669 446.324 264.317 447.756 C 263.665 448.447 262.816 450.022 262.431 451.256 C 262.046 452.490 261.454 453.725 261.115 454.000 C 260.777 454.275 258.345 457.783 255.711 461.796 C 253.077 465.809 250.236 469.356 249.398 469.678 C 248.559 470.000 246.664 469.641 245.186 468.881 L 242.500 467.500 245.500 468.268 C 247.975 468.902 248.790 468.639 250.156 466.768 C 251.750 464.585 251.746 464.569 250.031 466.352 C 247.904 468.565 247.693 468.474 234.500 459.704 C 220.766 450.574 221.467 451.735 225.700 445.134 C 234.588 431.277 247.602 407.727 248.157 404.500 C 248.345 403.400 247.375 404.512 246.000 406.972 C 242.429 413.359 243.383 410.220 249.040 396.968 C 255.118 382.729 255.869 379.547 253.374 378.590 C 250.725 377.573 243.067 371.655 243.031 370.596 C 243.014 370.098 240.221 367.177 236.824 364.103 C 214.763 344.138 198.678 318.126 191.929 291.500 C 190.814 287.100 189.684 282.762 189.418 281.859 C 189.008 280.469 191.192 279.808 203.717 277.527 C 211.848 276.046 218.985 274.691 219.577 274.515 C 220.178 274.337 221.843 278.466 223.341 283.848 C 226.698 295.903 233.236 309.564 239.613 317.847 C 242.352 321.404 244.060 323.034 243.500 321.554 C 242.616 319.222 242.817 319.316 245.225 322.358 C 249.443 327.688 262.264 340.000 263.595 340.000 C 264.250 340.000 265.045 340.675 265.362 341.500 C 265.678 342.325 266.449 343.000 267.076 343.000 C 267.702 343.000 267.966 342.354 267.663 341.565 C 267.360 340.775 267.521 339.988 268.020 339.815 C 270.850 338.834 280.175 275.309 279.516 261.500 C 279.437 259.850 279.289 235.030 279.186 206.344 L 279.000 154.187 276.750 154.758 C 275.513 155.072 273.600 155.866 272.500 156.523 C 271.400 157.180 267.575 158.765 264.000 160.045 C 260.425 161.326 257.169 162.852 256.765 163.437 C 256.361 164.022 256.024 164.156 256.015 163.737 C 256.007 163.317 254.316 163.677 252.257 164.537 L 248.515 166.101 250.699 164.065 C 252.947 161.972 254.747 161.213 271.000 155.513 L 280.500 152.181 280.759 204.090 L 281.018 256.000 297.509 256.000 L 314.000 256.000 314.000 201.000 C 314.000 149.330 314.106 145.993 315.750 145.884 C 317.417 145.774 317.417 145.746 315.750 145.311 C 314.179 144.900 314.000 143.278 314.000 129.427 C 314.000 117.794 314.307 113.981 315.250 113.921 C 316.250 113.858 316.250 113.741 315.250 113.338 C 314.302 112.955 314.000 107.424 314.000 90.463 L 314.000 68.093 297.515 67.797 L 281.030 67.500 280.765 93.000 L 280.500 118.500 278.250 118.820 C 277.013 118.995 276.000 119.566 276.000 120.089 C 276.000 120.611 277.137 120.753 278.526 120.404 L 281.052 119.770 280.776 135.417 L 280.500 151.064 268.650 155.034 C 255.478 159.447 237.230 168.174 225.919 175.470 C 216.982 181.235 202.006 192.726 200.193 195.210 C 199.475 196.194 198.419 197.000 197.847 197.000 C 196.040 197.000 183.994 208.155 175.709 217.500 C 165.624 228.876 152.758 246.928 153.450 248.731 C 153.740 249.486 153.555 249.843 153.039 249.524 C 151.791 248.753 149.714 252.728 150.608 254.175 C 151.029 254.856 150.863 255.034 150.193 254.619 C 148.812 253.766 144.632 261.595 145.617 263.189 C 146.006 263.818 145.862 264.033 145.288 263.678 C 144.146 262.972 136.050 279.633 135.491 283.838 C 135.297 285.302 135.074 286.050 134.996 285.500 C 134.761 283.844 131.117 294.773 127.884 306.829 C 126.214 313.060 125.092 318.797 125.392 319.579 C 125.692 320.361 125.571 321.000 125.124 321.000 C 123.475 321.000 121.729 338.072 121.340 358.000 L 120.940 378.500 113.220 378.767 C 108.974 378.915 102.013 379.299 97.750 379.622 L 90.000 380.208 90.000 363.065 C 90.000 337.398 92.109 321.019 98.611 296.188 C 100.528 288.867 103.386 279.529 104.961 275.438 C 106.536 271.347 107.584 268.000 107.290 268.000 C 106.996 268.000 107.256 267.396 107.869 266.658 C 108.481 265.920 108.687 265.020 108.325 264.658 C 107.963 264.296 108.192 264.000 108.833 264.000 C 109.475 264.000 110.000 263.607 110.000 263.127 C 110.000 262.647 110.992 260.060 112.205 257.377 C 113.418 254.695 114.318 252.163 114.205 251.750 C 114.092 251.338 114.477 251.000 115.059 251.000 C 115.641 251.000 115.840 250.550 115.500 250.000 C 115.160 249.450 115.385 249.000 116.000 249.000 C 116.615 249.000 116.840 248.550 116.500 248.000 C 116.160 247.450 116.385 247.000 117.000 247.000 C 117.615 247.000 117.840 246.550 117.500 246.000 C 117.160 245.450 117.274 245.000 117.754 245.000 C 118.744 245.000 125.406 233.544 125.057 232.442 C 124.932 232.047 125.268 231.448 125.805 231.112 C 127.329 230.156 143.207 207.680 143.545 206.000 C 143.711 205.175 143.896 204.950 143.957 205.500 C 144.017 206.050 144.949 205.441 146.028 204.146 C 147.107 202.851 147.697 201.319 147.340 200.741 C 146.983 200.164 147.128 199.961 147.663 200.292 C 148.197 200.622 152.387 196.823 156.974 191.850 C 161.560 186.876 169.630 178.963 174.907 174.266 C 180.183 169.568 184.556 165.336 184.625 164.862 C 184.694 164.388 184.806 164.241 184.875 164.535 C 184.944 164.830 185.913 164.582 187.028 163.985 C 188.143 163.388 188.749 162.403 188.373 161.795 C 187.963 161.132 188.149 160.974 188.837 161.399 C 189.471 161.791 191.126 160.965 192.537 159.554 C 193.942 158.149 195.483 157.000 195.962 157.000 C 196.441 157.000 196.983 156.557 197.167 156.015 C 197.799 154.147 226.372 139.041 239.114 133.839 C 246.139 130.971 251.617 128.190 251.289 127.658 C 250.955 127.119 251.212 127.013 251.869 127.419 C 253.079 128.167 265.728 124.465 267.473 122.853 C 268.008 122.359 265.870 122.840 262.723 123.923 C 259.575 125.006 257.000 125.636 257.000 125.324 C 257.000 125.011 256.422 125.234 255.716 125.820 C 254.970 126.440 253.859 126.531 253.063 126.039 C 252.136 125.466 254.816 124.192 261.352 122.098 C 266.665 120.396 271.347 119.089 271.756 119.192 C 272.165 119.296 273.963 119.035 275.750 118.611 L 279.000 117.841 279.000 93.121 C 279.000 74.967 279.325 68.075 280.223 67.177 C 281.112 66.288 285.964 66.028 297.973 66.227 L 314.500 66.500 314.769 88.750 M 84.396 77.832 C 84.679 78.289 88.020 79.219 91.822 79.899 C 102.226 81.758 110.455 84.545 110.813 86.332 C 110.985 87.191 109.772 94.555 108.117 102.697 C 97.141 156.694 93.754 212.616 98.044 269.000 C 98.609 276.425 99.291 283.128 99.560 283.895 C 99.829 284.662 98.640 290.737 96.918 297.395 C 91.222 319.423 89.922 329.426 89.311 355.921 C 88.779 378.998 88.852 380.421 90.624 381.761 C 92.441 383.135 92.438 383.169 90.502 382.826 C 89.002 382.561 88.100 380.980 86.885 376.487 C 85.661 371.959 85.173 371.109 84.883 373.000 C 84.487 375.584 79.775 359.718 78.423 351.250 C 78.050 348.913 77.464 346.997 77.122 346.993 C 76.780 346.989 76.405 344.919 76.290 342.393 C 76.174 339.867 75.616 337.242 75.048 336.558 C 74.481 335.875 74.294 335.039 74.632 334.701 C 74.970 334.363 74.913 333.279 74.504 332.293 C 74.096 331.307 73.649 329.375 73.513 328.000 C 72.877 321.604 71.715 314.406 71.173 313.501 C 70.843 312.951 70.704 311.263 70.862 309.751 C 71.021 308.238 70.693 307.000 70.133 307.000 C 69.573 307.000 69.291 306.085 69.506 304.967 C 69.722 303.850 69.246 297.679 68.449 291.255 C 67.652 284.832 67.000 277.571 67.000 275.121 C 67.000 272.671 66.778 270.889 66.506 271.160 C 64.863 272.804 64.488 196.418 66.049 178.000 C 66.585 171.675 66.792 165.515 66.508 164.311 C 66.225 163.107 66.381 161.882 66.857 161.589 C 67.332 161.295 68.030 157.105 68.408 152.277 C 68.787 147.450 70.220 136.791 71.594 128.591 C 72.968 120.392 73.861 113.079 73.578 112.341 C 73.294 111.604 73.531 111.000 74.103 111.000 C 74.675 111.000 75.044 109.988 74.923 108.750 C 74.802 107.513 74.988 105.825 75.337 105.000 C 76.347 102.613 80.929 80.596 80.504 80.171 C 80.024 79.691 82.254 77.090 83.191 77.038 C 83.571 77.017 84.113 77.374 84.396 77.832 M 313.000 162.000 L 313.000 255.000 297.500 255.000 L 282.000 255.000 282.000 162.000 L 282.000 69.000 297.500 69.000 L 313.000 69.000 313.000 162.000 "/></g>
<g fill="#040404FD" stroke="#040404FD">
<path d="M 316.231 147.600 C 315.225 148.059 314.970 161.549 314.996 212.840 C 315.015 249.351 314.583 282.435 314.003 288.836 C 312.204 308.701 308.023 332.750 303.030 351.962 C 301.963 356.066 301.230 359.563 301.400 359.734 C 302.770 361.103 317.072 362.775 327.783 362.819 C 344.044 362.885 356.424 360.545 371.000 354.651 C 392.506 345.955 412.564 328.820 422.094 311.003 C 423.417 308.529 424.775 306.279 425.110 306.003 C 426.644 304.740 429.010 298.826 428.386 297.816 C 428.004 297.197 428.135 296.965 428.678 297.301 C 429.947 298.085 434.435 284.513 433.439 282.902 C 432.998 282.187 433.110 281.950 433.714 282.323 C 435.733 283.571 437.500 270.816 437.500 255.000 C 437.500 239.184 435.733 226.429 433.714 227.677 C 433.110 228.050 432.998 227.813 433.439 227.098 C 434.435 225.487 429.947 211.915 428.678 212.699 C 428.135 213.035 428.004 212.803 428.386 212.184 C 429.010 211.174 426.644 205.260 425.110 203.997 C 424.775 203.721 423.417 201.471 422.094 198.997 C 416.153 187.890 402.030 173.135 389.359 164.799 C 380.408 158.910 365.985 152.701 354.961 149.990 C 346.631 147.942 319.190 146.248 316.231 147.600 "/></g>
<g fill="#FDFDFDFD" stroke="#FDFDFDFD">
<path d="M 330.000 128.361 L 330.000 144.000 334.428 144.000 C 347.435 144.000 364.618 148.338 378.243 155.062 C 389.363 160.550 396.407 165.460 405.411 173.998 C 452.580 218.726 452.580 291.274 405.411 336.002 C 388.630 351.915 367.581 362.108 345.365 365.081 C 334.170 366.579 315.908 365.700 306.159 363.195 C 301.150 361.907 298.714 361.656 298.488 362.404 C 298.307 363.007 296.051 369.941 293.475 377.813 C 290.900 385.685 288.952 392.256 289.146 392.415 C 291.313 394.189 318.141 398.000 328.463 398.000 C 342.814 398.000 362.025 394.724 376.500 389.809 C 433.715 370.382 472.964 315.532 472.964 255.000 C 472.964 207.962 448.560 162.334 409.634 136.594 C 388.122 122.369 365.175 114.555 341.250 113.308 L 330.000 112.721 330.000 128.361 "/></g>
<g fill="#2424240C" stroke="#2424240C">
<path d="M 1.108 118.750 C 1.202 220.841 1.391 235.065 2.523 225.708 C 6.782 190.504 18.930 155.235 37.507 124.142 C 49.743 103.660 72.600 76.950 91.417 61.143 C 132.183 26.898 178.980 7.244 233.000 1.681 C 234.925 1.482 183.513 1.248 118.750 1.160 L 1.000 1.000 1.108 118.750 "/></g>
<g fill="#2424240C" stroke="#2424240C">
<path d="M 281.000 1.681 C 354.824 9.284 416.837 44.061 462.572 103.507 C 488.011 136.572 506.188 181.991 511.477 225.708 C 512.609 235.065 512.798 220.841 512.892 118.750 L 513.000 1.000 395.250 1.160 C 330.488 1.248 279.075 1.482 281.000 1.681 "/></g>
<g fill="#2424240C" stroke="#2424240C">
<path d="M 1.108 373.031 L 1.000 468.563 21.751 489.229 C 34.932 502.355 43.858 510.461 46.219 511.447 C 49.497 512.817 60.998 512.984 143.718 512.867 C 201.717 512.785 234.257 512.412 229.000 511.889 C 189.535 507.962 145.000 491.412 111.670 468.287 C 86.748 450.996 62.616 426.718 44.787 401.000 C 22.741 369.201 7.344 328.140 2.523 288.292 C 1.377 278.825 1.204 289.231 1.108 373.031 "/></g>
<g fill="#2424240C" stroke="#2424240C">
<path d="M 511.715 286.000 C 511.283 290.675 509.798 300.125 508.415 307.000 C 498.184 357.847 475.298 400.748 439.036 437.051 C 422.527 453.579 413.350 461.160 396.500 472.189 C 364.489 493.141 322.638 508.085 285.500 511.824 C 279.460 512.433 306.682 512.775 368.263 512.865 L 460.025 513.000 470.763 502.113 C 478.108 494.664 483.237 490.365 487.000 488.503 C 490.787 486.628 495.695 482.500 502.755 475.252 L 513.010 464.724 512.755 371.112 C 512.609 317.364 512.166 281.120 511.715 286.000 "/></g>
<g fill="#E0DC30FD" stroke="#E0DC30FD">
<path d="M 267.000 123.618 C 260.675 125.558 249.054 129.782 241.175 133.004 C 210.076 145.725 188.694 160.153 163.471 185.437 C 130.997 217.990 109.463 254.749 98.627 296.128 C 92.116 320.990 90.000 337.383 90.000 362.952 L 90.000 379.983 102.250 379.438 C 108.988 379.139 115.903 378.683 117.617 378.426 L 120.733 377.959 121.283 357.230 C 121.877 334.808 123.301 324.119 128.107 306.000 C 137.779 269.537 156.449 236.733 182.468 210.487 C 192.809 200.056 212.880 183.880 225.919 175.470 C 237.231 168.174 255.479 159.447 268.650 155.034 L 280.500 151.064 280.775 135.532 C 280.990 123.446 280.768 120.010 279.775 120.046 C 279.074 120.071 273.325 121.679 267.000 123.618 "/></g>
<g fill="#8CE1E4FD" stroke="#8CE1E4FD">
<path d="M 83.540 79.884 C 82.192 84.163 76.688 113.249 74.529 127.500 C 65.441 187.507 64.949 248.649 73.096 305.500 C 76.151 326.816 80.689 350.862 84.797 367.500 C 87.927 380.178 88.810 382.553 90.500 382.840 C 92.438 383.169 92.441 383.135 90.624 381.761 C 88.852 380.421 88.779 378.998 89.311 355.921 C 89.922 329.426 91.222 319.423 96.918 297.395 C 98.640 290.737 99.829 284.662 99.560 283.895 C 99.291 283.128 98.609 276.425 98.044 269.000 C 93.754 212.616 97.141 156.694 108.117 102.697 C 109.772 94.555 110.985 87.179 110.813 86.306 C 110.458 84.503 105.478 82.793 92.775 80.111 C 84.802 78.428 84.006 78.408 83.540 79.884 "/></g>
<g fill="#D599D8FD" stroke="#D599D8FD">
<path d="M 280.991 265.750 C 280.967 293.361 274.411 332.940 264.964 362.500 C 256.081 390.298 242.035 419.877 225.725 445.134 C 222.332 450.388 222.202 450.870 223.793 452.270 C 227.430 455.470 247.347 468.051 248.282 467.739 C 249.541 467.320 260.894 448.802 268.661 434.500 C 278.714 415.991 285.529 400.345 291.967 381.000 C 295.352 370.825 298.540 361.600 299.050 360.500 C 300.103 358.229 302.882 346.368 305.921 331.178 C 309.443 313.570 312.055 291.241 312.696 273.250 L 313.311 256.000 297.155 256.000 L 281.000 256.000 280.991 265.750 "/></g>
<g fill="#810505FD" stroke="#810505FD">
<path d="M 282.000 162.000 L 282.000 255.000 297.500 255.000 L 313.000 255.000 313.000 162.000 L 313.000 69.000 297.500 69.000 L 282.000 69.000 282.000 162.000 "/></g>
<g fill="#FDFDFDFD" stroke="#FDFDFDFD">
<path d="M 205.038 277.201 C 196.534 278.791 189.469 280.198 189.338 280.329 C 188.870 280.797 193.707 298.610 195.871 304.390 C 204.170 326.554 218.630 347.638 236.824 364.103 C 240.221 367.177 243.005 370.098 243.011 370.596 C 243.020 371.398 250.122 376.886 253.932 379.035 C 255.792 380.085 254.554 384.345 248.006 399.426 C 245.362 405.517 243.530 410.412 243.936 410.304 C 245.359 409.927 254.845 389.359 259.987 375.500 C 270.232 347.894 279.217 304.910 278.893 285.064 C 278.794 279.036 278.672 279.440 277.400 290.000 C 274.794 311.634 268.736 343.005 267.167 342.997 C 265.826 342.990 253.110 331.331 247.879 325.312 C 244.575 321.512 242.886 320.102 243.500 321.659 C 245.419 326.522 234.751 311.440 230.994 303.978 C 228.911 299.840 225.991 292.415 224.505 287.478 C 223.019 282.540 221.510 277.558 221.151 276.406 L 220.500 274.311 205.038 277.201 "/></g>
<g fill="#2020200D" stroke="#2020200D">
<path d="M 502.500 475.654 C 495.742 482.515 490.717 486.685 487.000 488.516 C 483.219 490.378 478.144 494.628 470.763 502.113 L 460.025 513.000 486.531 513.000 L 513.036 513.000 512.768 489.250 L 512.500 465.500 502.500 475.654 "/></g>
<g fill="#2020200D" stroke="#2020200D">
<path d="M 1.000 490.781 L 1.000 513.000 25.250 512.961 C 47.815 512.924 49.257 512.816 46.000 511.405 C 43.985 510.532 33.693 501.119 21.750 489.226 L 1.000 468.563 1.000 490.781 "/></g>
<g fill="#FDFDFDFD" stroke="#FDFDFDFD">
<path d="M 81.602 78.594 C 78.712 86.126 69.911 135.777 68.059 155.000 C 63.758 199.628 63.765 248.988 68.076 288.000 C 70.849 313.095 76.509 345.101 81.676 364.912 C 85.896 381.087 85.582 375.075 81.122 354.277 C 76.205 331.347 72.781 309.892 69.826 283.500 C 67.856 265.904 67.587 258.392 67.587 221.000 C 67.587 183.562 67.854 176.118 69.831 158.500 C 73.078 129.570 80.236 86.771 83.076 79.299 C 83.569 78.003 83.572 77.000 83.082 77.000 C 82.605 77.000 81.939 77.717 81.602 78.594 "/></g>
<g fill="#FD9494FD" stroke="#FD9494FD">
<path d="M 316.250 145.645 L 314.000 146.139 313.978 197.320 C 313.942 280.243 312.160 304.009 302.873 345.406 C 301.281 352.504 300.151 358.485 300.363 358.696 C 301.019 359.353 304.905 344.198 307.978 329.000 C 314.248 297.991 314.326 296.756 314.938 219.000 L 315.500 147.500 330.500 147.560 C 347.995 147.631 357.517 149.548 372.799 156.077 C 393.244 164.812 411.829 180.996 422.490 199.351 C 424.898 203.496 425.449 203.949 426.280 202.463 C 426.954 201.260 426.922 200.930 426.177 201.391 C 424.965 202.140 422.470 198.197 423.502 197.164 C 423.868 196.799 423.567 196.500 422.833 196.500 C 422.100 196.500 421.500 195.938 421.500 195.250 C 421.500 194.563 421.838 194.000 422.250 194.000 C 423.216 194.000 422.360 193.786 420.750 193.625 C 420.063 193.556 419.500 192.938 419.500 192.250 C 419.500 191.563 419.950 191.096 420.500 191.214 C 421.050 191.331 420.938 191.079 420.250 190.655 C 419.563 190.230 419.000 190.189 419.000 190.563 C 419.000 190.938 418.325 190.685 417.500 190.000 C 415.720 188.523 415.519 186.896 417.160 187.250 C 418.041 187.440 418.041 187.305 417.160 186.691 C 416.522 186.246 416.000 186.203 416.000 186.596 C 416.000 186.989 415.100 186.495 414.000 185.500 C 411.540 183.274 411.332 181.254 413.750 183.069 C 414.713 183.792 412.350 181.185 408.500 177.275 C 404.650 173.365 401.867 170.804 402.315 171.583 C 403.404 173.475 401.585 173.409 400.000 171.500 C 399.315 170.675 399.090 170.000 399.500 170.000 C 399.910 170.000 399.707 169.352 399.049 168.559 C 398.392 167.767 397.138 167.394 396.263 167.729 C 395.254 168.117 394.921 167.937 395.352 167.239 C 396.070 166.078 394.352 164.571 392.261 164.526 C 391.580 164.512 391.054 164.106 391.094 163.624 C 391.213 162.158 385.816 159.133 384.193 159.756 C 383.225 160.127 382.925 159.930 383.369 159.213 C 384.178 157.903 378.457 154.600 376.971 155.518 C 376.437 155.848 376.000 155.718 376.000 155.230 C 376.000 154.741 374.988 154.377 373.750 154.421 C 372.382 154.469 371.608 153.980 371.775 153.175 C 371.964 152.266 371.416 152.051 370.034 152.489 C 368.925 152.841 367.451 152.770 366.759 152.331 C 365.888 151.778 366.116 151.527 367.500 151.516 C 368.600 151.507 367.282 150.713 364.572 149.750 C 358.944 147.752 357.626 147.587 358.493 148.989 C 358.843 149.555 358.443 149.724 357.558 149.384 C 356.707 149.057 356.229 148.439 356.494 148.010 C 356.760 147.580 355.744 146.928 354.238 146.561 C 350.831 145.731 319.318 144.970 316.250 145.645 "/></g>
<g fill="#E0DC30FD" stroke="#E0DC30FD">
<path d="M 315.250 113.662 C 314.325 114.035 314.000 118.214 314.000 129.723 L 314.000 145.279 319.250 144.648 C 322.138 144.301 325.738 144.013 327.250 144.009 L 330.000 144.000 330.000 128.500 L 330.000 113.000 323.250 113.079 C 319.538 113.122 315.938 113.385 315.250 113.662 "/></g>
<g fill="#FD9494FD" stroke="#FD9494FD">
<path d="M 293.000 67.033 L 281.500 67.667 297.500 67.690 L 313.500 67.712 313.767 90.106 L 314.035 112.500 329.767 112.527 C 347.561 112.558 358.315 113.326 357.233 114.487 C 356.830 114.920 357.738 115.049 359.250 114.775 C 360.763 114.501 362.000 114.717 362.000 115.255 C 362.000 115.793 362.900 115.998 364.000 115.710 C 365.100 115.423 366.000 115.595 366.000 116.094 C 366.000 116.592 366.788 116.993 367.750 116.985 C 369.246 116.972 369.282 116.828 368.000 116.000 C 367.082 115.407 366.966 115.025 367.700 115.015 C 368.360 115.007 369.317 115.745 369.827 116.654 C 370.399 117.677 371.392 118.063 372.428 117.666 C 373.485 117.260 373.860 117.418 373.443 118.093 C 373.052 118.725 373.543 119.082 374.641 118.966 C 375.663 118.858 376.275 118.846 376.000 118.939 C 375.725 119.033 377.671 119.990 380.325 121.067 C 382.979 122.144 385.566 122.768 386.075 122.454 C 386.584 122.139 387.000 122.286 387.000 122.780 C 387.000 124.089 391.961 126.142 393.229 125.358 C 393.872 124.961 394.020 125.159 393.595 125.845 C 393.203 126.480 393.287 127.000 393.781 127.000 C 394.276 127.000 398.465 129.293 403.090 132.095 C 407.716 134.897 412.072 137.287 412.772 137.407 C 413.471 137.526 413.770 137.897 413.436 138.231 C 413.102 138.565 413.767 139.340 414.914 139.954 C 416.061 140.568 417.056 140.830 417.125 140.535 C 417.194 140.241 417.306 140.363 417.375 140.807 C 417.444 141.251 420.659 144.333 424.520 147.656 C 428.382 150.979 433.938 156.466 436.868 159.848 C 439.801 163.234 442.677 165.699 443.268 165.335 C 443.934 164.923 444.109 165.275 443.729 166.263 C 443.234 167.553 445.637 171.133 446.152 169.872 C 446.236 169.668 446.360 169.950 446.429 170.500 C 446.657 172.341 448.129 174.038 449.019 173.488 C 449.503 173.189 450.372 173.827 450.950 174.906 C 452.315 177.457 452.280 178.291 450.845 177.405 C 450.124 176.959 449.963 177.131 450.415 177.862 C 450.813 178.506 451.634 178.726 452.239 178.352 C 452.946 177.915 453.113 178.263 452.706 179.324 C 452.340 180.278 452.532 180.875 453.161 180.738 C 453.760 180.607 454.477 181.125 454.755 181.889 C 455.093 182.821 454.837 183.017 453.975 182.485 C 453.127 181.960 452.937 182.088 453.415 182.862 C 453.813 183.506 454.634 183.726 455.239 183.352 C 455.954 182.910 456.109 183.273 455.681 184.388 C 455.302 185.376 455.429 185.853 455.979 185.513 C 456.973 184.899 462.693 195.535 465.112 202.494 C 465.952 204.911 466.395 205.503 466.234 203.994 C 465.625 198.271 455.949 180.395 446.750 168.000 C 436.600 154.321 412.823 132.755 409.891 134.567 C 409.163 135.018 408.952 134.886 409.356 134.233 C 410.525 132.342 393.758 123.073 379.973 117.990 C 363.129 111.779 355.319 110.500 334.250 110.500 L 315.000 110.500 315.000 89.450 C 315.000 74.411 314.657 68.057 313.800 67.200 C 313.140 66.540 310.778 66.090 308.550 66.199 C 306.323 66.309 299.325 66.684 293.000 67.033 "/></g>
<g fill="#FD9494FD" stroke="#FD9494FD">
<path d="M 465.111 307.506 C 462.722 314.378 455.980 327.106 455.038 326.523 C 454.543 326.218 453.813 326.494 453.415 327.138 C 452.937 327.912 453.127 328.040 453.975 327.515 C 454.837 326.983 455.093 327.179 454.755 328.111 C 454.477 328.875 453.760 329.393 453.161 329.262 C 452.532 329.125 452.340 329.722 452.706 330.676 C 453.113 331.737 452.946 332.085 452.239 331.648 C 451.634 331.274 450.813 331.494 450.415 332.138 C 449.963 332.869 450.124 333.041 450.845 332.595 C 452.280 331.709 452.315 332.543 450.950 335.094 C 450.372 336.173 449.503 336.811 449.019 336.512 C 448.129 335.962 446.657 337.659 446.429 339.500 C 446.360 340.050 446.236 340.332 446.152 340.128 C 445.637 338.867 443.234 342.447 443.729 343.737 C 444.109 344.725 443.934 345.077 443.268 344.665 C 442.677 344.301 439.801 346.766 436.868 350.152 C 433.938 353.534 428.382 359.021 424.520 362.344 C 420.659 365.667 417.444 368.749 417.375 369.193 C 417.306 369.637 417.194 369.759 417.125 369.465 C 417.056 369.170 416.061 369.432 414.914 370.046 C 413.767 370.660 413.102 371.435 413.436 371.769 C 413.770 372.103 413.471 372.474 412.772 372.593 C 412.072 372.713 407.716 375.103 403.090 377.905 C 398.465 380.707 394.276 383.000 393.781 383.000 C 393.287 383.000 393.203 383.520 393.595 384.155 C 394.020 384.841 393.872 385.039 393.229 384.642 C 391.961 383.858 387.000 385.911 387.000 387.220 C 387.000 387.714 386.584 387.861 386.075 387.546 C 385.566 387.232 382.979 387.856 380.325 388.933 C 377.671 390.010 375.725 390.969 376.000 391.064 C 376.275 391.159 376.151 391.180 375.725 391.110 C 374.104 390.845 366.000 393.274 366.000 394.025 C 366.000 394.458 365.100 394.577 364.000 394.290 C 362.900 394.002 362.000 394.207 362.000 394.745 C 362.000 395.283 360.808 395.495 359.351 395.216 C 357.402 394.844 356.907 395.041 357.477 395.962 C 358.041 396.875 357.687 397.035 356.172 396.555 C 355.029 396.192 351.293 396.403 347.870 397.024 C 341.360 398.204 319.890 398.517 310.166 397.573 C 305.595 397.129 305.080 397.213 307.500 398.007 C 309.150 398.548 315.619 399.473 321.876 400.063 C 344.511 402.197 372.380 396.856 393.313 386.372 C 402.951 381.545 410.033 376.863 409.356 375.767 C 408.952 375.114 409.163 374.982 409.891 375.433 C 411.483 376.417 423.487 367.267 432.916 357.882 C 436.995 353.822 443.631 346.082 447.664 340.681 C 454.999 330.859 465.808 310.703 466.260 306.006 C 466.411 304.439 465.984 304.997 465.111 307.506 "/></g>
<g fill="#FD9494FD" stroke="#FD9494FD">
<path d="M 422.490 310.649 C 407.696 336.119 380.893 354.749 350.000 361.035 C 341.434 362.778 336.645 363.123 324.000 362.906 C 313.328 362.724 309.434 362.931 311.500 363.571 C 315.196 364.716 345.732 364.802 352.269 363.686 C 354.892 363.238 356.808 362.498 356.525 362.041 C 356.243 361.584 356.707 360.943 357.558 360.616 C 358.443 360.276 358.843 360.445 358.493 361.011 C 357.626 362.413 358.944 362.248 364.572 360.250 C 367.282 359.288 368.600 358.493 367.500 358.484 C 366.116 358.473 365.888 358.222 366.759 357.669 C 367.451 357.230 368.925 357.159 370.034 357.511 C 371.416 357.949 371.964 357.734 371.775 356.825 C 371.608 356.020 372.382 355.531 373.750 355.579 C 374.988 355.623 376.000 355.259 376.000 354.770 C 376.000 354.282 376.437 354.152 376.971 354.482 C 378.457 355.400 384.178 352.097 383.369 350.787 C 382.925 350.070 383.225 349.873 384.193 350.244 C 385.740 350.837 391.027 347.973 391.333 346.376 C 391.425 345.894 391.950 345.488 392.500 345.474 C 394.389 345.424 396.032 343.861 395.352 342.761 C 394.921 342.063 395.254 341.883 396.263 342.271 C 397.138 342.606 398.392 342.233 399.049 341.441 C 399.707 340.648 399.910 340.000 399.500 340.000 C 399.090 340.000 399.315 339.325 400.000 338.500 C 401.585 336.591 403.404 336.525 402.315 338.417 C 401.867 339.196 404.650 336.635 408.500 332.725 C 412.350 328.815 414.713 326.208 413.750 326.931 C 412.788 327.653 412.000 327.810 412.000 327.277 C 412.000 326.213 415.060 323.184 416.250 323.071 C 416.663 323.032 417.113 322.947 417.250 322.882 C 417.388 322.816 417.163 322.816 416.750 322.882 C 416.338 322.947 416.000 322.605 416.000 322.122 C 416.000 321.154 418.071 319.219 419.250 319.085 C 419.663 319.038 420.000 318.775 420.000 318.500 C 420.000 318.225 419.933 318.225 419.850 318.500 C 419.768 318.775 419.655 318.438 419.600 317.750 C 419.545 317.063 420.063 316.500 420.750 316.500 C 421.438 316.500 422.000 316.163 422.000 315.750 C 422.000 315.338 421.933 315.225 421.850 315.500 C 421.768 315.775 421.655 315.438 421.600 314.750 C 421.545 314.063 422.100 313.500 422.833 313.500 C 423.567 313.500 423.868 313.201 423.502 312.836 C 422.470 311.803 424.965 307.860 426.177 308.609 C 426.922 309.070 426.954 308.740 426.280 307.537 C 425.449 306.051 424.898 306.504 422.490 310.649 "/></g>
<g fill="#FD4949FD" stroke="#FD4949FD">
<path d="M 406.590 177.002 C 422.559 194.040 432.025 211.569 436.558 232.500 C 438.928 243.442 438.928 266.558 436.558 277.500 C 432.025 298.431 422.559 315.960 406.590 332.998 L 400.500 339.497 406.372 333.998 C 422.216 319.164 434.742 295.889 438.510 274.281 C 441.536 256.929 439.899 235.237 434.400 219.838 C 428.542 203.429 417.915 186.809 406.372 176.002 L 400.500 170.503 406.590 177.002 "/></g>
<g fill="#FD4949FD" stroke="#FD4949FD">
<path d="M 458.040 190.500 C 469.049 212.750 473.356 230.889 473.356 255.000 C 473.356 280.984 467.220 304.375 454.469 327.000 C 452.764 330.025 452.197 331.600 453.208 330.500 C 456.084 327.373 464.466 309.480 467.951 299.030 C 477.213 271.257 477.213 238.743 467.951 210.970 C 464.631 201.016 456.352 183.247 453.054 179.000 C 451.987 177.625 454.230 182.800 458.040 190.500 "/></g>
<g fill="#FDD5D5FD" stroke="#FDD5D5FD">
<path d="M 273.000 154.959 C 269.975 155.968 268.033 156.841 268.685 156.897 C 269.337 156.954 270.912 156.616 272.185 156.146 C 273.458 155.677 275.795 154.979 277.378 154.595 L 280.256 153.898 279.889 222.699 C 279.688 260.539 279.853 287.000 280.256 281.500 C 280.660 276.000 280.992 244.838 280.995 212.250 C 280.999 165.481 280.737 153.013 279.750 153.061 C 279.063 153.095 276.025 153.949 273.000 154.959 "/></g>
<g fill="#010101C1" stroke="#010101C1">
<path d="M 128.648 35.058 C 108.218 46.910 87.590 63.238 71.139 80.579 C 61.642 90.589 46.261 109.718 45.724 112.185 C 45.601 112.753 47.975 109.909 51.000 105.865 C 72.747 76.795 100.914 51.649 130.309 35.063 C 133.504 33.260 135.968 31.634 135.783 31.449 C 135.598 31.265 132.388 32.888 128.648 35.058 "/></g>
<g fill="#FDFDFDFD" stroke="#FDFDFDFD">
<path d="M 274.053 426.248 C 268.583 436.875 250.332 467.677 249.027 468.483 C 248.619 468.735 246.983 468.617 245.393 468.221 L 242.500 467.500 245.186 468.881 C 246.664 469.641 248.586 469.989 249.458 469.654 C 251.995 468.681 262.334 451.886 271.608 433.672 C 276.321 424.416 279.986 416.653 279.753 416.420 C 279.521 416.187 276.955 420.610 274.053 426.248 "/></g>
<g fill="#010101C1" stroke="#010101C1">
<path d="M 378.000 31.353 C 378.000 31.628 380.588 33.318 383.750 35.108 C 407.880 48.765 432.604 69.285 451.719 91.519 C 457.099 97.777 459.700 100.413 457.500 97.377 C 451.348 88.888 433.613 70.586 422.501 61.259 C 409.411 50.271 378.000 29.162 378.000 31.353 "/></g>
<g fill="#FDD5D5FD" stroke="#FDD5D5FD">
<path d="M 288.000 393.284 C 288.000 393.838 285.863 399.484 283.250 405.830 C 279.027 416.089 278.899 416.600 282.103 410.434 C 284.084 406.620 286.487 401.419 287.441 398.875 L 289.176 394.249 296.338 396.067 C 301.396 397.350 304.528 397.637 307.000 397.044 L 310.500 396.205 307.000 396.095 C 305.075 396.034 300.013 395.150 295.750 394.130 C 291.098 393.016 288.000 392.678 288.000 393.284 "/></g>
<g fill="#FDD5D5FD" stroke="#FDD5D5FD">
<path d="M 280.000 92.914 L 279.500 117.328 274.500 119.087 C 268.564 121.174 269.588 121.541 276.000 119.624 L 280.500 118.279 280.500 93.390 L 280.499 68.500 280.000 92.914 "/></g>
<g fill="#010101C1" stroke="#010101C1">
<path d="M 420.500 453.163 C 412.527 460.045 397.138 470.984 385.783 477.840 C 380.982 480.740 379.994 481.556 383.168 480.000 C 393.576 474.899 430.564 448.017 428.147 447.311 C 427.791 447.207 424.350 449.840 420.500 453.163 "/></g>
<g fill="#010101C1" stroke="#010101C1">
<path d="M 88.747 450.320 C 100.497 460.713 122.477 476.144 131.741 480.504 C 134.656 481.876 134.187 481.433 130.241 479.089 C 119.709 472.831 102.592 460.817 94.310 453.870 C 85.955 446.863 81.946 444.304 88.747 450.320 "/></g>
<g fill="#FDFDFDFD" stroke="#FDFDFDFD">
<path d="M 280.250 67.200 C 279.305 68.108 279.053 74.382 279.216 92.950 L 279.431 117.500 279.966 93.000 C 280.260 79.525 280.725 67.938 281.000 67.250 C 281.390 66.276 281.224 66.265 280.250 67.200 "/></g>
<g fill="#010101C1" stroke="#010101C1">
<path d="M 48.638 406.250 C 54.185 413.898 59.764 420.975 63.616 425.250 C 69.275 431.530 68.540 429.428 62.743 422.750 C 59.758 419.313 54.716 413.013 51.537 408.750 C 48.358 404.488 45.549 401.000 45.294 401.000 C 45.038 401.000 46.543 403.363 48.638 406.250 "/></g>
<g fill="#FDFDFDFD" stroke="#FDFDFDFD">
<path d="M 264.159 158.553 C 260.122 159.928 254.965 162.053 252.700 163.276 C 250.378 164.530 253.960 163.554 260.910 161.040 C 273.987 156.309 276.579 154.325 264.159 158.553 "/></g>
<g fill="#010101C1" stroke="#010101C1">
<path d="M 483.998 374.115 C 479.874 382.339 477.684 387.140 479.130 384.784 C 482.502 379.292 492.222 359.889 491.809 359.476 C 491.636 359.303 488.121 365.891 483.998 374.115 "/></g>
<g fill="#010101C1" stroke="#010101C1">
<path d="M 22.024 359.358 C 21.991 360.546 36.156 388.054 36.929 388.300 C 37.273 388.410 34.066 381.750 29.801 373.500 C 25.537 365.250 22.037 358.886 22.024 359.358 "/></g>
<g fill="#010101C1" stroke="#010101C1">
<path d="M 483.766 139.660 C 488.020 147.998 491.649 154.675 491.830 154.497 C 492.269 154.067 479.527 129.061 477.564 126.500 C 476.721 125.400 479.512 131.322 483.766 139.660 "/></g>
<g fill="#010101C1" stroke="#010101C1">
<path d="M 34.870 129.216 C 31.498 134.708 21.778 154.111 22.191 154.524 C 22.364 154.697 25.879 148.109 30.002 139.885 C 34.126 131.661 36.316 126.860 34.870 129.216 "/></g>
<g fill="#FDFDFDFD" stroke="#FDFDFDFD">
<path d="M 261.159 122.118 C 256.022 123.787 252.056 125.389 252.346 125.679 C 252.636 125.970 257.290 124.736 262.687 122.937 C 268.084 121.139 272.050 119.536 271.500 119.376 C 270.950 119.216 266.297 120.450 261.159 122.118 "/></g>
<g fill="#010101C1" stroke="#010101C1">
<path d="M 453.727 420.044 C 449.452 424.970 446.191 429.000 446.480 429.000 C 447.284 429.000 453.634 421.774 457.786 416.132 C 459.829 413.357 458.002 415.118 453.727 420.044 "/></g>
<g fill="#FDD5D5FD" stroke="#FDD5D5FD">
<path d="M 299.475 360.040 C 298.778 361.168 302.195 362.612 307.643 363.492 C 310.691 363.984 311.133 363.883 309.750 363.008 C 308.788 362.399 308.000 362.203 308.000 362.573 C 308.000 362.942 307.423 362.766 306.717 362.180 C 304.432 360.284 300.113 359.008 299.475 360.040 "/></g>
<g fill="#010101C1" stroke="#010101C1">
<path d="M 437.383 438.223 C 432.919 442.500 429.570 446.000 429.942 446.000 C 430.313 446.000 433.966 442.500 438.059 438.223 L 445.500 430.446 437.383 438.223 "/></g>
<g fill="#010101C1" stroke="#010101C1">
<path d="M 75.477 437.775 C 79.864 442.299 83.746 446.000 84.104 446.000 C 84.463 446.000 80.873 442.299 76.128 437.775 L 67.500 429.549 75.477 437.775 "/></g>
<g fill="#010101C1" stroke="#010101C1">
<path d="M 349.226 495.211 C 346.326 496.352 344.123 497.456 344.331 497.664 C 344.539 497.873 347.320 497.044 350.510 495.823 C 353.700 494.602 355.903 493.499 355.405 493.370 C 354.907 493.242 352.127 494.071 349.226 495.211 "/></g>
<g fill="#010101C1" stroke="#010101C1">
<path d="M 495.125 349.625 C 493.933 352.741 493.126 355.459 493.332 355.665 C 493.538 355.872 494.683 353.491 495.875 350.375 C 497.067 347.259 497.874 344.541 497.668 344.335 C 497.462 344.128 496.317 346.509 495.125 349.625 "/></g>
<g fill="#010101C1" stroke="#010101C1">
<path d="M 493.644 159.996 C 494.000 161.369 495.126 164.294 496.147 166.496 C 497.168 168.698 497.712 169.377 497.356 168.004 C 497.000 166.631 495.874 163.706 494.853 161.504 C 493.832 159.302 493.288 158.623 493.644 159.996 "/></g>
<g fill="#010101C1" stroke="#010101C1">
<path d="M 347.504 17.853 C 349.706 18.874 352.631 20.000 354.004 20.356 C 355.377 20.712 354.698 20.168 352.496 19.147 C 350.294 18.126 347.369 17.000 345.996 16.644 C 344.623 16.288 345.302 16.832 347.504 17.853 "/></g>
<g fill="#010101C1" stroke="#010101C1">
<path d="M 163.226 18.211 C 160.326 19.352 158.123 20.456 158.331 20.664 C 158.539 20.873 161.320 20.044 164.510 18.823 C 167.700 17.602 169.903 16.499 169.405 16.370 C 168.907 16.242 166.127 17.071 163.226 18.211 "/></g>
<g fill="#010101C1" stroke="#010101C1">
<path d="M 470.471 116.566 C 471.429 118.252 473.110 120.727 474.206 122.066 C 475.885 124.118 475.844 123.872 473.945 120.500 C 472.705 118.300 471.025 115.825 470.209 115.000 C 469.169 113.947 469.247 114.414 470.471 116.566 "/></g>
<g fill="#010101C1" stroke="#010101C1">
<path d="M 465.250 405.244 C 463.462 407.585 462.398 409.405 462.886 409.288 C 463.373 409.171 464.836 407.256 466.136 405.032 L 468.500 400.987 465.250 405.244 "/></g>
<g fill="#010101C1" stroke="#010101C1">
<path d="M 472.405 394.769 C 470.703 397.371 470.111 398.635 471.089 397.578 C 472.068 396.521 473.461 394.392 474.184 392.847 C 474.908 391.302 474.107 392.167 472.405 394.769 "/></g>
<g fill="#010101C1" stroke="#010101C1">
<path d="M 39.524 392.566 C 40.453 394.252 42.103 396.727 43.190 398.066 L 45.167 400.500 43.476 397.434 C 42.547 395.748 40.897 393.273 39.810 391.934 L 37.833 389.500 39.524 392.566 "/></g>
<g fill="#010101C1" stroke="#010101C1">
<path d="M 41.405 118.769 C 39.703 121.371 39.111 122.635 40.089 121.578 C 41.068 120.521 42.461 118.392 43.184 116.847 C 43.908 115.302 43.107 116.167 41.405 118.769 "/></g>
<g fill="#010101C1" stroke="#010101C1">
<path d="M 371.649 485.297 L 367.798 487.500 372.519 485.540 C 375.115 484.462 376.848 483.470 376.370 483.337 C 375.891 483.203 373.767 484.085 371.649 485.297 "/></g>
<g fill="#010101C1" stroke="#010101C1">
<path d="M 141.316 485.317 L 146.133 487.500 142.106 485.250 C 139.892 484.013 137.724 483.030 137.290 483.067 C 136.855 483.103 138.667 484.116 141.316 485.317 "/></g>
<g fill="#010101C1" stroke="#010101C1">
<path d="M 465.055 108.297 C 467.532 111.745 467.938 112.078 466.500 109.481 C 465.400 107.494 463.850 105.335 463.055 104.684 C 462.260 104.033 463.160 105.658 465.055 108.297 "/></g>
<g fill="#010101C1" stroke="#010101C1">
<path d="M 368.000 26.461 C 368.000 27.081 375.630 31.017 376.710 30.953 C 377.145 30.928 375.363 29.794 372.750 28.434 C 370.138 27.074 368.000 26.186 368.000 26.461 "/></g>
<g fill="#010101C1" stroke="#010101C1">
<path d="M 141.000 28.550 C 138.525 29.848 136.855 30.930 137.290 30.955 C 138.390 31.018 146.273 26.937 145.847 26.525 C 145.656 26.341 143.475 27.252 141.000 28.550 "/></g>
<g fill="#010101C1" stroke="#010101C1">
<path d="M 362.000 490.000 C 360.075 491.054 358.950 491.916 359.500 491.916 C 360.050 491.916 362.075 491.054 364.000 490.000 C 365.925 488.946 367.050 488.084 366.500 488.084 C 365.950 488.084 363.925 488.946 362.000 490.000 "/></g>
<g fill="#010101C1" stroke="#010101C1">
<path d="M 150.000 490.000 C 151.925 491.054 153.950 491.916 154.500 491.916 C 155.050 491.916 153.925 491.054 152.000 490.000 C 150.075 488.946 148.050 488.084 147.500 488.084 C 146.950 488.084 148.075 488.946 150.000 490.000 "/></g>
<g fill="#010101C1" stroke="#010101C1">
<path d="M 362.000 24.000 C 363.925 25.054 365.950 25.916 366.500 25.916 C 367.050 25.916 365.925 25.054 364.000 24.000 C 362.075 22.946 360.050 22.084 359.500 22.084 C 358.950 22.084 360.075 22.946 362.000 24.000 "/></g>
<g fill="#010101C1" stroke="#010101C1">
<path d="M 150.000 24.000 C 148.075 25.054 146.950 25.916 147.500 25.916 C 148.050 25.916 150.075 25.054 152.000 24.000 C 153.925 22.946 155.050 22.084 154.500 22.084 C 153.950 22.084 151.925 22.946 150.000 24.000 "/></g>
<g fill="#040404FD" stroke="#040404FD">
<path d="M 272.500 120.845 C 271.400 121.037 270.050 121.651 269.500 122.209 C 268.825 122.895 269.312 122.987 271.000 122.492 C 274.109 121.580 275.210 120.371 272.500 120.845 "/></g>
<g fill="#010101C1" stroke="#010101C1">
<path d="M 18.573 351.000 C 18.941 352.375 19.659 354.175 20.169 355.000 C 20.813 356.042 20.892 355.737 20.427 354.000 C 20.059 352.625 19.341 350.825 18.831 350.000 C 18.187 348.958 18.108 349.263 18.573 351.000 "/></g>
<g fill="#010101C1" stroke="#010101C1">
<path d="M 16.111 169.111 C 15.495 170.878 15.166 172.499 15.380 172.713 C 15.594 172.927 16.273 171.656 16.889 169.889 C 17.505 168.122 17.834 166.501 17.620 166.287 C 17.406 166.073 16.727 167.344 16.111 169.111 "/></g>
<g fill="#010101C1" stroke="#010101C1">
<path d="M 19.111 161.111 C 18.495 162.878 18.166 164.499 18.380 164.713 C 18.594 164.927 19.273 163.656 19.889 161.889 C 20.505 160.122 20.834 158.501 20.620 158.287 C 20.406 158.073 19.727 159.344 19.111 161.111 "/></g>
<g fill="#FD7070FD" stroke="#FD7070FD">
<path d="M 385.079 349.411 C 383.197 350.560 382.297 351.391 383.079 351.258 C 383.860 351.126 385.400 350.185 386.500 349.169 C 388.132 347.661 387.871 347.705 385.079 349.411 "/></g>
<g fill="#FD7070FD" stroke="#FD7070FD">
<path d="M 383.500 159.518 C 384.600 160.414 386.400 161.588 387.500 162.128 L 389.500 163.110 387.500 161.482 C 386.400 160.586 384.600 159.412 383.500 158.872 L 381.500 157.890 383.500 159.518 "/></g>
</svg>
