<svg rlole="img" xmlns="http://www.w3.org/2000/svg"
 viewBox="0 0 512.000000 512.000000"
>
<title>YMM情報サイト</title>

<path d="M2370 5114 c-19 -2 -78 -9 -130 -15 -546 -62 -1086 -327 -1489 -730
-404 -404 -649 -903 -733 -1494 -17 -118 -17 -512 0 -630 85 -596 331 -1095
743 -1504 399 -396 899 -640 1484 -723 118 -17 512 -17 630 0 590 84 1091 330
1494 733 404 404 649 903 733 1494 17 118 17 512 0 630 -85 595 -330 1092
-740 1501 -393 391 -887 637 -1447 720 -96 14 -472 27 -545 18z m768 -640 c22
-15 22 -19 22 -226 l0 -210 123 6 c330 19 689 -115 972 -362 325 -284 505
-678 505 -1101 0 -230 -36 -390 -139 -625 -66 -151 -213 -344 -361 -473 -279
-245 -609 -372 -968 -373 -115 0 -263 17 -342 40 -19 5 -40 10 -46 10 -6 0
-24 -30 -39 -67 -47 -112 -181 -375 -249 -490 -82 -138 -122 -193 -141 -193
-22 0 -285 178 -292 197 -7 18 2 36 92 183 65 106 190 357 232 464 21 52 24
71 15 74 -33 11 -186 134 -268 216 -198 198 -319 408 -391 675 -27 101 -25
137 10 151 12 5 91 21 176 35 178 30 182 29 200 -56 30 -139 105 -299 197
-422 77 -102 203 -217 215 -196 11 21 56 250 73 379 26 193 36 443 36 958 0
335 -3 492 -10 492 -19 0 -203 -71 -297 -115 -554 -258 -968 -744 -1138 -1335
-60 -209 -85 -392 -85 -623 0 -180 2 -177 -138 -188 -54 -4 -125 -14 -157 -23
-80 -21 -95 -10 -123 86 -46 159 -103 445 -141 708 -99 686 -73 1434 74 2112
24 116 40 167 55 183 l21 22 135 -32 c102 -25 142 -38 159 -56 l23 -24 -28
-130 c-38 -170 -85 -467 -107 -680 -13 -130 -17 -260 -18 -550 0 -209 4 -407
9 -440 l8 -60 22 55 c72 176 217 422 354 600 78 101 318 344 417 422 251 198
529 345 830 440 l135 43 0 242 c0 239 0 242 22 257 18 13 53 16 173 16 120 0
155 -3 173 -16z"/>
<path d="M2805 4439 c-4 -5 -4 -428 0 -940 l8 -929 158 0 159 0 0 940 0 940
-159 0 c-102 0 -162 -4 -166 -11z"/>
<path d="M3193 3643 l-32 -4 -4 -712 c-4 -655 -6 -723 -25 -852 -23 -157 -63
-356 -91 -458 -10 -37 -16 -69 -12 -71 10 -7 122 -24 196 -31 39 -4 117 -1
174 5 555 61 954 504 954 1060 0 515 -354 950 -848 1044 -82 15 -255 26 -312
19z"/>
<path d="M4140 3266 c0 -2 8 -10 18 -17 15 -13 16 -12 3 4 -13 16 -21 21 -21
13z"/>
<path d="M4230 3134 c50 -85 94 -197 122 -312 31 -124 31 -360 0 -484 -28
-115 -72 -227 -122 -312 -22 -38 -34 -64 -27 -58 22 18 103 182 131 263 74
218 74 480 0 698 -28 81 -109 245 -131 263 -7 6 5 -20 27 -58z"/>
<path d="M4626 3120 c4 -14 13 -38 20 -55 11 -24 13 -25 8 -5 -4 14 -13 39
-20 55 -11 24 -13 25 -8 5z"/>
<path d="M4660 3024 c0 -6 7 -33 15 -60 32 -106 48 -230 49 -379 0 -154 -11
-246 -46 -373 -11 -41 -17 -76 -14 -79 6 -6 22 51 48 172 25 118 34 327 19
436 -20 136 -69 335 -71 283z"/>
<path d="M4636 2074 c-9 -26 -14 -49 -12 -51 2 -2 11 17 20 43 9 26 14 49 12
51 -2 2 -11 -17 -20 -43z"/>
<path d="M4149 1903 c-13 -16 -12 -17 4 -4 16 13 21 21 13 21 -2 0 -10 -8 -17
-17z"/>
</g>
</svg>
