<?xml version="1.0" encoding="utf-8"?>
<!DOCTYPE svg PUBLIC "-//W3C//DTD SVG 20010904//EN" "http://www.w3.org/TR/2001/REC-SVG-20010904/DTD/svg10.dtd">
<svg version="1.0" xmlns="http://www.w3.org/2000/svg" width="514pt" height="514pt" viewBox="0 0 514 514" style="" preserveAspectRatio="xMidYMid meet">
<g fill="#820606FE" stroke="#820606FE">
<path d="M 278.000 91.000 C 278.000 91.550 277.438 91.888 276.750 91.750 C 275.787 91.557 275.438 96.466 275.231 113.098 L 274.962 134.697 266.759 136.945 C 228.358 147.469 187.568 174.040 160.749 206.000 C 146.963 222.429 128.848 251.326 130.579 254.127 C 131.002 254.812 130.881 255.045 130.293 254.681 C 128.873 253.803 123.769 266.164 124.557 268.572 C 125.072 270.143 124.991 270.222 124.122 269.000 C 123.535 268.175 122.756 264.874 122.389 261.665 C 121.959 257.901 121.422 256.304 120.877 257.165 C 120.269 258.123 120.026 257.865 120.015 256.250 C 120.007 255.013 120.513 254.000 121.140 254.000 C 121.944 254.000 122.069 252.305 121.566 248.250 C 121.173 245.088 120.888 241.150 120.931 239.500 C 120.992 237.191 120.782 236.846 120.020 238.000 C 119.422 238.906 119.025 239.029 119.015 238.309 C 119.007 237.654 119.450 236.840 120.000 236.500 C 120.550 236.160 120.993 235.121 120.985 234.191 C 120.971 232.734 120.835 232.707 120.000 234.000 C 119.162 235.297 119.029 235.275 119.015 233.833 C 119.007 232.917 119.563 231.940 120.250 231.662 C 121.250 231.259 121.250 231.142 120.250 231.079 C 118.627 230.976 118.627 228.317 120.250 227.662 C 121.250 227.259 121.250 227.142 120.250 227.079 C 119.563 227.036 119.007 226.213 119.015 225.250 C 119.028 223.754 119.172 223.718 120.000 225.000 C 120.828 226.282 120.972 226.246 120.985 224.750 C 120.993 223.788 120.550 223.000 120.000 223.000 C 118.561 223.000 118.766 220.261 120.250 219.662 C 121.250 219.259 121.250 219.142 120.250 219.079 C 118.812 218.988 118.504 213.000 119.938 213.000 C 120.454 213.000 120.906 212.213 120.943 211.250 C 120.980 210.288 121.283 206.238 121.618 202.250 C 122.039 197.229 121.884 195.000 121.113 195.000 C 120.501 195.000 120.007 194.213 120.015 193.250 C 120.028 191.754 120.172 191.718 121.000 193.000 C 121.533 193.825 121.987 194.050 122.009 193.500 C 122.031 192.950 122.320 190.075 122.652 187.112 C 123.058 183.495 122.914 181.935 122.216 182.367 C 121.644 182.720 121.276 182.323 121.400 181.483 C 121.523 180.644 121.904 180.238 122.247 180.581 C 123.454 181.787 124.255 174.012 123.072 172.586 C 122.240 171.585 122.227 171.091 123.023 170.826 C 123.631 170.623 124.361 168.442 124.644 165.978 C 125.028 162.644 124.887 161.883 124.095 163.000 C 123.166 164.310 123.029 164.292 123.015 162.857 C 123.007 161.953 123.730 160.934 124.622 160.592 C 125.817 160.133 126.089 159.195 125.655 157.023 C 125.331 155.403 125.435 153.849 125.886 153.570 C 126.741 153.042 129.562 135.998 129.374 132.500 C 129.315 131.400 129.574 130.275 129.950 130.000 C 131.145 129.126 134.253 112.218 133.456 110.928 C 132.964 110.132 133.103 109.945 133.845 110.405 C 135.564 111.466 135.289 107.484 133.544 106.036 C 132.743 105.372 131.548 105.161 130.889 105.568 C 130.080 106.069 129.954 105.883 130.502 104.997 C 131.106 104.020 130.763 103.829 129.156 104.249 C 127.970 104.559 127.000 104.405 127.000 103.906 C 127.000 103.408 126.550 103.000 126.000 103.000 C 125.450 103.000 125.113 103.498 125.250 104.107 C 125.388 104.716 124.672 104.418 123.659 103.445 C 122.136 101.981 121.671 101.914 120.963 103.060 C 120.265 104.189 119.986 104.127 119.447 102.722 C 118.678 100.719 116.395 100.434 115.662 102.250 C 115.361 102.997 115.126 102.795 115.079 101.750 C 114.989 99.747 112.420 99.371 111.662 101.250 C 111.361 101.997 111.126 101.795 111.079 100.750 C 111.026 99.576 110.185 99.000 108.523 99.000 C 105.404 99.000 102.903 102.649 102.550 107.717 C 102.405 109.797 101.957 112.266 101.555 113.202 C 101.152 114.138 101.114 115.376 101.470 115.952 C 101.827 116.528 101.589 117.000 100.942 117.000 C 100.232 117.000 99.953 117.976 100.238 119.465 C 100.497 120.821 100.333 122.058 99.873 122.215 C 99.414 122.372 98.856 124.300 98.634 126.500 C 98.412 128.700 97.914 131.266 97.527 132.202 C 97.140 133.138 97.126 134.395 97.497 134.996 C 97.869 135.596 97.705 136.650 97.134 137.338 C 96.563 138.026 95.896 141.044 95.652 144.044 C 95.408 147.045 94.932 150.175 94.594 151.000 C 94.256 151.825 94.150 153.963 94.359 155.750 C 94.567 157.538 94.313 159.000 93.793 159.000 C 93.274 159.000 92.962 160.238 93.099 161.750 C 93.236 163.263 93.049 165.850 92.682 167.500 C 92.315 169.150 91.804 173.425 91.546 177.000 C 91.288 180.575 90.774 186.923 90.404 191.108 C 89.938 196.365 90.081 198.932 90.865 199.417 C 91.489 199.802 91.941 201.554 91.868 203.309 L 91.737 206.500 91.056 203.000 C 88.947 192.153 88.560 234.108 90.536 259.500 C 90.836 263.350 91.047 268.376 91.006 270.670 C 90.964 272.963 91.404 275.131 91.982 275.489 C 92.560 275.846 92.731 276.627 92.362 277.224 C 91.961 277.871 92.156 278.021 92.845 277.595 C 93.536 277.168 94.000 277.532 94.000 278.500 C 94.000 279.390 93.550 279.840 93.000 279.500 C 92.431 279.148 92.000 280.009 92.000 281.500 C 92.000 283.160 92.405 283.868 93.107 283.434 C 93.861 282.968 93.987 283.467 93.500 285.000 C 93.013 286.533 93.139 287.032 93.893 286.566 C 95.339 285.672 95.324 287.276 93.873 288.727 C 92.536 290.064 93.601 295.364 95.029 294.482 C 95.563 294.152 96.000 294.610 96.000 295.500 C 96.000 296.470 95.537 296.832 94.844 296.404 C 94.010 295.888 93.877 296.638 94.367 299.095 C 94.740 300.968 95.485 302.650 96.023 302.833 C 96.560 303.017 97.000 303.606 97.000 304.142 C 97.000 304.679 96.550 304.840 96.000 304.500 C 95.450 304.160 95.000 304.782 95.000 305.882 C 95.000 306.982 95.457 308.165 96.016 308.510 C 96.575 308.856 96.815 309.491 96.548 309.922 C 96.013 310.788 97.689 322.625 98.683 325.000 C 99.029 325.825 99.445 328.033 99.609 329.907 C 99.773 331.781 100.215 334.031 100.592 334.907 C 100.969 335.783 101.369 337.175 101.481 338.000 C 102.266 343.803 103.288 348.045 103.782 347.551 C 104.103 347.230 104.437 348.212 104.524 349.734 C 104.822 354.972 106.178 361.000 107.057 361.000 C 107.541 361.000 107.677 361.678 107.359 362.508 C 106.371 365.082 109.696 368.989 112.765 368.860 C 117.469 368.662 122.080 366.942 121.317 365.669 C 120.906 364.983 121.295 365.050 122.260 365.833 C 123.284 366.663 124.771 366.890 126.202 366.434 C 127.466 366.032 130.700 365.781 133.390 365.875 C 136.268 365.976 139.197 365.445 140.510 364.585 C 142.612 363.208 142.753 362.357 142.961 349.812 C 143.316 328.297 143.562 322.895 144.157 323.490 C 144.923 324.257 146.179 313.099 145.458 311.932 C 145.141 311.419 145.287 311.000 145.782 311.000 C 146.633 311.000 149.269 301.254 148.924 299.379 C 148.836 298.895 148.824 298.725 148.899 299.000 C 148.973 299.275 150.625 294.775 152.568 289.000 C 169.783 237.853 208.051 197.169 258.500 176.383 C 262.900 174.570 266.275 173.020 266.000 172.937 C 265.725 172.855 266.175 172.687 267.000 172.565 C 267.825 172.442 268.275 172.239 268.000 172.113 C 267.725 171.988 269.188 171.707 271.250 171.490 L 275.000 171.096 275.178 213.798 C 275.383 262.791 275.444 257.214 274.541 272.000 C 273.483 289.338 272.774 295.730 270.605 307.500 C 268.368 319.638 268.217 320.385 267.673 322.000 C 267.395 322.825 266.896 324.738 266.564 326.250 C 266.233 327.763 265.575 329.000 265.103 329.000 C 264.630 329.000 260.970 325.970 256.970 322.266 C 252.969 318.562 248.977 315.524 248.098 315.516 C 246.871 315.504 246.801 315.305 247.799 314.661 C 249.652 313.464 247.369 310.926 245.177 311.747 C 243.768 312.274 243.701 312.126 244.762 310.820 C 245.791 309.553 245.745 309.033 244.512 308.010 C 243.681 307.320 242.948 306.923 242.885 307.128 C 242.821 307.332 242.665 307.050 242.537 306.500 C 242.409 305.950 242.184 305.500 242.037 305.500 C 241.890 305.500 241.709 304.825 241.635 304.000 C 241.554 303.100 240.700 302.617 239.500 302.792 C 237.817 303.037 237.738 302.906 239.000 301.966 C 240.137 301.118 240.196 300.725 239.244 300.338 C 238.553 300.058 238.242 299.418 238.553 298.915 C 238.864 298.412 238.615 298.000 238.000 298.000 C 237.385 298.000 237.207 297.474 237.605 296.830 C 238.103 296.025 237.765 295.876 236.523 296.353 C 234.927 296.965 234.879 296.847 236.109 295.336 C 237.351 293.808 237.286 293.705 235.500 294.372 C 233.965 294.945 233.773 294.844 234.672 293.937 C 235.926 292.673 235.329 289.678 233.988 290.507 C 233.547 290.780 233.440 290.032 233.751 288.845 C 234.171 287.238 233.980 286.894 233.003 287.498 C 232.126 288.040 231.932 287.920 232.417 287.135 C 233.456 285.454 231.216 279.330 229.202 278.345 C 228.266 277.887 228.063 277.623 228.750 277.757 C 230.796 278.155 230.169 275.586 227.869 274.150 C 225.853 272.891 225.775 272.966 226.417 275.526 C 226.791 277.015 227.356 279.531 227.673 281.117 C 227.990 282.702 228.630 284.000 229.094 284.000 C 229.558 284.000 229.678 284.675 229.362 285.500 C 229.045 286.325 229.311 287.000 229.952 287.000 C 230.593 287.000 230.867 287.406 230.561 287.902 C 229.835 289.076 238.803 307.000 240.115 307.000 C 240.667 307.000 240.838 307.453 240.496 308.007 C 240.153 308.561 240.577 309.284 241.437 309.614 C 242.296 309.944 243.000 310.811 243.000 311.541 C 243.000 313.271 258.966 330.139 259.999 329.501 C 260.434 329.232 261.048 329.684 261.364 330.506 C 261.679 331.328 262.518 332.000 263.228 332.000 C 263.938 332.000 265.011 332.788 265.612 333.750 C 266.213 334.713 266.809 335.275 266.937 335.000 C 267.065 334.725 267.637 333.938 268.207 333.250 C 268.933 332.376 268.907 332.000 268.122 332.000 C 267.505 332.000 267.000 331.523 267.000 330.941 C 267.000 330.359 267.403 330.131 267.895 330.435 C 269.312 331.311 269.970 328.381 268.672 326.975 C 267.769 325.998 267.787 325.869 268.750 326.412 C 269.940 327.084 270.420 325.981 270.092 323.325 C 270.012 322.679 270.410 321.865 270.976 321.515 C 271.681 321.079 271.678 320.267 270.968 318.939 C 270.150 317.412 270.256 317.000 271.465 317.000 C 273.207 317.000 273.379 316.147 272.057 314.058 C 271.436 313.076 271.649 312.246 272.725 311.459 C 274.492 310.167 273.533 307.582 271.681 308.645 C 271.031 309.018 271.560 308.158 272.855 306.735 C 275.153 304.210 275.035 301.381 272.681 302.558 C 272.031 302.883 272.203 302.552 273.062 301.824 C 275.401 299.841 276.190 296.933 274.832 295.297 C 273.890 294.162 273.907 293.675 274.912 293.054 C 276.337 292.174 276.594 288.812 275.526 285.000 C 275.035 283.244 275.117 282.911 275.803 283.881 C 277.276 285.963 278.276 278.274 277.068 274.158 C 276.005 270.538 276.678 265.000 278.180 265.000 C 278.691 265.000 278.972 262.928 278.805 260.396 L 278.500 255.791 292.234 255.943 C 299.788 256.026 305.923 256.410 305.866 256.797 C 305.289 260.742 306.202 274.993 307.000 274.500 C 308.623 273.497 308.105 275.309 306.000 278.000 C 303.836 280.767 303.374 285.974 305.136 287.736 C 305.983 288.583 305.856 289.286 304.636 290.507 C 302.682 292.461 302.556 294.156 304.242 295.842 C 305.214 296.814 305.219 297.247 304.266 297.835 C 302.626 298.849 302.175 303.439 303.714 303.473 C 304.546 303.492 304.629 303.971 303.979 305.000 C 303.457 305.825 303.010 306.050 302.985 305.500 C 302.960 304.950 302.484 305.282 301.927 306.237 C 301.230 307.434 301.270 308.636 302.057 310.107 C 302.721 311.347 302.775 311.979 302.185 311.614 C 300.796 310.756 300.079 313.127 301.117 315.150 C 301.698 316.282 301.491 316.981 300.457 317.378 C 299.407 317.781 299.142 318.719 299.584 320.478 C 300.000 322.138 299.801 323.000 299.001 323.000 C 298.277 323.000 298.045 323.675 298.427 324.670 C 298.779 325.589 298.490 326.722 297.784 327.189 C 296.785 327.849 296.904 328.347 298.319 329.430 C 300.060 330.762 300.050 330.850 298.069 331.478 C 295.564 332.273 295.326 334.000 297.723 334.000 C 299.106 334.000 298.988 334.320 297.121 335.628 C 295.299 336.904 295.089 337.442 296.148 338.113 C 296.892 338.584 297.772 338.976 298.105 338.985 C 298.620 338.998 300.877 329.766 302.503 321.000 C 302.758 319.625 303.251 317.188 303.599 315.584 C 303.947 313.981 304.436 310.831 304.685 308.584 C 305.172 304.189 305.669 300.536 306.532 295.000 C 308.333 283.446 308.794 268.791 308.906 219.583 C 308.994 181.172 309.364 164.267 310.136 163.337 C 310.979 162.321 313.254 162.162 319.777 162.663 C 326.137 163.152 328.133 163.023 327.599 162.160 C 327.204 161.522 327.336 161.000 327.891 161.000 C 328.446 161.000 329.284 161.686 329.753 162.524 C 330.631 164.092 333.427 164.111 335.905 162.567 C 336.869 161.965 337.084 162.055 336.591 162.853 C 335.614 164.434 338.841 165.559 340.267 164.133 C 342.062 162.338 339.940 161.037 334.445 160.560 C 331.725 160.324 327.644 159.828 325.376 159.458 C 322.743 159.028 321.004 159.185 320.567 159.892 C 320.190 160.502 319.346 160.993 318.691 160.985 C 317.975 160.975 318.099 160.582 319.000 160.000 C 320.073 159.306 319.078 159.046 315.500 159.086 C 311.794 159.126 311.018 159.363 312.500 160.000 C 314.436 160.832 314.431 160.862 312.332 160.930 C 311.139 160.968 309.378 161.301 308.418 161.670 C 307.227 162.127 306.902 161.968 307.395 161.170 C 307.793 160.526 307.614 160.000 306.998 160.000 C 306.209 160.000 305.970 155.788 306.189 145.750 L 306.500 131.500 310.500 131.354 L 314.500 131.209 310.500 131.856 C 308.300 132.212 314.038 132.446 323.251 132.376 C 332.464 132.307 340.040 132.081 340.086 131.875 C 340.132 131.669 340.596 132.014 341.117 132.641 C 341.895 133.578 346.028 134.633 352.500 135.547 C 353.050 135.625 354.775 136.212 356.334 136.851 C 357.893 137.491 359.542 137.783 359.999 137.501 C 360.455 137.219 360.980 137.340 361.165 137.770 C 361.349 138.200 363.390 139.283 365.700 140.176 C 368.725 141.346 370.032 141.478 370.371 140.650 C 370.630 140.017 370.878 140.374 370.921 141.441 C 370.999 143.363 371.015 143.363 372.450 141.441 C 373.877 139.532 373.892 139.533 373.395 141.515 C 372.983 143.157 373.962 144.069 378.695 146.449 C 381.888 148.055 384.838 149.286 385.250 149.185 C 385.663 149.083 386.000 149.390 386.000 149.867 C 386.000 150.344 387.800 151.925 390.000 153.381 C 392.200 154.837 394.000 155.747 394.000 155.403 C 394.000 155.060 394.885 155.841 395.967 157.139 C 397.048 158.438 397.948 159.210 397.967 158.857 C 397.985 158.503 401.263 161.600 405.250 165.740 C 409.238 169.880 413.850 174.105 415.500 175.130 C 417.150 176.154 417.882 176.994 417.128 176.996 C 416.021 176.999 415.996 177.291 417.000 178.500 C 417.685 179.325 418.865 180.000 419.622 180.000 C 420.380 180.000 421.000 180.450 421.000 181.000 C 421.000 181.550 420.481 181.887 419.847 181.750 C 419.212 181.613 419.762 182.288 421.069 183.250 C 422.376 184.213 423.007 185.014 422.473 185.032 C 421.938 185.049 422.175 185.613 423.000 186.285 C 423.825 186.957 424.623 188.100 424.774 188.825 C 424.925 189.550 425.769 191.244 426.650 192.589 C 428.003 194.654 428.506 194.837 429.876 193.767 C 431.294 192.661 431.338 192.707 430.227 194.130 C 428.339 196.548 433.356 207.950 436.381 208.116 C 438.070 208.208 438.145 208.325 436.750 208.689 C 435.027 209.140 434.252 211.000 435.787 211.000 C 436.220 211.000 436.648 211.972 436.737 213.160 C 436.827 214.348 437.260 215.586 437.700 215.910 C 438.140 216.235 438.644 217.850 438.820 219.500 C 438.996 221.150 439.561 222.651 440.076 222.835 C 440.591 223.020 440.765 223.572 440.461 224.062 C 439.453 225.694 441.996 233.119 443.297 232.338 C 444.071 231.873 444.025 232.202 443.167 233.260 C 441.681 235.093 442.460 238.991 444.317 239.015 C 445.048 239.025 444.951 239.378 444.064 239.939 C 442.848 240.709 442.823 241.586 443.901 245.674 C 445.919 253.330 446.315 258.035 445.136 260.351 C 444.159 262.274 440.960 279.415 440.630 284.500 C 440.558 285.600 440.257 286.725 439.960 287.000 C 439.663 287.275 438.889 289.282 438.239 291.459 C 437.319 294.546 437.328 295.589 438.279 296.194 C 440.396 297.539 440.697 297.145 442.436 290.750 C 443.370 287.313 444.395 283.604 444.712 282.508 C 445.239 280.685 445.127 280.641 443.394 281.991 C 441.558 283.420 441.555 283.401 443.284 281.366 C 444.265 280.212 445.494 276.620 446.015 273.384 C 447.163 266.256 446.559 236.752 445.175 232.325 C 444.629 230.579 444.379 228.954 444.619 228.714 C 444.859 228.474 444.552 226.977 443.936 225.389 C 443.320 223.800 442.626 221.375 442.394 220.000 C 441.487 214.621 436.769 203.025 435.745 203.658 C 435.160 204.019 434.983 203.836 435.349 203.245 C 436.213 201.846 435.043 198.855 433.907 199.558 C 433.421 199.858 433.252 199.506 433.533 198.775 C 434.078 197.354 427.960 186.635 422.294 179.085 C 413.294 167.091 390.543 146.929 387.872 148.579 C 387.173 149.011 386.956 148.881 387.340 148.259 C 388.016 147.166 385.593 145.657 383.000 145.556 C 382.175 145.524 381.500 145.048 381.500 144.499 C 381.500 143.949 380.903 143.497 380.174 143.492 C 379.445 143.488 379.117 143.216 379.445 142.888 C 380.102 142.231 369.685 137.356 366.500 136.830 C 365.400 136.649 364.275 136.213 364.000 135.862 C 362.882 134.437 349.653 131.070 338.696 129.423 C 329.672 128.066 325.381 127.879 319.742 128.594 C 308.079 130.072 309.000 131.627 309.000 110.462 C 309.000 93.302 308.870 92.001 307.066 91.035 C 304.539 89.683 278.000 89.651 278.000 91.000 "/></g>
<g fill="#FEFEFEFE" stroke="#FEFEFEFE">
<path d="M 320.000 145.402 L 320.000 158.804 326.250 159.459 C 344.506 161.373 359.115 166.326 372.738 175.219 C 409.024 198.907 424.890 244.813 410.955 285.795 C 400.797 315.666 377.323 338.137 346.297 347.690 C 338.152 350.198 336.203 350.398 320.000 350.393 C 306.796 350.389 301.362 350.004 297.864 348.826 L 293.228 347.264 289.041 360.225 C 286.737 367.354 284.999 373.329 285.177 373.504 C 285.863 374.179 297.859 376.904 305.193 378.052 C 320.696 380.478 346.534 377.469 362.841 371.338 C 399.069 357.718 428.070 326.735 438.510 290.500 C 445.215 267.225 445.529 246.487 439.525 223.435 C 429.261 184.030 397.909 150.769 358.915 137.919 C 348.958 134.637 334.225 132.010 325.750 132.004 L 320.000 132.000 320.000 145.402 "/></g>
<g fill="#E0DE30FE" stroke="#E0DE30FE">
<path d="M 265.340 141.555 C 206.317 159.512 156.342 203.599 130.861 260.188 C 118.694 287.211 113.000 314.368 113.000 345.378 L 113.000 363.000 119.250 362.993 C 122.688 362.989 128.538 362.699 132.250 362.348 L 139.000 361.711 139.000 349.816 C 139.000 267.276 189.466 195.954 266.918 169.036 L 277.500 165.358 277.781 152.510 C 277.936 145.444 277.711 139.324 277.281 138.911 C 276.852 138.497 271.478 139.687 265.340 141.555 "/></g>
<g fill="#8CE2E4FE" stroke="#8CE2E4FE">
<path d="M 105.079 113.250 C 91.106 178.459 89.370 246.210 99.978 312.386 C 102.491 328.061 110.122 362.770 111.571 365.114 C 111.807 365.497 112.161 355.165 112.357 342.155 C 112.727 317.602 113.424 311.807 118.269 293.000 C 120.416 284.667 120.609 282.521 119.841 275.529 C 114.724 228.983 117.986 170.864 128.505 121.143 C 129.943 114.347 130.978 108.645 130.806 108.473 C 130.294 107.961 110.261 103.000 108.706 103.000 C 107.700 103.000 106.622 106.047 105.079 113.250 "/></g>
<g fill="#D69AD8FE" stroke="#D69AD8FE">
<path d="M 278.562 265.750 C 275.743 309.775 267.196 346.076 251.346 381.343 C 246.655 391.781 234.791 413.536 229.967 420.548 L 227.127 424.675 237.605 431.838 C 243.367 435.777 248.461 439.000 248.924 439.000 C 250.577 439.000 262.226 419.625 270.310 403.431 C 284.562 374.880 291.819 353.902 298.481 322.000 C 302.852 301.068 303.934 292.409 304.694 272.250 L 305.307 256.000 292.247 256.000 L 279.187 256.000 278.562 265.750 "/></g>
<g fill="#FEFEFEFE" stroke="#FEFEFEFE">
<path d="M 211.000 274.408 C 196.549 276.874 197.450 275.372 201.651 290.000 C 207.690 311.029 220.427 331.436 237.000 346.632 C 242.074 351.284 256.760 362.000 258.062 362.000 C 258.530 362.000 260.826 356.080 263.164 348.845 L 267.414 335.690 263.957 333.153 C 257.482 328.401 244.426 314.519 239.717 307.381 C 234.635 299.677 227.595 283.092 226.503 276.250 C 226.130 273.913 225.301 272.062 224.662 272.138 C 224.023 272.213 217.875 273.235 211.000 274.408 "/></g>
<g fill="#820606FE" stroke="#820606FE">
<path d="M 220.250 269.254 C 217.363 269.748 214.993 270.681 214.985 271.326 C 214.973 272.199 214.781 272.206 214.235 271.355 C 213.333 269.949 198.962 271.957 196.743 273.798 C 194.645 275.539 194.696 281.892 196.823 283.861 C 197.797 284.762 198.011 285.107 197.297 284.628 C 196.421 284.038 196.000 284.247 196.000 285.271 C 196.000 286.104 196.788 287.169 197.750 287.636 C 198.713 288.104 198.938 288.377 198.250 288.243 C 196.670 287.936 196.634 287.605 199.021 295.334 C 200.475 300.042 201.627 302.064 203.122 302.539 C 204.635 303.019 204.902 303.498 204.101 304.299 C 203.300 305.100 203.000 305.028 203.000 304.033 C 203.000 303.282 202.756 302.911 202.457 303.210 C 201.634 304.033 205.208 310.990 206.153 310.405 C 206.606 310.125 206.727 310.549 206.421 311.346 C 206.115 312.143 206.907 313.808 208.182 315.045 C 209.457 316.282 209.852 316.923 209.059 316.470 C 204.908 314.096 220.366 335.233 229.695 344.686 C 237.355 352.449 251.705 363.628 252.714 362.619 C 253.078 362.255 253.490 362.731 253.629 363.678 C 254.226 367.749 240.920 395.624 229.619 413.974 C 224.553 422.201 223.375 424.832 224.129 426.240 C 225.360 428.541 246.950 443.000 249.154 443.000 C 251.571 443.000 255.111 438.377 263.212 424.645 C 270.461 412.359 283.390 386.280 284.576 381.553 C 285.420 378.192 286.080 377.876 289.948 378.985 C 292.673 379.767 293.088 379.671 292.590 378.374 C 292.266 377.528 292.000 376.423 292.000 375.918 C 292.000 375.413 290.907 375.000 289.571 375.000 C 288.236 375.000 286.436 374.293 285.571 373.429 C 284.034 371.891 283.408 372.664 283.945 375.440 C 284.333 377.448 280.792 384.990 279.760 384.352 C 279.109 383.949 278.985 384.166 279.442 384.906 C 280.364 386.398 278.107 392.184 276.895 391.435 C 276.416 391.139 276.319 391.668 276.681 392.612 C 277.125 393.769 276.962 394.095 276.181 393.612 C 275.443 393.156 275.224 393.420 275.578 394.342 C 276.294 396.208 269.241 410.267 267.979 409.487 C 267.429 409.147 267.302 409.624 267.681 410.612 C 268.125 411.769 267.962 412.095 267.181 411.612 C 266.401 411.130 266.238 411.456 266.681 412.612 C 267.125 413.769 266.962 414.095 266.181 413.612 C 265.401 413.130 265.238 413.456 265.681 414.612 C 266.125 415.769 265.962 416.095 265.181 415.612 C 264.401 415.130 264.238 415.456 264.681 416.612 C 265.109 417.727 264.954 418.090 264.239 417.648 C 263.634 417.274 262.813 417.494 262.415 418.138 C 261.937 418.912 262.127 419.040 262.975 418.515 C 263.831 417.986 264.105 418.185 263.796 419.111 C 263.542 419.875 262.771 420.500 262.083 420.500 C 261.396 420.500 261.132 420.799 261.498 421.164 C 261.863 421.530 261.563 422.857 260.831 424.114 L 259.500 426.399 260.000 424.039 C 260.334 422.463 260.203 422.110 259.607 422.975 C 259.116 423.689 258.611 425.223 258.485 426.386 C 258.358 427.549 258.146 428.275 258.012 428.000 C 257.879 427.725 257.709 428.174 257.635 428.997 C 257.561 429.821 256.900 430.496 256.167 430.497 C 255.433 430.499 255.141 430.808 255.517 431.183 C 255.893 431.559 255.825 432.459 255.365 433.183 C 254.678 434.267 254.528 434.264 254.515 433.167 C 254.507 432.433 254.194 432.140 253.819 432.514 C 253.444 432.889 253.362 433.781 253.637 434.497 C 253.912 435.212 253.586 436.138 252.914 436.553 C 252.080 437.068 251.949 436.892 252.500 436.000 C 253.024 435.152 252.918 434.933 252.198 435.378 C 251.587 435.755 251.313 436.653 251.589 437.372 C 252.452 439.620 249.461 441.317 246.978 439.988 C 245.796 439.356 245.126 438.540 245.490 438.177 C 245.854 437.813 245.331 437.512 244.328 437.508 C 243.326 437.503 242.504 436.938 242.503 436.250 C 242.501 435.563 242.163 435.000 241.750 435.000 C 241.338 435.000 241.225 435.068 241.500 435.150 C 241.775 435.233 241.438 435.345 240.750 435.400 C 240.063 435.455 239.444 434.938 239.375 434.250 C 239.306 433.563 239.140 432.888 239.007 432.750 C 238.873 432.613 238.816 432.838 238.882 433.250 C 239.122 434.771 237.212 433.942 236.575 432.250 C 236.213 431.288 235.936 430.838 235.959 431.250 C 236.050 432.910 234.198 431.864 233.704 429.977 C 233.413 428.864 233.136 428.302 233.088 428.727 C 232.940 430.032 230.500 429.582 230.500 428.250 C 230.500 427.563 230.163 427.000 229.750 427.000 C 229.338 427.000 229.225 427.068 229.500 427.150 C 229.775 427.233 229.438 427.345 228.750 427.400 C 228.063 427.455 227.500 426.900 227.500 426.167 C 227.500 425.433 227.114 425.208 226.642 425.667 C 226.169 426.125 225.951 425.600 226.155 424.500 C 226.360 423.400 226.971 422.725 227.512 423.000 C 228.054 423.275 228.498 422.600 228.499 421.500 C 228.499 420.400 229.046 419.607 229.714 419.738 C 230.463 419.885 230.685 419.343 230.294 418.324 C 229.887 417.263 230.054 416.915 230.761 417.352 C 231.366 417.726 232.187 417.506 232.585 416.862 C 233.063 416.088 232.873 415.960 232.025 416.485 C 231.163 417.017 230.907 416.821 231.245 415.889 C 231.523 415.125 232.240 414.607 232.839 414.738 C 233.438 414.869 233.671 414.306 233.357 413.488 C 232.979 412.502 233.413 411.995 234.643 411.985 C 236.208 411.972 236.264 411.817 235.000 411.000 C 233.559 410.069 233.692 409.901 236.083 409.625 C 236.679 409.556 236.829 409.163 236.417 408.750 C 236.004 408.338 236.142 408.000 236.722 408.000 C 237.303 408.000 237.715 407.213 237.639 406.250 C 237.563 405.288 238.046 404.607 238.714 404.738 C 239.413 404.875 239.687 404.348 239.360 403.496 C 239.044 402.672 239.474 401.755 240.333 401.426 C 241.246 401.075 241.626 400.190 241.267 399.253 C 240.833 398.122 241.037 397.905 241.985 398.490 C 242.857 399.030 243.070 398.922 242.608 398.175 C 241.647 396.619 243.837 392.781 245.205 393.627 C 245.874 394.040 246.026 393.851 245.590 393.146 C 244.486 391.360 245.930 388.004 247.817 387.970 C 249.365 387.942 249.361 387.858 247.771 386.932 C 246.820 386.378 246.258 385.941 246.521 385.962 C 247.497 386.039 250.812 382.146 250.250 381.583 C 249.929 381.263 250.304 380.993 251.083 380.985 C 252.250 380.972 252.235 380.798 251.000 380.000 C 249.749 379.191 249.822 379.028 251.441 379.015 C 253.363 379.000 253.363 378.985 251.441 377.550 C 249.586 376.163 249.606 376.126 251.906 376.707 C 253.508 377.112 254.088 376.951 253.640 376.227 C 253.270 375.628 253.432 374.851 254.000 374.500 C 254.568 374.149 254.774 373.443 254.457 372.931 C 254.141 372.419 254.445 372.000 255.132 372.000 C 255.826 372.000 255.518 371.331 254.441 370.498 C 253.010 369.389 252.933 369.145 254.149 369.566 C 255.056 369.880 256.095 369.656 256.458 369.068 C 256.821 368.481 256.416 368.000 255.559 368.000 C 254.702 368.000 254.000 367.592 254.000 367.094 C 254.000 366.595 254.970 366.441 256.156 366.751 C 257.730 367.163 258.101 366.972 257.528 366.046 C 257.070 365.305 257.318 364.406 258.122 363.888 C 259.281 363.141 259.266 362.849 258.026 362.053 C 257.044 361.421 256.299 361.505 255.792 362.303 C 255.273 363.119 255.026 362.954 255.015 361.785 C 255.001 360.161 251.996 357.820 250.291 358.105 C 249.856 358.177 249.668 358.184 249.872 358.118 C 250.077 358.053 249.707 357.352 249.049 356.559 C 248.392 355.767 247.138 355.394 246.263 355.729 C 245.286 356.104 244.924 355.932 245.325 355.283 C 245.684 354.702 245.308 353.671 244.489 352.991 C 243.670 352.311 243.000 352.025 243.000 352.355 C 243.000 352.685 241.088 350.911 238.750 348.413 C 236.413 345.915 234.613 344.350 234.750 344.935 C 235.206 346.877 233.146 346.037 232.506 344.020 C 232.161 342.931 231.399 342.144 230.814 342.270 C 230.229 342.397 229.523 341.875 229.245 341.111 C 228.895 340.148 229.164 339.974 230.120 340.543 C 230.879 340.995 229.700 339.366 227.500 336.922 C 225.300 334.479 221.925 330.361 220.000 327.771 C 218.075 325.181 215.825 323.012 215.000 322.952 C 213.978 322.877 213.896 322.682 214.742 322.340 C 216.503 321.629 214.441 318.024 212.215 317.921 C 211.272 317.878 210.993 317.638 211.596 317.389 C 212.278 317.107 211.240 313.912 208.846 308.925 C 206.730 304.519 205.000 300.483 205.000 299.957 C 205.000 299.430 204.213 298.993 203.250 298.985 C 202.061 298.974 201.885 298.725 202.701 298.206 C 204.421 297.113 200.388 284.036 197.622 281.737 C 195.858 280.271 195.810 280.084 197.337 280.627 C 198.835 281.160 199.111 280.840 198.837 278.890 C 198.554 276.882 198.979 276.447 201.500 276.166 C 203.150 275.983 205.365 275.083 206.422 274.166 C 207.479 273.250 207.993 273.097 207.565 273.827 C 206.408 275.800 216.113 274.165 217.824 272.099 C 218.552 271.220 218.863 271.063 218.515 271.750 C 218.090 272.589 218.723 273.000 220.441 273.000 C 221.848 273.000 223.000 272.520 223.000 271.933 C 223.000 270.703 227.311 271.773 227.833 273.132 C 228.524 274.930 229.790 273.913 229.281 271.968 C 228.496 268.965 226.117 268.250 220.250 269.254 "/></g>
<g fill="#820606FE" stroke="#820606FE">
<path d="M 400.695 301.111 C 399.254 301.949 399.131 302.453 400.086 303.604 C 401.048 304.763 400.990 304.933 399.789 304.473 C 398.182 303.856 394.336 308.669 395.503 309.837 C 395.868 310.202 395.785 310.500 395.318 310.500 C 394.142 310.500 379.537 325.982 380.623 326.077 C 381.105 326.119 380.690 326.307 379.700 326.495 C 377.268 326.958 374.897 329.025 375.563 330.102 C 375.860 330.583 375.489 330.741 374.737 330.453 C 373.985 330.164 372.151 331.058 370.661 332.438 C 369.171 333.819 367.743 334.972 367.487 335.002 C 365.263 335.255 363.976 336.496 364.502 337.879 C 364.982 339.142 364.852 339.235 363.910 338.301 C 362.971 337.369 362.068 337.431 359.851 338.577 C 358.283 339.388 357.000 340.476 357.000 340.994 C 357.000 341.513 356.347 341.686 355.548 341.380 C 354.749 341.074 353.512 341.187 352.798 341.632 C 352.084 342.078 350.635 342.577 349.578 342.741 C 348.522 342.905 347.059 343.536 346.328 344.142 C 345.598 344.749 345.000 344.976 345.000 344.647 C 345.000 344.318 343.881 344.475 342.514 344.995 C 336.013 347.466 312.860 348.195 304.250 346.198 C 301.155 345.480 299.992 345.523 299.970 346.356 C 299.953 346.985 299.475 346.703 298.908 345.729 C 298.341 344.755 297.455 344.219 296.939 344.538 C 296.422 344.857 296.000 344.716 296.000 344.226 C 296.000 343.735 295.325 343.333 294.500 343.333 C 293.675 343.333 293.000 343.708 293.000 344.167 C 293.000 344.625 293.436 345.000 293.969 345.000 C 294.501 345.000 294.700 345.619 294.409 346.377 C 293.802 347.960 297.936 349.346 300.421 348.392 C 301.289 348.059 302.000 348.284 302.000 348.893 C 302.000 349.502 303.125 350.000 304.500 350.000 C 305.963 350.000 306.899 349.482 306.757 348.750 C 306.623 348.063 306.896 348.288 307.364 349.250 C 308.091 350.747 309.682 350.999 318.357 350.991 C 332.770 350.979 338.996 350.111 339.015 348.111 C 339.028 346.791 339.190 346.752 339.914 347.896 C 341.019 349.640 344.421 348.534 343.417 346.757 C 342.891 345.826 343.017 345.786 343.905 346.601 C 345.588 348.149 349.984 347.104 350.079 345.133 C 350.123 344.216 350.368 344.016 350.638 344.677 C 351.193 346.038 356.977 344.446 358.235 342.586 C 358.639 341.989 358.976 341.864 358.985 342.309 C 359.006 343.433 371.000 336.937 371.000 335.802 C 371.000 335.296 371.404 335.132 371.898 335.437 C 372.392 335.743 374.177 334.703 375.863 333.128 C 377.550 331.552 379.111 330.444 379.332 330.665 C 379.553 330.886 381.130 329.477 382.836 327.534 C 384.543 325.590 386.403 324.000 386.969 324.000 C 387.536 324.000 388.000 323.568 388.000 323.040 C 388.000 322.512 389.788 320.426 391.974 318.403 C 394.160 316.381 395.709 314.338 395.415 313.863 C 395.122 313.388 395.373 313.000 395.972 313.000 C 396.572 313.000 397.358 312.213 397.719 311.250 C 398.081 310.288 398.897 309.050 399.535 308.500 C 400.172 307.950 401.699 305.813 402.928 303.750 C 405.246 299.861 404.454 298.924 400.695 301.111 "/></g>
<g fill="#820606FE" stroke="#820606FE">
<path d="M 370.560 175.705 C 369.731 177.865 371.766 179.996 372.902 178.158 C 373.558 177.097 373.842 177.146 374.325 178.404 C 374.657 179.269 374.452 179.869 373.871 179.738 C 373.289 179.607 375.132 181.300 377.965 183.500 C 380.798 185.700 383.578 187.500 384.142 187.500 C 384.705 187.500 384.932 187.734 384.646 188.021 C 384.359 188.308 386.536 191.153 389.482 194.345 C 392.429 197.536 394.876 200.452 394.920 200.824 C 394.964 201.196 395.488 201.500 396.083 201.500 C 396.679 201.500 396.868 201.798 396.503 202.163 C 395.489 203.177 399.070 208.075 400.279 207.327 C 400.938 206.920 401.102 207.291 400.712 208.307 C 400.367 209.206 400.719 210.577 401.495 211.352 C 402.270 212.127 402.626 213.040 402.286 213.381 C 401.945 213.721 402.218 214.000 402.892 214.000 C 403.574 214.000 403.797 214.520 403.395 215.170 C 402.897 215.975 403.235 216.124 404.477 215.647 C 405.907 215.099 406.051 215.234 405.170 216.295 C 404.339 217.297 404.444 218.188 405.585 219.818 C 406.426 221.018 406.857 222.000 406.543 222.000 C 406.230 222.000 406.641 223.598 407.456 225.550 C 410.298 232.351 412.194 244.359 412.107 255.000 C 412.001 267.878 411.392 276.058 410.597 275.264 C 410.269 274.935 410.000 275.600 410.000 276.740 C 410.000 278.350 410.466 278.691 412.090 278.266 C 413.653 277.857 414.066 277.126 413.728 275.360 C 413.480 274.062 413.665 273.000 414.139 273.000 C 414.612 273.000 414.986 271.763 414.968 270.250 C 414.938 267.616 414.874 267.582 413.468 269.441 C 412.661 270.509 412.000 270.916 412.000 270.346 C 412.000 269.776 412.900 268.495 414.000 267.500 C 415.724 265.940 415.997 264.435 415.980 256.595 C 415.957 245.750 414.383 233.855 412.847 232.905 C 412.240 232.530 412.007 231.798 412.329 231.277 C 413.342 229.638 410.765 223.005 409.082 222.921 C 408.212 222.878 408.015 222.631 408.644 222.373 C 410.306 221.692 409.058 218.014 407.133 217.921 C 406.171 217.875 405.994 217.641 406.704 217.353 C 407.572 217.001 407.307 215.627 405.755 212.432 C 404.570 209.994 403.215 208.000 402.742 208.000 C 402.269 208.000 402.118 207.618 402.406 207.151 C 402.695 206.685 402.029 205.335 400.926 204.151 C 399.824 202.968 399.277 201.985 399.711 201.967 C 400.145 201.948 399.438 201.048 398.139 199.967 C 396.841 198.885 396.108 198.000 396.512 198.000 C 396.915 198.000 396.659 197.294 395.942 196.430 C 395.226 195.567 393.795 195.082 392.763 195.352 C 391.163 195.770 391.077 195.613 392.178 194.286 C 393.286 192.951 392.428 191.754 386.141 185.865 C 382.110 182.089 378.180 179.000 377.406 179.000 C 376.633 179.000 376.000 178.602 376.000 178.115 C 376.000 177.628 374.917 176.520 373.593 175.653 C 371.391 174.210 371.132 174.215 370.560 175.705 M 414.289 257.833 C 413.726 259.955 413.548 259.479 413.418 255.500 C 413.293 251.664 413.458 251.043 414.126 252.833 C 414.605 254.116 414.678 256.366 414.289 257.833 "/></g>
<g fill="#E0DE30FE" stroke="#E0DE30FE">
<path d="M 311.000 132.900 L 306.500 133.500 306.220 146.886 L 305.940 160.271 309.720 159.647 C 311.799 159.303 314.963 159.017 316.750 159.011 L 320.000 159.000 320.000 145.500 C 320.000 130.217 320.967 131.572 311.000 132.900 "/></g>
<g fill="#820606FE" stroke="#820606FE">
<path d="M 435.504 299.983 C 435.143 301.624 434.921 303.261 435.010 303.622 C 435.098 303.982 434.743 304.552 434.220 304.888 C 432.737 305.842 429.012 313.678 429.710 314.376 C 430.053 314.719 429.733 315.000 429.000 315.000 C 428.267 315.000 427.929 315.263 428.250 315.583 C 428.571 315.904 427.954 317.046 426.880 318.120 C 425.806 319.194 425.166 320.459 425.458 320.932 C 425.750 321.404 425.216 322.087 424.272 322.449 C 422.801 323.013 422.766 323.241 424.028 324.038 C 425.301 324.843 425.287 324.971 423.932 324.985 C 423.069 324.993 419.504 328.630 416.009 333.067 C 412.514 337.504 406.812 343.630 403.338 346.680 C 399.864 349.730 397.315 352.701 397.675 353.283 C 398.079 353.937 397.707 354.101 396.696 353.714 C 395.222 353.148 393.761 354.269 393.390 356.250 C 393.204 357.246 392.730 357.712 392.882 356.750 C 393.061 355.614 392.178 355.837 389.465 357.615 C 387.148 359.133 385.989 363.000 387.851 363.000 C 389.633 363.000 402.813 352.344 410.015 345.080 C 419.220 335.796 427.304 325.406 427.512 322.594 C 427.596 321.442 428.078 320.607 428.583 320.739 C 429.087 320.870 429.503 320.274 429.508 319.413 C 429.512 318.540 429.914 318.213 430.417 318.674 C 430.941 319.154 431.047 318.745 430.671 317.698 C 430.279 316.609 430.420 316.141 431.026 316.516 C 432.271 317.286 437.037 307.259 436.317 305.383 C 436.028 304.632 436.514 303.740 437.396 303.401 C 438.278 303.063 439.000 302.358 439.000 301.834 C 439.000 301.310 438.438 301.167 437.750 301.515 C 437.063 301.863 437.333 301.470 438.350 300.641 C 440.297 299.054 439.829 297.000 437.520 297.000 C 436.772 297.000 435.864 298.343 435.504 299.983 "/></g>
<g fill="#1C1C1C8A" stroke="#1C1C1C8A">
<path d="M 253.000 139.909 C 199.881 159.296 156.791 197.492 131.024 248.034 C 127.621 254.708 125.065 260.399 125.345 260.678 C 125.625 260.958 127.659 257.433 129.865 252.844 C 146.917 217.373 175.796 184.707 209.500 162.767 C 221.478 154.970 241.941 144.990 255.500 140.333 C 261.550 138.255 265.825 136.447 265.000 136.316 C 264.175 136.184 258.775 137.801 253.000 139.909 "/></g>
<g fill="#820606FE" stroke="#820606FE">
<path d="M 365.177 370.351 C 362.655 371.095 361.969 371.774 362.333 373.166 C 362.597 374.175 362.405 375.000 361.906 375.000 C 361.408 375.000 361.000 374.385 361.000 373.634 C 361.000 372.502 360.012 372.537 355.250 373.836 C 352.088 374.699 349.213 375.821 348.862 376.330 C 348.511 376.840 347.764 376.972 347.202 376.625 C 345.670 375.678 342.910 377.040 343.698 378.355 C 344.097 379.020 343.714 378.958 342.785 378.205 C 341.509 377.171 339.851 377.142 334.593 378.057 C 330.967 378.689 328.000 379.609 328.000 380.103 C 328.000 380.596 326.763 380.968 325.250 380.930 C 322.813 380.867 322.728 380.762 324.500 380.000 C 325.881 379.406 324.489 379.149 320.000 379.168 L 313.500 379.196 318.000 380.586 C 321.562 381.687 321.797 381.875 319.125 381.488 C 317.269 381.220 314.880 381.000 313.816 381.000 C 312.752 381.000 312.121 380.614 312.412 380.142 C 312.704 379.670 309.755 378.757 305.858 378.114 C 300.211 377.181 298.453 377.203 297.195 378.222 C 296.249 378.987 295.891 379.041 296.302 378.355 C 296.865 377.415 295.132 376.000 293.418 376.000 C 292.740 376.000 292.967 377.399 293.878 378.837 C 296.236 382.557 331.457 383.382 345.000 380.034 C 347.475 379.422 350.850 378.672 352.500 378.367 C 354.150 378.062 355.991 377.408 356.592 376.915 C 357.193 376.421 357.931 376.265 358.234 376.567 C 358.536 376.870 360.520 376.346 362.642 375.404 C 364.764 374.462 366.838 373.761 367.250 373.846 C 367.663 373.931 368.000 373.523 368.000 372.941 C 368.000 372.359 368.450 372.160 369.000 372.500 C 370.162 373.218 370.303 371.983 369.235 370.436 C 368.732 369.707 367.452 369.680 365.177 370.351 "/></g>
<g fill="#1C1C1C8A" stroke="#1C1C1C8A">
<path d="M 194.152 220.653 C 179.731 235.936 170.246 249.900 160.471 270.243 C 157.368 276.702 154.998 282.493 155.204 283.112 C 155.410 283.731 157.504 279.730 159.856 274.221 C 164.346 263.707 173.284 248.296 180.284 239.000 C 184.715 233.116 187.214 230.193 196.237 220.342 C 199.392 216.897 202.092 213.567 202.237 212.943 C 202.382 212.318 198.743 215.788 194.152 220.653 "/></g>
<g fill="#820606FE" stroke="#820606FE">
<path d="M 341.624 163.538 C 341.261 164.482 341.702 165.282 342.767 165.610 C 343.720 165.903 347.524 167.271 351.221 168.649 C 354.917 170.027 358.474 170.825 359.125 170.422 C 359.776 170.020 360.047 170.115 359.727 170.633 C 359.406 171.151 361.365 172.824 364.080 174.350 C 368.372 176.763 369.096 176.914 369.633 175.514 C 370.005 174.544 369.505 173.356 368.375 172.526 C 366.749 171.332 366.410 171.372 365.820 172.824 C 365.286 174.143 365.126 174.008 365.070 172.191 C 365.032 170.919 364.551 170.160 364.000 170.500 C 363.450 170.840 363.000 170.674 363.000 170.132 C 363.000 168.863 347.216 162.749 345.954 163.529 C 345.429 163.853 345.000 163.641 345.000 163.059 C 345.000 161.423 342.288 161.808 341.624 163.538 "/></g>
<g fill="#5E5E5E8A" stroke="#5E5E5E8A">
<path d="M 309.458 164.250 C 309.194 164.938 309.101 186.425 309.250 212.000 L 309.520 258.500 309.760 211.307 L 310.000 164.115 314.250 163.732 L 318.500 163.349 314.219 163.175 C 311.575 163.067 309.754 163.478 309.458 164.250 "/></g>
<g fill="#820606FE" stroke="#820606FE">
<path d="M 383.166 361.834 C 381.975 363.025 380.851 363.888 380.669 363.750 C 380.487 363.613 378.012 364.589 375.169 365.921 C 370.247 368.226 368.811 370.147 371.000 371.500 C 372.422 372.379 384.091 365.957 383.325 364.717 C 382.961 364.127 383.182 363.994 383.845 364.405 C 385.718 365.562 386.980 364.120 386.122 361.802 L 385.333 359.667 383.166 361.834 "/></g>
<g fill="#820606FE" stroke="#820606FE">
<path d="M 410.184 279.865 C 409.459 280.325 408.772 281.330 408.655 282.100 C 408.539 282.870 408.079 284.084 407.633 284.798 C 407.187 285.512 407.082 286.773 407.400 287.600 C 407.727 288.452 407.549 288.839 406.989 288.493 C 406.445 288.157 406.000 288.782 406.000 289.882 C 406.000 290.982 405.519 292.179 404.932 292.542 C 404.344 292.905 404.114 293.855 404.420 294.653 C 404.727 295.451 404.598 295.870 404.135 295.583 C 403.671 295.297 402.818 296.103 402.239 297.375 C 401.263 299.518 401.378 299.650 403.815 299.185 C 406.199 298.729 406.260 298.610 404.472 297.911 C 402.650 297.199 402.676 297.135 404.809 297.070 C 406.081 297.032 406.840 296.551 406.500 296.000 C 406.160 295.450 406.324 295.000 406.863 295.000 C 407.765 295.000 409.737 290.250 410.521 286.190 C 410.700 285.261 410.938 284.388 411.048 284.250 C 411.159 284.113 411.306 283.588 411.375 283.083 C 411.444 282.579 411.838 281.829 412.250 281.417 C 414.169 279.498 412.610 278.327 410.184 279.865 "/></g>
<g fill="#16161616" stroke="#16161616">
<path d="M 201.010 217.803 C 200.740 219.837 200.522 226.450 200.525 232.500 C 200.530 242.583 200.814 244.250 203.940 252.500 C 206.451 259.127 208.419 262.555 211.405 265.500 C 215.032 269.078 215.104 269.110 212.084 265.802 C 210.134 263.665 207.263 258.390 205.282 253.302 C 202.461 246.059 201.762 242.729 201.336 234.500 C 201.051 229.000 201.286 222.475 201.859 220.000 C 202.431 217.525 202.585 215.187 202.200 214.803 C 201.815 214.420 201.279 215.770 201.010 217.803 "/></g>
<g fill="#5E5E5E8A" stroke="#5E5E5E8A">
<path d="M 309.225 110.750 L 309.000 129.000 314.750 128.815 L 320.500 128.630 315.273 128.264 L 310.046 127.897 309.748 110.199 L 309.451 92.500 309.225 110.750 "/></g>
<g fill="#1C1C1C8A" stroke="#1C1C1C8A">
<path d="M 228.968 345.468 C 234.154 350.676 238.540 354.794 238.714 354.619 C 239.116 354.217 220.938 336.000 220.135 336.000 C 219.807 336.000 223.782 340.261 228.968 345.468 "/></g>
<g fill="#1C1C1C8A" stroke="#1C1C1C8A">
<path d="M 274.120 405.120 C 271.789 409.572 270.105 413.438 270.378 413.711 C 270.650 413.984 272.730 410.514 275.000 406.000 C 277.270 401.486 278.954 397.620 278.742 397.409 C 278.531 397.198 276.451 400.668 274.120 405.120 "/></g>
<g fill="#1C1C1C8A" stroke="#1C1C1C8A">
<path d="M 241.116 390.791 C 238.201 396.681 236.260 401.050 236.803 400.500 C 238.225 399.059 247.276 380.943 246.808 380.475 C 246.592 380.259 244.030 384.901 241.116 390.791 "/></g>
<g fill="#1C1C1C8A" stroke="#1C1C1C8A">
<path d="M 200.608 303.000 C 201.414 306.081 207.996 319.338 208.478 318.852 C 208.671 318.659 206.831 314.450 204.391 309.500 C 201.951 304.550 200.248 301.625 200.608 303.000 "/></g>
<g fill="#FE4E4EFE" stroke="#FE4E4EFE">
<path d="M 243.694 179.804 L 234.888 184.500 244.507 180.021 C 249.796 177.557 253.759 175.444 253.312 175.324 C 252.866 175.205 248.537 177.221 243.694 179.804 "/></g>
<g fill="#820606FE" stroke="#820606FE">
<path d="M 242.689 179.303 L 234.878 183.500 243.508 179.523 C 248.254 177.336 251.769 175.447 251.319 175.326 C 250.868 175.205 246.985 176.995 242.689 179.303 "/></g>
<g fill="#1C1C1C8A" stroke="#1C1C1C8A">
<path d="M 404.000 158.199 C 404.000 159.073 416.158 171.175 416.596 170.737 C 416.788 170.545 414.033 167.501 410.473 163.973 C 406.913 160.445 404.000 157.846 404.000 158.199 "/></g>
<g fill="#FE4E4EFE" stroke="#FE4E4EFE">
<path d="M 225.563 190.235 L 217.824 195.500 225.903 190.574 C 230.346 187.865 233.829 185.496 233.642 185.309 C 233.456 185.122 229.820 187.339 225.563 190.235 "/></g>
<g fill="#FE4E4EFE" stroke="#FE4E4EFE">
<path d="M 242.801 437.172 C 248.898 441.191 249.158 441.266 250.801 439.468 C 252.406 437.712 252.403 437.683 250.737 438.938 C 249.207 440.091 248.253 439.787 243.503 436.633 C 240.493 434.635 237.686 433.004 237.265 433.009 C 236.844 433.014 239.336 434.887 242.801 437.172 "/></g>
<g fill="#FE4E4EFE" stroke="#FE4E4EFE">
<path d="M 271.931 402.583 L 268.500 410.138 272.314 402.967 C 274.412 399.022 275.956 395.622 275.745 395.412 C 275.534 395.201 273.818 398.428 271.931 402.583 "/></g>
<g fill="#FE4E4EFE" stroke="#FE4E4EFE">
<path d="M 159.686 264.033 C 157.588 267.978 156.044 271.378 156.255 271.588 C 156.466 271.799 158.182 268.572 160.069 264.417 L 163.500 256.862 159.686 264.033 "/></g>
<g fill="#FE4E4EFE" stroke="#FE4E4EFE">
<path d="M 230.682 153.802 L 223.864 157.500 231.509 154.026 C 235.713 152.115 238.781 150.451 238.327 150.328 C 237.872 150.205 234.432 151.768 230.682 153.802 "/></g>
<g fill="#FE4E4EFE" stroke="#FE4E4EFE">
<path d="M 150.111 286.138 C 148.950 289.576 148.033 292.863 148.074 293.444 C 148.115 294.025 149.237 291.384 150.567 287.576 C 151.898 283.768 152.814 280.480 152.604 280.270 C 152.393 280.060 151.272 282.701 150.111 286.138 "/></g>
<g fill="#FE4E4EFE" stroke="#FE4E4EFE">
<path d="M 444.551 254.994 C 444.635 258.277 444.996 260.671 445.352 260.315 C 446.261 259.405 446.133 251.758 445.184 250.263 C 444.751 249.582 444.467 251.712 444.551 254.994 "/></g>
<g fill="#820606FE" stroke="#820606FE">
<path d="M 159.185 263.023 C 157.361 266.422 156.045 269.378 156.259 269.592 C 156.474 269.807 157.966 267.026 159.575 263.414 L 162.500 256.845 159.185 263.023 "/></g>
<g fill="#1C1C1C8A" stroke="#1C1C1C8A">
<path d="M 232.677 406.288 C 228.879 412.769 228.978 414.084 232.808 408.020 C 234.627 405.139 235.919 402.586 235.679 402.346 C 235.439 402.106 234.088 403.880 232.677 406.288 "/></g>
<g fill="#5E5E5E8A" stroke="#5E5E5E8A">
<path d="M 402.425 295.586 L 399.500 302.155 402.815 295.977 C 404.639 292.578 405.955 289.622 405.741 289.408 C 405.526 289.193 404.034 291.974 402.425 295.586 "/></g>
<g fill="#FE4E4EFE" stroke="#FE4E4EFE">
<path d="M 229.959 417.777 C 225.058 425.844 225.088 426.676 230.009 419.163 C 232.292 415.678 233.992 412.659 233.788 412.455 C 233.584 412.251 231.861 414.646 229.959 417.777 "/></g>
<g fill="#5E5E5E8A" stroke="#5E5E5E8A">
<path d="M 255.000 320.000 L 261.000 326.000 255.000 320.000 L 249.000 314.000 255.000 320.000 "/></g>
<g fill="#FE4E4EFE" stroke="#FE4E4EFE">
<path d="M 276.755 267.848 C 276.332 269.752 276.443 271.909 277.012 272.848 C 277.750 274.067 277.946 273.189 277.756 269.500 C 277.513 264.763 277.461 264.676 276.755 267.848 "/></g>
<g fill="#FE4E4EFE" stroke="#FE4E4EFE">
<path d="M 195.000 214.961 L 189.500 220.551 195.000 214.961 L 200.500 209.370 195.000 214.961 "/></g>
<g fill="#820606FE" stroke="#820606FE">
<path d="M 223.207 190.774 L 217.915 194.500 223.016 191.500 C 225.822 189.850 228.204 188.173 228.309 187.774 C 228.414 187.375 226.118 188.725 223.207 190.774 "/></g>
<g fill="#FE4E4EFE" stroke="#FE4E4EFE">
<path d="M 172.295 242.345 C 170.532 244.756 168.957 247.287 168.795 247.968 C 168.633 248.649 170.075 246.677 172.000 243.584 C 175.329 238.235 175.344 238.174 172.295 242.345 "/></g>
<g fill="#820606FE" stroke="#820606FE">
<path d="M 294.974 340.053 C 293.679 340.885 293.682 341.119 295.000 341.985 C 297.737 343.782 298.871 342.918 297.208 340.303 C 296.701 339.505 295.956 339.421 294.974 340.053 "/></g>
<g fill="#1C1C1C8A" stroke="#1C1C1C8A">
<path d="M 248.636 374.636 C 247.689 376.623 247.153 378.486 247.444 378.777 C 247.735 379.069 248.681 377.614 249.545 375.545 C 251.587 370.659 250.873 369.945 248.636 374.636 "/></g>
<g fill="#820606FE" stroke="#820606FE">
<path d="M 216.221 162.799 L 211.942 165.500 216.048 163.500 C 218.307 162.400 220.232 161.185 220.327 160.799 C 220.422 160.414 218.574 161.314 216.221 162.799 "/></g>
<g fill="#1C1C1C8A" stroke="#1C1C1C8A">
<path d="M 133.000 104.678 C 133.000 105.185 133.406 106.028 133.903 106.550 C 134.400 107.073 135.022 108.400 135.287 109.500 C 135.666 111.075 135.793 110.942 135.884 108.872 C 135.948 107.427 135.325 105.685 134.500 105.000 C 133.675 104.315 133.000 104.170 133.000 104.678 "/></g>
<g fill="#5E5E5E8A" stroke="#5E5E5E8A">
<path d="M 385.500 190.500 L 390.000 195.000 385.500 190.500 L 381.000 186.000 385.500 190.500 "/></g>
<g fill="#D69AD8FE" stroke="#D69AD8FE">
<path d="M 119.000 216.000 C 119.000 219.912 120.468 219.910 120.606 215.998 C 120.665 214.349 120.328 213.000 119.856 213.000 C 119.385 213.000 119.000 214.350 119.000 216.000 "/></g>
<g fill="#820606FE" stroke="#820606FE">
<path d="M 172.310 240.801 C 171.105 242.363 169.980 244.227 169.810 244.943 C 169.639 245.660 170.625 244.382 172.000 242.104 C 173.971 238.838 174.037 238.562 172.310 240.801 "/></g>
<g fill="#1C1C1C8A" stroke="#1C1C1C8A">
<path d="M 253.577 440.625 C 250.700 444.439 250.696 444.462 253.322 442.080 C 254.790 440.749 256.105 439.006 256.245 438.205 C 256.385 437.405 255.185 438.494 253.577 440.625 "/></g>
<g fill="#1C1C1C8A" stroke="#1C1C1C8A">
<path d="M 243.000 357.912 C 244.925 359.600 246.401 360.576 246.280 360.080 C 246.159 359.584 244.584 358.203 242.780 357.010 L 239.500 354.842 243.000 357.912 "/></g>
<g fill="#1C1C1C8A" stroke="#1C1C1C8A">
<path d="M 417.000 338.458 L 414.500 341.810 417.946 338.405 C 419.842 336.532 420.967 335.024 420.446 335.053 C 419.926 335.081 418.375 336.614 417.000 338.458 "/></g>
<g fill="#5E5E5E8A" stroke="#5E5E5E8A">
<path d="M 357.000 339.000 C 355.075 340.054 353.950 340.916 354.500 340.916 C 355.050 340.916 357.075 340.054 359.000 339.000 C 360.925 337.946 362.050 337.084 361.500 337.084 C 360.950 337.084 358.925 337.946 357.000 339.000 "/></g>
<g fill="#FE4E4EFE" stroke="#FE4E4EFE">
<path d="M 271.000 168.500 C 269.075 169.241 268.175 169.862 269.000 169.879 C 269.825 169.896 271.850 169.292 273.500 168.536 C 277.362 166.768 275.566 166.742 271.000 168.500 "/></g>
<g fill="#FE4E4EFE" stroke="#FE4E4EFE">
<path d="M 306.618 131.809 C 306.343 132.255 308.004 132.311 310.309 131.935 L 314.500 131.250 310.809 131.125 C 308.779 131.056 306.893 131.364 306.618 131.809 "/></g>
<g fill="#FE5858FE" stroke="#FE5858FE">
<path d="M 175.299 194.500 L 172.333 197.500 175.299 194.500 L 178.265 191.500 175.299 194.500 "/></g>
<g fill="#1C1C1C8A" stroke="#1C1C1C8A">
<path d="M 266.670 419.573 C 265.664 421.003 265.085 422.418 265.384 422.718 C 265.683 423.017 266.507 421.847 267.214 420.117 L 268.500 416.973 266.670 419.573 "/></g>
<g fill="#1C1C1C8A" stroke="#1C1C1C8A">
<path d="M 224.670 419.573 C 223.664 421.003 223.085 422.418 223.384 422.718 C 223.683 423.017 224.507 421.847 225.214 420.117 L 226.500 416.973 224.670 419.573 "/></g>
<g fill="#1C1C1C8A" stroke="#1C1C1C8A">
<path d="M 403.500 352.435 L 400.500 355.564 403.500 352.435 L 406.500 349.305 403.500 352.435 "/></g>
<g fill="#1C1C1C8A" stroke="#1C1C1C8A">
<path d="M 148.684 302.382 C 148.308 303.362 148.029 304.914 148.063 305.832 C 148.105 306.937 148.453 306.685 149.092 305.086 C 149.623 303.758 149.902 302.206 149.712 301.636 C 149.522 301.067 149.059 301.403 148.684 302.382 "/></g>
<g fill="#1C1C1C8A" stroke="#1C1C1C8A">
<path d="M 150.684 295.382 C 150.308 296.362 150.029 297.914 150.063 298.832 C 150.105 299.937 150.453 299.685 151.092 298.086 C 151.623 296.758 151.902 295.206 151.712 294.636 C 151.522 294.067 151.059 294.403 150.684 295.382 "/></g>
<g fill="#1C1C1C8A" stroke="#1C1C1C8A">
<path d="M 123.729 262.604 C 123.328 263.005 123.014 264.271 123.030 265.417 C 123.058 267.340 123.141 267.363 124.101 265.712 C 125.220 263.790 124.934 261.400 123.729 262.604 "/></g>
<g fill="#5E5E5E8A" stroke="#5E5E5E8A">
<path d="M 410.500 345.435 L 407.500 348.564 410.500 345.435 L 413.500 342.305 410.500 345.435 "/></g>
<g fill="#5E5E5E8A" stroke="#5E5E5E8A">
<path d="M 360.327 172.818 C 364.051 174.454 364.072 174.453 361.127 172.750 C 359.462 171.788 357.739 171.030 357.300 171.068 C 356.860 171.105 358.222 171.892 360.327 172.818 "/></g>
<g fill="#FE4E4EFE" stroke="#FE4E4EFE">
<path d="M 242.676 395.966 C 241.673 397.737 241.045 399.379 241.281 399.614 C 241.517 399.850 242.337 398.401 243.105 396.394 L 244.500 392.745 242.676 395.966 "/></g>
<g fill="#FE4E4EFE" stroke="#FE4E4EFE">
<path d="M 324.500 380.000 C 322.728 380.762 322.813 380.867 325.250 380.930 C 326.763 380.968 328.000 380.550 328.000 380.000 C 328.000 378.826 327.231 378.826 324.500 380.000 "/></g>
<g fill="#FE4E4EFE" stroke="#FE4E4EFE">
<path d="M 312.446 380.088 C 312.136 380.589 313.371 380.961 315.191 380.914 L 318.500 380.828 315.755 380.002 C 314.186 379.530 312.768 379.567 312.446 380.088 "/></g>
<g fill="#FE4E4EFE" stroke="#FE4E4EFE">
<path d="M 232.455 344.002 C 232.775 344.826 234.130 346.175 235.466 347.000 C 237.487 348.248 237.389 347.996 234.884 345.502 C 233.227 343.853 232.134 343.178 232.455 344.002 "/></g>
<g fill="#FE4E4EFE" stroke="#FE4E4EFE">
<path d="M 228.072 339.808 C 229.386 341.627 230.591 342.726 230.750 342.250 C 230.909 341.774 229.834 340.286 228.361 338.942 L 225.683 336.500 228.072 339.808 "/></g>
</svg>
