<?xml version="1.0" encoding="utf-8"?>
<!DOCTYPE svg PUBLIC "-//W3C//DTD SVG 20010904//EN" "http://www.w3.org/TR/2001/REC-SVG-20010904/DTD/svg10.dtd">
<svg version="1.0" xmlns="http://www.w3.org/2000/svg" width="514pt" height="514pt" viewBox="0 0 514 514" style="" preserveAspectRatio="xMidYMid meet">
<g fill="#020202FE" stroke="#020202FE">
<path d="M 1.000 257.000 L 1.000 513.000 257.000 513.000 L 513.000 513.000 513.000 257.000 L 513.000 1.000 257.000 1.000 L 1.000 1.000 1.000 257.000 M 306.209 113.501 C 306.369 124.227 306.221 133.002 305.880 133.001 C 305.539 133.000 305.492 160.450 305.777 194.000 L 306.293 255.000 292.396 255.207 L 278.500 255.414 292.500 255.957 C 300.200 256.256 306.388 256.838 306.250 257.250 C 306.113 257.663 306.000 261.854 306.000 266.565 C 306.000 273.699 306.239 274.994 307.427 274.315 C 308.213 273.867 307.735 275.204 306.367 277.286 C 303.693 281.355 303.372 287.500 305.834 287.500 C 306.738 287.500 306.496 288.275 305.084 289.903 C 302.690 292.663 302.488 294.088 304.242 295.842 C 305.214 296.814 305.219 297.247 304.266 297.835 C 302.803 298.740 302.119 302.500 303.417 302.500 C 303.922 302.500 304.408 303.505 304.499 304.733 C 304.620 306.380 304.345 306.701 303.448 305.957 C 301.706 304.511 300.721 307.611 302.103 310.193 C 302.775 311.448 302.807 311.999 302.185 311.614 C 300.796 310.756 300.079 313.127 301.117 315.150 C 301.698 316.282 301.491 316.981 300.457 317.378 C 299.407 317.781 299.142 318.719 299.584 320.478 C 300.000 322.138 299.801 323.000 299.001 323.000 C 298.277 323.000 298.045 323.675 298.427 324.670 C 298.779 325.589 298.490 326.722 297.784 327.189 C 296.785 327.849 296.904 328.347 298.319 329.430 C 300.060 330.762 300.050 330.850 298.069 331.478 C 295.564 332.273 295.326 334.000 297.723 334.000 C 299.100 334.000 298.976 334.329 297.101 335.642 C 295.042 337.084 294.954 337.395 296.378 338.192 C 297.270 338.691 297.993 339.640 297.985 340.300 C 297.973 341.231 297.799 341.231 297.208 340.303 C 296.694 339.494 295.969 339.419 294.974 340.071 C 293.705 340.903 293.743 341.180 295.250 342.068 C 296.213 342.635 296.993 343.640 296.985 344.300 C 296.975 345.052 296.695 345.127 296.235 344.500 C 295.223 343.122 293.000 342.779 293.000 344.000 C 293.000 344.550 293.436 345.000 293.969 345.000 C 294.501 345.000 294.700 345.619 294.409 346.377 C 293.802 347.960 297.936 349.346 300.421 348.392 C 301.289 348.059 302.000 348.284 302.000 348.893 C 302.000 349.502 303.125 350.000 304.500 350.000 C 305.963 350.000 306.899 349.482 306.757 348.750 C 306.623 348.063 306.896 348.288 307.364 349.250 C 308.091 350.747 309.682 350.999 318.357 350.991 C 332.770 350.979 338.996 350.111 339.015 348.111 C 339.028 346.791 339.190 346.752 339.914 347.896 C 341.019 349.640 344.421 348.534 343.417 346.757 C 342.891 345.826 343.017 345.786 343.905 346.601 C 345.588 348.149 349.984 347.104 350.079 345.133 C 350.123 344.216 350.368 344.016 350.638 344.677 C 351.193 346.038 356.977 344.446 358.235 342.586 C 358.639 341.989 358.976 341.864 358.985 342.309 C 359.006 343.433 371.000 336.937 371.000 335.802 C 371.000 335.296 371.404 335.132 371.898 335.437 C 372.392 335.743 374.177 334.703 375.863 333.128 C 377.550 331.552 379.111 330.444 379.332 330.665 C 379.553 330.886 381.130 329.477 382.836 327.534 C 384.543 325.590 386.403 324.000 386.969 324.000 C 387.536 324.000 388.000 323.568 388.000 323.040 C 388.000 322.512 389.788 320.426 391.974 318.403 C 394.160 316.381 395.738 314.385 395.480 313.968 C 395.222 313.551 395.684 312.952 396.506 312.636 C 397.328 312.321 398.000 311.536 398.000 310.892 C 398.000 310.247 398.606 309.221 399.347 308.610 C 400.087 308.000 401.745 305.738 403.030 303.585 L 405.367 299.671 403.182 300.242 C 401.980 300.556 401.249 300.405 401.558 299.907 C 401.866 299.408 403.104 298.968 404.309 298.930 C 406.421 298.862 406.428 298.829 404.500 298.000 C 402.611 297.188 402.628 297.137 404.809 297.070 C 406.081 297.032 406.840 296.551 406.500 296.000 C 406.160 295.450 406.324 295.000 406.863 295.000 C 407.765 295.000 409.737 290.250 410.521 286.190 C 410.700 285.261 410.938 284.388 411.048 284.250 C 411.159 284.113 411.306 283.588 411.375 283.083 C 411.444 282.579 411.838 281.829 412.250 281.417 C 413.671 279.996 412.995 279.024 410.750 279.260 C 409.167 279.427 409.342 279.236 411.341 278.617 C 413.632 277.908 414.095 277.278 413.730 275.369 C 413.481 274.066 413.665 273.000 414.139 273.000 C 414.612 273.000 414.986 271.763 414.968 270.250 C 414.938 267.616 414.874 267.582 413.468 269.441 C 412.661 270.509 412.000 270.916 412.000 270.346 C 412.000 269.776 412.900 268.495 414.000 267.500 C 415.724 265.940 415.997 264.435 415.980 256.595 C 415.957 245.750 414.383 233.855 412.847 232.905 C 412.240 232.530 412.007 231.798 412.329 231.277 C 413.342 229.638 410.765 223.005 409.082 222.921 C 408.212 222.878 408.015 222.631 408.644 222.373 C 410.306 221.692 409.058 218.014 407.133 217.921 C 406.171 217.875 405.994 217.641 406.704 217.353 C 407.572 217.001 407.307 215.627 405.755 212.432 C 404.570 209.994 403.215 208.000 402.742 208.000 C 402.269 208.000 402.118 207.618 402.406 207.151 C 402.695 206.685 402.029 205.335 400.926 204.151 C 399.824 202.968 399.277 201.985 399.711 201.967 C 400.145 201.948 399.438 201.048 398.139 199.967 C 396.841 198.885 396.108 198.000 396.512 198.000 C 396.915 198.000 396.659 197.294 395.942 196.430 C 395.226 195.567 393.795 195.082 392.763 195.352 C 391.163 195.770 391.077 195.613 392.178 194.286 C 393.286 192.951 392.428 191.754 386.141 185.865 C 382.110 182.089 378.428 179.000 377.958 179.000 C 377.488 179.000 375.891 177.877 374.409 176.503 C 371.883 174.162 371.631 174.115 370.355 175.753 C 369.069 177.406 369.029 177.403 369.623 175.702 C 370.023 174.556 369.571 173.404 368.375 172.526 C 366.749 171.332 366.410 171.372 365.820 172.824 C 365.286 174.143 365.126 174.008 365.070 172.191 C 365.032 170.919 364.551 170.160 364.000 170.500 C 363.450 170.840 363.000 170.674 363.000 170.132 C 363.000 168.863 347.216 162.749 345.954 163.529 C 345.429 163.853 345.000 163.641 345.000 163.059 C 345.000 161.333 342.283 161.853 341.389 163.750 C 340.668 165.281 340.595 165.290 340.809 163.825 C 341.134 161.596 340.045 161.047 334.320 160.549 C 331.669 160.319 327.644 159.828 325.376 159.458 C 322.743 159.028 321.004 159.185 320.567 159.892 C 320.190 160.502 319.346 160.993 318.691 160.985 C 317.975 160.975 318.099 160.582 319.000 160.000 C 320.073 159.306 319.078 159.046 315.500 159.086 C 311.794 159.126 311.018 159.363 312.500 160.000 C 314.436 160.832 314.431 160.862 312.332 160.930 C 311.139 160.968 309.378 161.301 308.418 161.670 C 307.227 162.127 306.902 161.968 307.395 161.170 C 307.793 160.526 307.641 160.000 307.059 160.000 C 305.447 160.000 305.630 134.352 307.250 133.327 C 307.938 132.892 315.588 132.477 324.251 132.404 C 332.914 132.331 339.889 131.916 339.751 131.482 C 339.613 131.048 340.077 131.388 340.782 132.238 C 341.841 133.513 345.584 134.570 352.500 135.547 C 353.050 135.625 354.775 136.212 356.334 136.851 C 357.893 137.491 359.542 137.783 359.999 137.501 C 360.455 137.219 360.980 137.340 361.165 137.770 C 361.349 138.200 363.390 139.283 365.700 140.176 C 368.725 141.346 370.032 141.478 370.371 140.650 C 370.630 140.017 370.878 140.374 370.921 141.441 C 370.999 143.363 371.015 143.363 372.450 141.441 C 373.877 139.532 373.892 139.533 373.395 141.515 C 372.983 143.157 373.962 144.069 378.695 146.449 C 381.888 148.055 384.838 149.286 385.250 149.185 C 385.663 149.083 386.000 149.390 386.000 149.867 C 386.000 150.344 387.800 151.925 390.000 153.381 C 392.200 154.837 394.000 155.747 394.000 155.403 C 394.000 155.060 394.885 155.841 395.967 157.139 C 397.048 158.438 397.948 159.201 397.967 158.837 C 397.985 158.472 400.761 161.048 404.135 164.562 C 407.509 168.076 410.599 170.748 411.001 170.499 C 411.404 170.251 412.580 171.049 413.616 172.274 L 415.500 174.500 413.078 172.500 C 411.746 171.400 411.008 171.099 411.437 171.831 C 411.867 172.563 413.632 174.024 415.359 175.077 C 417.087 176.131 417.882 176.994 417.128 176.996 C 416.021 176.999 415.996 177.291 417.000 178.500 C 417.685 179.325 418.865 180.000 419.622 180.000 C 420.380 180.000 421.000 180.450 421.000 181.000 C 421.000 181.550 420.481 181.887 419.847 181.750 C 419.212 181.613 419.762 182.288 421.069 183.250 C 422.376 184.213 423.007 185.014 422.473 185.032 C 421.938 185.049 422.175 185.613 423.000 186.285 C 423.825 186.957 424.623 188.100 424.774 188.825 C 424.925 189.550 425.769 191.244 426.650 192.589 C 428.003 194.654 428.506 194.837 429.876 193.767 C 431.294 192.661 431.338 192.707 430.227 194.130 C 428.339 196.548 433.356 207.950 436.381 208.116 C 438.070 208.208 438.145 208.325 436.750 208.689 C 435.027 209.140 434.252 211.000 435.787 211.000 C 436.220 211.000 436.648 211.972 436.737 213.160 C 436.827 214.348 437.260 215.586 437.700 215.910 C 438.140 216.235 438.644 217.850 438.820 219.500 C 438.996 221.150 439.561 222.651 440.076 222.835 C 440.591 223.020 440.765 223.572 440.461 224.062 C 439.453 225.694 441.996 233.119 443.297 232.338 C 444.071 231.873 444.025 232.202 443.167 233.260 C 441.681 235.093 442.460 238.991 444.317 239.015 C 445.048 239.025 444.951 239.378 444.064 239.939 C 442.848 240.709 442.823 241.586 443.901 245.674 C 445.919 253.330 446.315 258.035 445.136 260.351 C 444.159 262.274 440.960 279.415 440.630 284.500 C 440.558 285.600 440.257 286.725 439.960 287.000 C 439.663 287.275 438.894 289.264 438.251 291.420 C 437.239 294.816 437.311 295.511 438.791 296.620 C 440.334 297.776 440.291 297.848 438.349 297.360 C 436.583 296.915 436.078 297.368 435.524 299.893 C 435.152 301.583 434.921 303.261 435.010 303.622 C 435.098 303.982 434.743 304.552 434.220 304.888 C 432.737 305.842 429.012 313.678 429.710 314.376 C 430.053 314.719 429.733 315.000 429.000 315.000 C 428.267 315.000 427.929 315.262 428.250 315.583 C 428.571 315.904 427.954 317.046 426.880 318.120 C 425.806 319.194 425.166 320.459 425.458 320.932 C 425.750 321.404 425.216 322.087 424.272 322.449 C 422.801 323.013 422.766 323.241 424.028 324.038 C 425.296 324.840 425.279 324.971 423.910 324.985 C 422.203 325.001 412.507 336.680 412.489 338.741 C 412.484 339.424 412.104 339.943 411.646 339.894 C 410.345 339.755 405.071 345.153 405.297 346.392 C 405.409 347.001 404.872 347.366 404.105 347.202 C 402.297 346.815 396.878 351.994 397.700 353.323 C 398.073 353.927 397.682 354.092 396.737 353.729 C 395.862 353.394 394.608 353.767 393.951 354.559 C 393.293 355.352 393.062 356.000 393.437 356.000 C 393.811 356.000 393.754 356.522 393.309 357.160 C 392.695 358.041 392.560 358.041 392.750 357.160 C 393.086 355.601 392.391 355.697 389.465 357.615 C 388.109 358.503 386.968 360.191 386.930 361.365 C 386.864 363.368 386.813 363.381 386.105 361.575 C 385.374 359.708 385.285 359.715 383.175 361.825 C 381.979 363.021 380.851 363.888 380.669 363.750 C 380.487 363.613 377.998 364.596 375.137 365.936 C 371.111 367.822 369.989 368.837 370.167 370.436 C 370.350 372.085 370.243 372.171 369.635 370.863 C 368.492 368.407 361.658 370.585 362.339 373.188 C 362.600 374.185 362.405 375.000 361.906 375.000 C 361.408 375.000 361.000 374.385 361.000 373.634 C 361.000 372.502 360.012 372.537 355.250 373.836 C 352.088 374.699 349.213 375.821 348.862 376.330 C 348.511 376.840 347.764 376.972 347.202 376.625 C 345.670 375.678 342.910 377.040 343.698 378.355 C 344.097 379.020 343.714 378.958 342.785 378.205 C 341.509 377.171 339.851 377.142 334.593 378.057 C 328.555 379.109 325.849 380.761 329.500 381.167 C 331.944 381.438 328.570 381.382 325.250 381.096 C 322.776 380.883 322.701 380.773 324.500 380.000 C 325.881 379.406 324.489 379.149 320.000 379.168 L 313.500 379.196 318.000 380.423 L 322.500 381.650 315.500 381.511 C 310.466 381.410 309.202 381.149 311.000 380.579 C 313.103 379.912 312.389 379.561 306.500 378.368 C 302.650 377.588 298.825 377.232 298.000 377.576 C 297.175 377.920 296.725 378.150 297.000 378.086 C 297.668 377.930 294.703 376.035 293.762 376.015 C 293.356 376.007 293.130 377.013 293.260 378.250 C 293.438 379.934 293.282 379.808 292.640 377.750 C 292.028 375.786 291.120 375.000 289.463 375.000 C 288.187 375.000 286.436 374.293 285.571 373.429 C 283.987 371.844 283.508 372.514 283.922 375.733 C 284.187 377.796 276.835 394.016 275.898 393.437 C 275.417 393.139 275.273 393.547 275.578 394.342 C 276.294 396.208 269.241 410.267 267.979 409.487 C 267.429 409.147 267.302 409.624 267.681 410.612 C 268.164 411.868 267.985 412.109 267.015 411.510 C 266.149 410.974 265.930 411.078 266.383 411.811 C 267.368 413.405 263.188 421.234 261.807 420.381 C 261.137 419.966 260.971 420.144 261.392 420.825 C 261.777 421.448 261.509 422.958 260.796 424.179 L 259.500 426.399 260.000 424.039 C 260.334 422.463 260.203 422.110 259.607 422.975 C 259.116 423.689 258.611 425.223 258.485 426.386 C 258.358 427.549 258.146 428.275 258.012 428.000 C 257.879 427.725 257.709 428.174 257.635 428.997 C 257.561 429.821 256.900 430.496 256.167 430.497 C 255.433 430.499 255.139 430.806 255.513 431.180 C 256.258 431.925 250.372 441.000 249.143 441.000 C 248.191 441.000 244.318 438.117 245.000 437.916 C 245.275 437.836 244.826 437.709 244.003 437.635 C 243.179 437.561 242.448 436.938 242.378 436.250 C 242.213 434.633 242.000 433.789 242.000 434.750 C 242.000 436.041 239.507 435.566 239.375 434.250 C 239.306 433.563 239.140 432.888 239.007 432.750 C 238.873 432.613 238.816 432.838 238.882 433.250 C 239.122 434.771 237.212 433.942 236.575 432.250 C 236.213 431.288 235.936 430.838 235.959 431.250 C 236.056 433.017 234.181 431.802 233.645 429.750 C 233.321 428.513 233.044 427.950 233.028 428.500 C 232.987 429.959 230.523 429.726 230.375 428.250 C 230.306 427.563 230.140 426.888 230.007 426.750 C 229.873 426.613 229.816 426.838 229.882 427.250 C 230.084 428.531 228.307 428.074 227.011 426.513 C 225.748 424.992 226.463 421.130 227.766 422.433 C 228.161 422.828 228.488 422.331 228.492 421.328 C 228.497 420.326 229.100 419.504 229.833 419.503 C 230.567 419.501 230.868 419.201 230.502 418.836 C 229.543 417.876 231.921 413.833 233.039 414.524 C 233.555 414.843 233.709 414.406 233.382 413.552 C 232.976 412.495 233.378 411.995 234.643 411.985 C 236.061 411.973 236.180 411.767 235.148 411.113 C 234.060 410.423 234.158 409.987 235.648 408.878 C 236.667 408.120 237.500 406.825 237.500 406.000 C 237.500 405.175 238.046 404.607 238.714 404.738 C 239.413 404.875 239.687 404.348 239.360 403.496 C 239.044 402.672 239.474 401.755 240.333 401.426 C 241.246 401.075 241.626 400.190 241.267 399.253 C 240.833 398.122 241.037 397.905 241.985 398.490 C 242.857 399.030 243.070 398.922 242.608 398.175 C 241.647 396.619 243.837 392.781 245.205 393.627 C 245.874 394.040 246.026 393.851 245.590 393.146 C 244.486 391.360 245.930 388.004 247.817 387.970 C 249.220 387.944 249.168 387.747 247.500 386.780 C 246.400 386.142 245.838 385.706 246.250 385.810 C 247.337 386.085 250.942 382.275 250.250 381.583 C 249.929 381.262 250.304 380.993 251.083 380.985 C 252.250 380.972 252.235 380.798 251.000 380.000 C 249.749 379.191 249.822 379.028 251.441 379.015 C 253.363 379.000 253.363 378.985 251.441 377.550 C 249.586 376.163 249.606 376.126 251.906 376.707 C 253.508 377.112 254.088 376.951 253.640 376.227 C 253.270 375.628 253.432 374.851 254.000 374.500 C 254.568 374.149 254.774 373.443 254.457 372.931 C 254.141 372.419 254.445 372.000 255.132 372.000 C 255.826 372.000 255.518 371.331 254.441 370.498 C 253.010 369.389 252.933 369.145 254.149 369.566 C 255.056 369.880 256.095 369.656 256.458 369.068 C 256.821 368.481 256.416 368.000 255.559 368.000 C 254.702 368.000 254.000 367.592 254.000 367.094 C 254.000 366.595 254.970 366.441 256.156 366.751 C 257.730 367.163 258.101 366.972 257.528 366.046 C 257.070 365.305 257.318 364.406 258.122 363.888 C 259.281 363.141 259.266 362.849 258.026 362.053 C 257.044 361.421 256.299 361.505 255.792 362.303 C 255.273 363.119 255.026 362.954 255.015 361.785 C 255.001 360.161 251.996 357.820 250.291 358.105 C 249.856 358.177 249.668 358.184 249.872 358.118 C 250.077 358.053 249.707 357.352 249.049 356.559 C 248.392 355.767 247.138 355.394 246.263 355.729 C 245.286 356.104 244.924 355.932 245.325 355.283 C 245.684 354.702 245.308 353.671 244.489 352.991 C 243.670 352.311 243.000 352.096 243.000 352.512 C 243.000 352.929 242.064 352.080 240.920 350.625 C 239.776 349.171 238.508 348.186 238.102 348.437 C 237.187 349.002 232.000 344.296 232.000 342.901 C 232.000 342.340 231.622 342.116 231.159 342.402 C 230.696 342.688 229.275 341.477 228.001 339.711 L 225.683 336.500 228.571 339.000 C 230.479 340.652 230.109 339.970 227.479 336.990 C 225.291 334.509 221.925 330.361 220.000 327.771 C 218.075 325.181 215.825 323.012 215.000 322.952 C 213.978 322.877 213.896 322.682 214.742 322.340 C 216.503 321.629 214.441 318.024 212.215 317.921 C 211.272 317.878 210.993 317.638 211.596 317.389 C 212.278 317.107 211.240 313.912 208.846 308.925 C 206.730 304.519 205.000 300.483 205.000 299.957 C 205.000 299.430 204.213 298.993 203.250 298.985 C 202.061 298.974 201.885 298.725 202.701 298.206 C 204.421 297.113 200.388 284.036 197.622 281.737 C 195.858 280.271 195.810 280.084 197.337 280.627 C 198.835 281.160 199.111 280.840 198.837 278.890 C 198.554 276.882 198.979 276.447 201.500 276.166 C 203.150 275.983 205.365 275.083 206.422 274.166 C 207.479 273.250 207.993 273.097 207.565 273.827 C 206.408 275.800 216.113 274.165 217.824 272.099 C 218.552 271.220 218.863 271.063 218.515 271.750 C 218.090 272.589 218.723 273.000 220.441 273.000 C 221.848 273.000 223.000 272.520 223.000 271.933 C 223.000 270.598 226.884 271.741 228.775 273.632 C 230.487 275.344 228.884 275.455 227.071 273.750 C 225.977 272.721 225.862 273.007 226.419 275.367 C 226.792 276.943 227.356 279.531 227.673 281.117 C 227.990 282.702 228.630 284.000 229.094 284.000 C 229.558 284.000 229.678 284.675 229.362 285.500 C 229.045 286.325 229.311 287.000 229.952 287.000 C 230.593 287.000 230.867 287.406 230.561 287.902 C 229.835 289.076 238.803 307.000 240.115 307.000 C 240.667 307.000 240.838 307.453 240.496 308.007 C 240.153 308.561 240.577 309.284 241.437 309.614 C 242.296 309.944 243.000 310.811 243.000 311.541 C 243.000 313.271 258.966 330.139 259.999 329.501 C 260.434 329.232 261.048 329.684 261.364 330.506 C 261.679 331.328 262.518 332.000 263.228 332.000 C 263.938 332.000 265.011 332.788 265.612 333.750 C 266.213 334.713 266.659 335.457 266.602 335.404 C 266.546 335.351 267.118 334.563 267.872 333.654 C 268.764 332.579 268.852 332.000 268.122 332.000 C 267.505 332.000 267.000 331.523 267.000 330.941 C 267.000 330.359 267.403 330.131 267.895 330.435 C 269.312 331.311 269.970 328.381 268.672 326.975 C 267.769 325.998 267.787 325.869 268.750 326.412 C 269.940 327.084 270.420 325.981 270.092 323.325 C 270.012 322.679 270.410 321.865 270.976 321.515 C 271.681 321.079 271.678 320.267 270.968 318.939 C 270.150 317.412 270.256 317.000 271.465 317.000 C 273.207 317.000 273.379 316.147 272.057 314.058 C 271.436 313.076 271.649 312.246 272.725 311.459 C 274.492 310.167 273.533 307.582 271.681 308.645 C 271.031 309.018 271.560 308.158 272.855 306.735 C 275.153 304.210 275.035 301.381 272.681 302.558 C 272.031 302.883 272.203 302.552 273.062 301.824 C 275.401 299.841 276.190 296.933 274.832 295.297 C 273.890 294.162 273.907 293.675 274.912 293.054 C 276.337 292.174 276.594 288.812 275.526 285.000 C 275.035 283.244 275.117 282.911 275.803 283.881 C 277.276 285.963 278.276 278.274 277.068 274.158 C 276.034 270.634 276.664 265.000 278.093 265.000 C 278.556 265.000 278.956 242.950 278.981 216.000 C 279.017 177.213 278.763 166.984 277.763 166.921 C 276.762 166.858 276.759 166.738 277.750 166.338 C 278.666 165.968 279.000 162.114 279.000 151.917 C 279.000 144.263 278.663 137.999 278.250 137.998 C 277.838 137.997 277.637 144.077 277.804 151.509 C 278.062 162.973 277.874 165.111 276.560 165.615 C 275.708 165.942 275.247 166.591 275.535 167.057 C 276.099 167.970 265.989 171.323 265.163 170.497 C 264.890 170.223 265.192 169.933 265.833 169.850 C 266.475 169.768 266.550 169.700 266.000 169.700 C 263.687 169.700 262.914 170.051 263.421 170.872 C 263.717 171.351 261.831 172.543 259.230 173.520 C 244.901 178.903 223.768 191.194 210.502 201.860 C 206.653 204.955 203.038 207.380 202.469 207.250 C 201.900 207.119 198.299 210.272 194.467 214.256 L 187.500 221.500 194.954 214.500 L 202.408 207.500 194.827 215.610 C 185.870 225.193 176.869 236.382 172.000 243.987 C 170.075 246.994 168.444 248.902 168.375 248.227 C 168.306 247.552 168.140 247.338 168.007 247.750 C 167.873 248.163 167.798 248.781 167.840 249.124 C 167.940 249.943 155.094 274.652 154.907 274.000 C 154.828 273.725 154.834 273.890 154.920 274.366 C 155.006 274.842 154.337 277.170 153.432 279.539 C 152.527 281.908 152.129 284.400 152.548 285.078 C 152.986 285.787 152.896 286.054 152.335 285.707 C 151.126 284.960 146.626 298.583 147.408 300.622 C 147.771 301.567 147.562 301.847 146.832 301.396 C 146.020 300.894 145.858 301.676 146.274 304.095 L 146.861 307.500 145.475 304.500 C 143.841 300.959 143.609 302.102 144.968 307.007 C 145.876 310.286 145.840 310.377 144.370 308.500 C 142.892 306.610 142.847 306.693 143.569 310.000 C 144.785 315.572 144.612 317.818 143.262 314.000 L 142.023 310.500 142.565 314.500 C 142.863 316.700 143.303 319.400 143.543 320.500 C 143.784 321.600 143.321 321.150 142.515 319.500 C 141.090 316.581 141.062 316.662 141.510 322.500 C 141.825 326.610 141.699 327.712 141.110 326.000 C 140.548 324.367 140.356 326.796 140.557 333.000 C 140.780 339.930 140.652 341.283 140.082 338.000 C 139.534 334.847 139.298 337.840 139.292 348.000 C 139.287 357.356 139.551 361.081 140.038 358.500 L 140.791 354.500 140.646 358.500 L 140.500 362.500 135.618 362.154 C 132.826 361.957 130.451 362.271 130.069 362.889 C 129.626 363.605 126.646 363.756 121.201 363.336 L 113.000 362.704 113.000 345.230 C 113.000 328.151 114.456 313.777 117.519 300.605 C 118.273 297.362 118.498 295.112 118.018 295.605 C 117.538 296.097 116.139 301.450 114.909 307.500 C 113.055 316.619 112.615 322.545 112.336 342.155 C 112.151 355.165 111.675 365.290 111.278 364.655 C 110.591 363.556 110.402 362.943 109.696 359.529 C 109.528 358.720 109.109 357.776 108.765 357.431 C 108.420 357.086 108.362 356.219 108.637 355.503 C 108.912 354.788 108.648 353.901 108.052 353.532 C 107.455 353.163 107.238 352.423 107.570 351.887 C 107.901 351.351 107.745 350.370 107.222 349.706 C 106.700 349.043 106.235 347.825 106.190 347.000 C 106.145 346.175 105.839 344.150 105.511 342.500 C 105.183 340.850 104.906 338.721 104.894 337.770 C 104.882 336.818 104.444 335.774 103.920 335.451 C 103.396 335.127 103.226 334.443 103.543 333.931 C 103.859 333.419 103.811 332.504 103.436 331.897 C 103.061 331.290 102.590 328.704 102.389 326.151 C 102.187 323.597 101.568 321.356 101.013 321.171 C 100.448 320.983 100.289 319.697 100.651 318.253 C 101.201 316.062 101.028 315.775 99.508 316.358 C 97.993 316.940 97.912 316.810 98.985 315.517 C 99.841 314.486 100.031 312.608 99.568 309.745 C 90.902 256.141 91.058 194.297 99.997 140.126 C 101.659 130.048 101.803 127.461 100.769 126.188 C 99.688 124.858 99.772 124.727 101.329 125.312 C 102.935 125.914 103.075 125.617 102.472 122.874 C 101.982 120.643 102.114 119.952 102.933 120.459 C 103.738 120.956 103.887 120.396 103.432 118.584 C 103.022 116.950 103.198 116.000 103.911 116.000 C 104.614 116.000 104.802 115.059 104.411 113.500 C 104.008 111.895 104.204 111.000 104.959 111.000 C 105.680 111.000 105.889 110.226 105.500 109.000 C 105.131 107.838 105.320 107.000 105.952 107.000 C 106.602 107.000 106.794 106.028 106.431 104.580 L 105.823 102.159 114.162 103.999 C 130.805 107.671 131.912 108.102 130.979 110.555 C 129.554 114.304 125.198 137.996 121.520 162.000 C 121.309 163.375 120.840 167.650 120.478 171.500 C 120.115 175.350 119.663 179.895 119.474 181.600 C 116.742 206.202 117.245 255.455 120.481 280.324 C 120.683 281.877 120.245 285.476 119.506 288.322 C 118.768 291.169 118.321 293.655 118.514 293.847 C 119.071 294.404 122.000 283.878 122.000 281.318 C 122.000 280.043 122.498 279.000 123.107 279.000 C 123.716 279.000 123.966 278.354 123.663 277.565 C 123.360 276.775 123.650 275.948 124.306 275.727 C 125.191 275.429 125.139 274.888 124.107 273.638 C 123.342 272.711 123.004 271.663 123.357 271.309 C 123.711 270.956 124.000 271.192 124.000 271.833 C 124.000 272.475 124.477 273.000 125.059 273.000 C 125.641 273.000 125.859 272.581 125.543 272.069 C 125.226 271.557 125.432 270.851 126.000 270.500 C 126.568 270.149 126.774 269.443 126.457 268.931 C 126.141 268.419 126.385 268.000 127.000 268.000 C 127.615 268.000 127.859 267.581 127.543 267.069 C 127.226 266.557 127.432 265.851 128.000 265.500 C 128.568 265.149 128.774 264.443 128.457 263.931 C 128.141 263.419 128.385 263.000 129.000 263.000 C 129.615 263.000 129.840 262.550 129.500 262.000 C 129.160 261.450 129.385 261.000 130.000 261.000 C 130.615 261.000 130.840 260.550 130.500 260.000 C 130.160 259.450 130.407 259.000 131.048 259.000 C 131.691 259.000 131.947 258.304 131.618 257.448 C 131.229 256.434 131.425 256.144 132.181 256.612 C 132.955 257.090 133.128 256.775 132.701 255.664 C 132.350 254.749 132.525 254.000 133.090 254.000 C 133.656 254.000 133.840 253.550 133.500 253.000 C 133.160 252.450 133.385 252.000 134.000 252.000 C 134.615 252.000 134.840 251.550 134.500 251.000 C 134.160 250.450 134.347 250.000 134.915 250.000 C 135.484 250.000 136.649 248.645 137.505 246.990 C 138.532 245.005 138.665 244.068 137.896 244.240 C 137.254 244.383 138.201 242.925 140.000 241.000 C 141.799 239.075 142.740 237.619 142.093 237.764 C 141.221 237.960 141.242 237.439 142.172 235.764 C 142.991 234.289 143.454 234.022 143.500 235.000 C 143.546 235.978 144.009 235.711 144.828 234.236 C 145.824 232.443 145.827 232.026 144.843 232.236 C 144.160 232.381 144.703 231.841 146.050 231.035 C 147.398 230.230 147.932 229.555 147.238 229.535 C 146.472 229.514 147.062 228.004 148.738 225.694 C 151.156 222.363 151.313 222.275 150.000 224.991 C 149.042 226.973 149.744 226.361 151.945 223.297 C 153.840 220.658 154.668 219.084 153.784 219.799 C 152.546 220.799 152.008 220.821 151.435 219.894 C 151.014 219.213 151.112 218.951 151.660 219.290 C 152.591 219.865 163.368 206.969 163.625 204.972 C 163.694 204.438 163.806 204.321 163.875 204.712 C 163.944 205.104 166.333 203.192 169.185 200.462 C 173.015 196.796 172.398 197.720 166.822 204.000 L 159.274 212.500 167.526 204.000 C 172.064 199.325 175.490 195.613 175.138 195.750 C 174.787 195.888 174.500 195.438 174.500 194.750 C 174.500 194.063 175.194 193.547 176.043 193.604 C 176.891 193.662 180.941 190.471 185.043 186.513 L 192.500 179.317 184.500 186.344 C 178.931 191.234 177.855 191.946 180.958 188.685 C 183.410 186.108 185.210 183.947 184.958 183.882 C 184.706 183.816 184.752 183.788 185.061 183.818 C 185.369 183.849 188.744 181.374 192.561 178.318 C 204.445 168.802 224.407 155.915 222.511 158.982 C 222.122 159.612 224.595 158.637 228.008 156.814 L 234.214 153.500 228.998 155.500 C 224.376 157.272 224.589 157.073 230.866 153.750 C 237.581 150.195 242.329 148.454 237.000 151.500 C 233.987 153.222 234.912 153.453 238.422 151.854 C 239.805 151.223 240.732 150.376 240.482 149.971 C 239.924 149.068 249.967 144.633 250.764 145.430 C 251.077 145.744 250.808 146.068 250.167 146.150 C 249.525 146.233 249.450 146.300 250.000 146.300 C 252.347 146.300 253.082 145.942 252.540 145.064 C 252.221 144.549 255.096 143.118 258.928 141.884 C 262.760 140.650 265.625 139.201 265.293 138.665 C 264.955 138.119 265.208 138.011 265.870 138.420 C 267.251 139.273 273.444 138.111 272.508 137.174 C 272.158 136.825 273.493 136.679 275.475 136.850 L 279.077 137.160 278.788 115.579 L 278.500 93.998 292.209 93.999 L 305.918 94.000 306.209 113.501 M 327.000 349.000 C 325.625 349.440 322.475 349.775 320.000 349.743 L 315.500 349.686 320.500 349.000 C 327.764 348.004 330.111 348.004 327.000 349.000 M 414.289 257.833 C 413.726 259.955 413.548 259.479 413.418 255.500 C 413.293 251.664 413.458 251.043 414.126 252.833 C 414.605 254.116 414.678 256.366 414.289 257.833 M 120.606 215.998 C 120.468 219.910 119.000 219.912 119.000 216.000 C 119.000 214.350 119.385 213.000 119.856 213.000 C 120.328 213.000 120.665 214.349 120.606 215.998 M 249.000 315.408 C 249.000 315.733 248.523 316.000 247.941 316.000 C 247.359 316.000 247.141 315.581 247.458 315.068 C 247.774 314.556 247.129 313.503 246.023 312.729 C 244.917 311.954 244.295 311.039 244.639 310.694 C 245.236 310.098 249.000 314.166 249.000 315.408 M 120.068 256.333 C 120.031 255.142 120.563 253.990 121.250 253.774 C 122.236 253.463 122.250 253.921 121.318 255.940 C 120.215 258.328 120.131 258.354 120.068 256.333 M 91.885 203.309 L 91.770 206.500 91.049 202.793 C 90.653 200.753 90.705 199.318 91.164 199.602 C 91.624 199.886 91.948 201.554 91.885 203.309 "/></g>
<g fill="#FEFEFEFE" stroke="#FEFEFEFE">
<path d="M 320.000 145.402 L 320.000 158.804 326.250 159.459 C 344.506 161.373 359.115 166.326 372.738 175.219 C 409.024 198.907 424.890 244.813 410.955 285.795 C 400.797 315.666 377.323 338.137 346.297 347.690 C 338.152 350.198 336.203 350.398 320.000 350.393 C 306.796 350.389 301.362 350.004 297.864 348.826 L 293.228 347.264 289.041 360.225 C 286.737 367.354 284.999 373.329 285.177 373.504 C 285.863 374.179 297.859 376.904 305.193 378.052 C 320.696 380.478 346.534 377.469 362.841 371.338 C 399.069 357.718 428.070 326.735 438.510 290.500 C 445.215 267.225 445.529 246.487 439.525 223.435 C 429.261 184.030 397.909 150.769 358.915 137.919 C 348.958 134.637 334.225 132.010 325.750 132.004 L 320.000 132.000 320.000 145.402 "/></g>
<g fill="#E0DE30FE" stroke="#E0DE30FE">
<path d="M 265.340 141.555 C 206.317 159.512 156.342 203.599 130.861 260.188 C 118.694 287.211 113.000 314.368 113.000 345.378 L 113.000 363.000 119.250 362.993 C 122.688 362.989 128.538 362.699 132.250 362.348 L 139.000 361.711 139.000 349.816 C 139.000 267.276 189.466 195.954 266.918 169.036 L 277.500 165.358 277.781 152.510 C 277.936 145.444 277.711 139.324 277.281 138.911 C 276.852 138.497 271.478 139.687 265.340 141.555 "/></g>
<g fill="#8CE2E4FE" stroke="#8CE2E4FE">
<path d="M 105.079 113.250 C 91.106 178.459 89.370 246.210 99.978 312.386 C 102.491 328.061 110.122 362.770 111.571 365.114 C 111.807 365.497 112.161 355.165 112.357 342.155 C 112.727 317.602 113.424 311.807 118.269 293.000 C 120.416 284.667 120.609 282.521 119.841 275.529 C 114.724 228.983 117.986 170.864 128.505 121.143 C 129.943 114.347 130.978 108.645 130.806 108.473 C 130.294 107.961 110.261 103.000 108.706 103.000 C 107.700 103.000 106.622 106.047 105.079 113.250 "/></g>
<g fill="#D69AD8FE" stroke="#D69AD8FE">
<path d="M 278.562 265.750 C 275.743 309.775 267.196 346.076 251.346 381.343 C 246.655 391.781 234.791 413.536 229.967 420.548 L 227.127 424.675 237.605 431.838 C 243.367 435.777 248.461 439.000 248.924 439.000 C 250.577 439.000 262.226 419.625 270.310 403.431 C 284.562 374.880 291.819 353.902 298.481 322.000 C 302.852 301.068 303.934 292.409 304.694 272.250 L 305.307 256.000 292.247 256.000 L 279.187 256.000 278.562 265.750 "/></g>
<g fill="#820606FE" stroke="#820606FE">
<path d="M 278.729 130.250 C 278.854 150.188 278.967 186.413 278.979 210.750 L 279.000 255.000 292.503 255.000 L 306.005 255.000 305.830 174.500 L 305.655 94.000 292.077 94.000 L 278.500 94.000 278.729 130.250 "/></g>
<g fill="#FEFEFEFE" stroke="#FEFEFEFE">
<path d="M 211.000 274.408 C 196.549 276.874 197.450 275.372 201.651 290.000 C 207.690 311.029 220.427 331.436 237.000 346.632 C 242.074 351.284 256.760 362.000 258.062 362.000 C 258.530 362.000 260.826 356.080 263.164 348.845 L 267.414 335.690 263.957 333.153 C 257.482 328.401 244.426 314.519 239.717 307.381 C 234.635 299.677 227.595 283.092 226.503 276.250 C 226.130 273.913 225.301 272.062 224.662 272.138 C 224.023 272.213 217.875 273.235 211.000 274.408 "/></g>
<g fill="#E0DE30FE" stroke="#E0DE30FE">
<path d="M 311.000 132.900 L 306.500 133.500 306.220 146.886 L 305.940 160.271 309.720 159.647 C 311.799 159.303 314.963 159.017 316.750 159.011 L 320.000 159.000 320.000 145.500 C 320.000 130.217 320.967 131.572 311.000 132.900 "/></g>
<g fill="#FE4E4EFE" stroke="#FE4E4EFE">
<path d="M 243.694 179.804 L 234.888 184.500 244.507 180.021 C 249.796 177.557 253.759 175.444 253.312 175.324 C 252.866 175.205 248.537 177.221 243.694 179.804 "/></g>
<g fill="#020202FE" stroke="#020202FE">
<path d="M 242.689 179.303 L 234.878 183.500 243.508 179.523 C 248.254 177.336 251.769 175.447 251.319 175.326 C 250.868 175.205 246.985 176.995 242.689 179.303 "/></g>
<g fill="#FE4E4EFE" stroke="#FE4E4EFE">
<path d="M 225.563 190.235 L 217.824 195.500 225.903 190.574 C 230.346 187.865 233.829 185.496 233.642 185.309 C 233.456 185.122 229.820 187.339 225.563 190.235 "/></g>
<g fill="#FE4E4EFE" stroke="#FE4E4EFE">
<path d="M 242.801 437.172 C 248.898 441.191 249.158 441.266 250.801 439.468 C 252.406 437.712 252.403 437.683 250.737 438.938 C 249.207 440.091 248.253 439.787 243.503 436.633 C 240.493 434.635 237.686 433.004 237.265 433.009 C 236.844 433.014 239.336 434.887 242.801 437.172 "/></g>
<g fill="#FE4E4EFE" stroke="#FE4E4EFE">
<path d="M 271.931 402.583 L 268.500 410.138 272.314 402.967 C 274.412 399.022 275.956 395.622 275.745 395.412 C 275.534 395.201 273.818 398.428 271.931 402.583 "/></g>
<g fill="#FE4E4EFE" stroke="#FE4E4EFE">
<path d="M 159.686 264.033 C 157.588 267.978 156.044 271.378 156.255 271.588 C 156.466 271.799 158.182 268.572 160.069 264.417 L 163.500 256.862 159.686 264.033 "/></g>
<g fill="#FE4E4EFE" stroke="#FE4E4EFE">
<path d="M 230.682 153.802 L 223.864 157.500 231.509 154.026 C 235.713 152.115 238.781 150.451 238.327 150.328 C 237.872 150.205 234.432 151.768 230.682 153.802 "/></g>
<g fill="#FE4E4EFE" stroke="#FE4E4EFE">
<path d="M 150.111 286.138 C 148.950 289.576 148.033 292.863 148.074 293.444 C 148.115 294.025 149.237 291.384 150.567 287.576 C 151.898 283.768 152.814 280.480 152.604 280.270 C 152.393 280.060 151.272 282.701 150.111 286.138 "/></g>
<g fill="#FE4E4EFE" stroke="#FE4E4EFE">
<path d="M 444.551 254.994 C 444.635 258.277 444.996 260.671 445.352 260.315 C 446.261 259.405 446.133 251.758 445.184 250.263 C 444.751 249.582 444.467 251.712 444.551 254.994 "/></g>
<g fill="#020202FE" stroke="#020202FE">
<path d="M 159.185 263.023 C 157.361 266.422 156.045 269.378 156.259 269.592 C 156.474 269.807 157.966 267.026 159.575 263.414 L 162.500 256.845 159.185 263.023 "/></g>
<g fill="#FE4E4EFE" stroke="#FE4E4EFE">
<path d="M 229.959 417.777 C 225.058 425.844 225.088 426.676 230.009 419.163 C 232.292 415.678 233.992 412.659 233.788 412.455 C 233.584 412.251 231.861 414.646 229.959 417.777 "/></g>
<g fill="#FE4E4EFE" stroke="#FE4E4EFE">
<path d="M 276.755 267.848 C 276.332 269.752 276.443 271.909 277.012 272.848 C 277.750 274.067 277.946 273.189 277.756 269.500 C 277.513 264.763 277.461 264.676 276.755 267.848 "/></g>
<g fill="#FE4E4EFE" stroke="#FE4E4EFE">
<path d="M 195.000 214.961 L 189.500 220.551 195.000 214.961 L 200.500 209.370 195.000 214.961 "/></g>
<g fill="#020202FE" stroke="#020202FE">
<path d="M 223.207 190.774 L 217.915 194.500 223.016 191.500 C 225.822 189.850 228.204 188.173 228.309 187.774 C 228.414 187.375 226.118 188.725 223.207 190.774 "/></g>
<g fill="#FE4E4EFE" stroke="#FE4E4EFE">
<path d="M 172.295 242.345 C 170.532 244.756 168.957 247.287 168.795 247.968 C 168.633 248.649 170.075 246.677 172.000 243.584 C 175.329 238.235 175.344 238.174 172.295 242.345 "/></g>
<g fill="#020202FE" stroke="#020202FE">
<path d="M 216.221 162.799 L 211.942 165.500 216.048 163.500 C 218.307 162.400 220.232 161.185 220.327 160.799 C 220.422 160.414 218.574 161.314 216.221 162.799 "/></g>
<g fill="#D69AD8FE" stroke="#D69AD8FE">
<path d="M 119.000 216.000 C 119.000 219.912 120.468 219.910 120.606 215.998 C 120.665 214.349 120.328 213.000 119.856 213.000 C 119.385 213.000 119.000 214.350 119.000 216.000 "/></g>
<g fill="#020202FE" stroke="#020202FE">
<path d="M 172.310 240.801 C 171.105 242.363 169.980 244.227 169.810 244.943 C 169.639 245.660 170.625 244.382 172.000 242.104 C 173.971 238.838 174.037 238.562 172.310 240.801 "/></g>
<g fill="#FE4E4EFE" stroke="#FE4E4EFE">
<path d="M 271.000 168.500 C 269.075 169.241 268.175 169.862 269.000 169.879 C 269.825 169.896 271.850 169.292 273.500 168.536 C 277.362 166.768 275.566 166.742 271.000 168.500 "/></g>
<g fill="#FE4E4EFE" stroke="#FE4E4EFE">
<path d="M 306.618 131.809 C 306.343 132.255 308.004 132.311 310.309 131.935 L 314.500 131.250 310.809 131.125 C 308.779 131.056 306.893 131.364 306.618 131.809 "/></g>
<g fill="#FE5858FE" stroke="#FE5858FE">
<path d="M 175.299 194.500 L 172.333 197.500 175.299 194.500 L 178.265 191.500 175.299 194.500 "/></g>
<g fill="#FE4E4EFE" stroke="#FE4E4EFE">
<path d="M 242.676 395.966 C 241.673 397.737 241.045 399.379 241.281 399.614 C 241.517 399.850 242.337 398.401 243.105 396.394 L 244.500 392.745 242.676 395.966 "/></g>
<g fill="#FE4E4EFE" stroke="#FE4E4EFE">
<path d="M 324.500 380.000 C 322.728 380.762 322.813 380.867 325.250 380.930 C 326.763 380.968 328.000 380.550 328.000 380.000 C 328.000 378.826 327.231 378.826 324.500 380.000 "/></g>
<g fill="#FE4E4EFE" stroke="#FE4E4EFE">
<path d="M 312.446 380.088 C 312.136 380.589 313.371 380.961 315.191 380.914 L 318.500 380.828 315.755 380.002 C 314.186 379.530 312.768 379.567 312.446 380.088 "/></g>
<g fill="#FE4E4EFE" stroke="#FE4E4EFE">
<path d="M 232.455 344.002 C 232.775 344.826 234.130 346.175 235.466 347.000 C 237.487 348.248 237.389 347.996 234.884 345.502 C 233.227 343.853 232.134 343.178 232.455 344.002 "/></g>
<g fill="#FE4E4EFE" stroke="#FE4E4EFE">
<path d="M 228.072 339.808 C 229.386 341.627 230.591 342.726 230.750 342.250 C 230.909 341.774 229.834 340.286 228.361 338.942 L 225.683 336.500 228.072 339.808 "/></g>
</svg>
