<?xml version="1.0" encoding="utf-8"?>
<!DOCTYPE svg PUBLIC "-//W3C//DTD SVG 20010904//EN" "http://www.w3.org/TR/2001/REC-SVG-20010904/DTD/svg10.dtd">
<svg version="1.0" xmlns="http://www.w3.org/2000/svg" width="514pt" height="514pt" viewBox="0 0 514 514" style="" preserveAspectRatio="xMidYMid meet">
<g fill="#000000FE" stroke="#000000FE">
<path d="M 239.000 9.584 C 237.075 9.808 231.225 10.473 226.000 11.062 C 220.775 11.651 209.975 13.646 202.000 15.496 C 143.733 29.008 93.520 61.772 58.190 109.331 C 40.044 133.758 25.647 163.523 17.720 193.000 C 6.455 234.886 6.405 280.313 17.577 321.500 C 33.757 381.144 68.682 429.835 120.322 464.739 C 130.574 471.669 151.646 482.770 164.394 487.957 C 234.878 516.636 317.796 510.670 382.908 472.234 C 424.737 447.542 458.528 411.463 479.594 369.000 C 491.627 344.746 499.888 318.764 503.672 293.274 C 506.114 276.822 506.114 238.178 503.672 221.726 C 498.765 188.671 484.936 151.458 467.540 124.500 C 444.323 88.522 411.009 57.502 375.500 38.799 C 348.822 24.747 318.088 14.704 290.500 11.024 C 282.166 9.912 245.093 8.876 239.000 9.584 M 304.965 109.934 C 305.547 111.022 306.000 118.461 306.000 126.934 L 306.000 142.000 317.816 142.000 C 332.000 142.000 338.148 143.000 352.056 147.568 C 398.271 162.750 429.978 207.113 429.996 256.619 C 430.008 286.844 417.970 315.989 396.784 337.034 C 376.480 357.201 356.258 366.997 327.250 370.715 C 315.993 372.158 314.007 372.150 302.750 370.626 C 296.013 369.713 289.150 368.721 287.500 368.420 C 284.683 367.907 284.385 368.168 282.616 372.687 C 277.274 386.337 259.000 419.857 254.386 424.472 C 253.545 425.312 252.000 426.000 250.952 426.000 C 248.840 426.000 228.986 412.727 227.724 410.471 C 226.886 408.973 227.093 408.535 234.571 396.000 C 240.304 386.391 249.128 369.106 252.355 361.165 L 254.866 354.984 248.859 350.904 C 228.870 337.330 211.653 313.737 205.061 290.888 C 201.225 277.592 201.078 273.301 204.415 272.032 C 209.116 270.245 230.934 267.534 232.004 268.604 C 232.564 269.164 233.939 272.930 235.059 276.971 C 239.298 292.269 249.117 308.651 259.548 317.834 C 263.689 321.478 266.000 322.841 266.000 321.638 C 266.000 321.438 267.088 315.926 268.419 309.388 C 269.749 302.849 271.376 293.225 272.034 288.000 C 273.274 278.151 274.691 185.244 273.643 182.513 C 273.160 181.253 271.501 181.578 263.327 184.537 C 251.974 188.647 240.135 194.866 227.500 203.358 C 216.027 211.069 195.743 231.322 186.795 244.000 C 166.560 272.672 156.000 306.022 156.000 341.256 C 156.000 350.996 155.678 354.023 154.540 354.967 C 153.736 355.634 148.899 356.562 143.790 357.029 C 138.680 357.497 132.980 358.342 131.122 358.907 C 124.730 360.850 124.267 360.038 118.646 337.000 C 115.966 326.015 112.282 304.547 109.295 282.500 C 106.722 263.503 106.717 197.426 109.289 178.000 C 112.047 157.158 116.656 130.295 119.107 120.767 C 120.610 114.926 122.340 114.577 134.715 117.615 C 149.926 121.349 149.704 121.021 146.504 135.080 C 143.796 146.975 140.035 171.902 137.841 192.500 C 136.261 207.331 136.098 261.498 137.628 263.028 C 138.361 263.761 139.771 261.652 142.303 256.034 C 158.719 219.608 191.036 185.154 227.000 165.735 C 239.700 158.877 251.279 153.991 263.000 150.543 L 273.500 147.454 273.757 128.977 C 273.899 118.815 274.222 109.938 274.476 109.250 C 274.816 108.329 278.749 108.000 289.433 108.000 C 302.742 108.000 304.014 108.158 304.965 109.934 "/></g>
<g fill="#000000FE" stroke="#000000FE">
<path d="M 305.982 212.250 C 305.953 274.042 304.424 295.266 297.972 323.422 C 296.344 330.530 295.140 336.474 295.298 336.631 C 296.540 337.874 312.155 339.146 320.000 338.643 C 340.003 337.362 356.352 330.164 371.229 316.087 C 388.697 299.558 397.258 279.762 397.212 256.000 C 397.150 224.241 379.475 196.383 350.458 182.313 C 339.749 177.121 326.276 174.032 314.250 174.013 L 306.000 174.000 305.982 212.250 "/></g>
<g fill="#FEFEFEFE" stroke="#FEFEFEFE">
<path d="M 315.000 157.855 L 315.000 170.000 319.542 170.000 C 326.586 170.000 338.664 172.828 347.872 176.632 C 370.195 185.856 387.775 204.198 396.390 227.254 C 403.654 246.694 402.841 270.280 394.199 290.849 C 378.973 327.087 337.440 349.125 298.978 341.375 C 294.544 340.482 290.783 339.919 290.621 340.125 C 289.927 341.006 283.142 362.476 283.458 362.791 C 284.460 363.794 295.733 366.020 304.713 366.990 C 342.826 371.104 383.235 352.471 405.521 320.506 C 436.239 276.448 431.920 218.343 395.052 179.675 C 376.214 159.917 350.688 147.791 324.750 146.278 L 315.000 145.709 315.000 157.855 "/></g>
<g fill="#E0DE30FE" stroke="#E0DE30FE">
<path d="M 273.500 151.781 C 266.437 153.318 248.561 160.125 237.500 165.488 C 198.087 184.597 167.692 214.795 147.595 254.811 C 134.447 280.989 127.297 313.477 128.184 343.000 L 128.500 353.500 136.500 353.210 C 140.900 353.050 146.188 352.673 148.250 352.372 L 152.000 351.824 152.000 339.290 C 152.000 267.409 197.844 203.197 266.406 179.045 L 276.500 175.490 276.784 164.079 C 276.941 157.803 276.716 152.371 276.284 152.007 C 275.853 151.643 274.600 151.541 273.500 151.781 "/></g>
<g fill="#8CE2E4FE" stroke="#8CE2E4FE">
<path d="M 123.444 120.349 C 122.533 122.867 118.025 145.078 116.530 154.417 C 112.930 176.907 111.788 191.436 111.280 221.215 C 110.543 264.488 112.871 290.262 121.018 329.000 C 126.631 355.686 126.810 355.989 126.932 339.000 C 127.049 322.790 128.753 308.855 132.573 292.880 C 135.079 282.397 135.113 281.793 133.951 268.316 C 132.243 248.523 132.482 207.836 134.422 188.000 C 136.097 170.884 139.681 147.704 142.926 133.000 C 143.958 128.325 144.708 124.398 144.592 124.274 C 144.477 124.150 139.765 122.957 134.121 121.624 C 126.820 119.898 123.741 119.531 123.444 120.349 "/></g>
<g fill="#D69AD8FE" stroke="#D69AD8FE">
<path d="M 277.567 265.750 C 275.596 293.902 271.952 318.005 268.307 327.000 C 267.973 327.825 267.528 329.400 267.319 330.500 C 266.385 335.412 257.585 359.914 253.407 369.235 C 248.557 380.053 239.611 396.648 234.838 403.680 C 233.277 405.979 232.000 408.233 232.000 408.688 C 232.000 409.143 236.287 412.395 241.526 415.913 C 252.583 423.338 250.503 424.181 259.821 408.500 C 266.547 397.183 272.260 385.988 276.918 375.000 C 278.667 370.875 280.925 365.700 281.936 363.500 C 286.899 352.697 294.835 322.660 298.053 302.500 C 299.194 295.350 300.387 282.188 300.704 273.250 L 301.280 257.000 289.730 257.000 L 278.180 257.000 277.567 265.750 "/></g>
<g fill="#820606FE" stroke="#820606FE">
<path d="M 277.982 111.250 C 277.954 111.655 277.950 173.299 277.976 216.250 L 278.000 256.000 290.000 256.000 L 302.000 256.000 302.000 183.500 L 302.000 111.000 290.000 111.000 C 283.400 111.000 277.992 111.113 277.982 111.250 "/></g>
<g fill="#FEFEFEFE" stroke="#FEFEFEFE">
<path d="M 216.500 273.913 C 207.826 275.348 206.460 275.840 206.202 277.621 C 205.796 280.416 211.549 298.127 215.251 305.481 C 220.780 316.463 227.307 325.419 236.444 334.559 C 244.438 342.557 256.691 352.000 259.074 352.000 C 259.539 352.000 261.602 346.752 263.659 340.338 L 267.397 328.676 264.948 327.159 C 263.602 326.325 258.641 321.785 253.925 317.071 C 242.227 305.378 234.630 292.131 231.040 277.167 C 230.142 273.422 229.346 272.035 228.150 272.129 C 227.243 272.199 222.000 273.002 216.500 273.913 "/></g>
<g fill="#00000002" stroke="#00000002">
<path d="M 236.500 7.053 C 219.343 8.479 184.263 15.636 178.267 18.934 C 177.295 19.468 173.575 20.873 170.000 22.055 C 166.425 23.237 161.074 25.326 158.109 26.698 C 155.145 28.069 150.654 30.077 148.130 31.159 C 145.605 32.241 143.306 33.435 143.020 33.813 C 142.734 34.191 140.250 35.547 137.500 36.826 C 132.229 39.278 129.167 41.151 117.000 49.363 C 84.679 71.180 56.348 101.731 38.979 133.500 C 31.254 147.629 26.879 156.874 24.074 165.000 C 22.840 168.575 21.420 171.993 20.920 172.596 C 20.105 173.579 16.228 187.005 12.429 202.000 C 10.687 208.877 7.962 227.990 8.112 232.284 C 8.174 234.053 8.850 230.612 9.616 224.639 C 13.790 192.069 27.248 154.475 44.922 126.018 C 63.270 96.474 90.041 68.828 119.000 49.517 C 164.762 19.001 221.148 3.936 274.500 7.970 C 336.931 12.690 393.259 38.730 436.044 82.650 C 462.440 109.745 480.671 138.736 493.144 173.445 C 498.836 189.285 505.733 218.781 506.135 229.000 C 506.238 231.626 506.386 231.898 506.727 230.089 C 507.307 227.013 504.272 205.887 502.484 200.553 C 501.737 198.324 500.153 192.450 498.964 187.500 C 497.775 182.550 495.766 176.025 494.500 173.000 C 493.233 169.975 491.159 164.800 489.890 161.500 C 487.333 154.847 474.545 129.357 472.583 127.000 C 471.896 126.175 469.935 123.173 468.225 120.329 C 466.515 117.485 464.430 114.335 463.592 113.329 C 462.753 112.323 461.040 110.068 459.784 108.317 C 452.315 97.909 447.295 92.139 435.583 80.500 C 420.766 65.777 419.203 64.380 409.500 57.188 C 397.271 48.124 394.583 46.280 391.000 44.499 C 389.075 43.542 386.825 42.206 386.000 41.530 C 384.415 40.231 371.236 33.349 359.500 27.693 C 355.650 25.837 349.350 23.307 345.500 22.071 C 341.650 20.834 337.108 19.200 335.407 18.439 C 333.706 17.678 328.306 16.144 323.407 15.031 C 318.508 13.918 312.250 12.338 309.500 11.521 C 296.453 7.643 257.836 5.280 236.500 7.053 "/></g>
<g fill="#00000002" stroke="#00000002">
<path d="M 507.185 273.699 C 506.384 300.548 496.645 337.379 482.686 366.351 C 463.322 406.540 432.548 441.742 395.316 466.292 C 367.593 484.571 334.364 497.836 300.500 504.141 C 293.284 505.485 292.170 505.854 296.500 505.467 C 304.424 504.758 321.597 501.322 326.000 499.564 C 327.925 498.796 333.541 496.958 338.479 495.480 C 343.417 494.002 348.355 492.164 349.452 491.396 C 350.548 490.628 352.043 490.000 352.775 490.000 C 354.573 490.000 376.045 479.705 383.500 475.269 C 388.633 472.214 397.080 466.722 405.447 461.000 C 408.986 458.579 421.411 448.752 422.500 447.511 C 423.050 446.885 426.530 443.637 430.232 440.294 C 437.805 433.456 451.761 417.827 458.521 408.613 C 460.988 405.251 463.356 402.050 463.782 401.500 C 467.723 396.414 475.069 384.045 481.003 372.506 C 487.361 360.141 489.892 354.284 495.697 338.500 C 502.438 320.169 508.664 286.262 507.743 272.902 L 507.370 267.500 507.185 273.699 "/></g>
<g fill="#00000002" stroke="#00000002">
<path d="M 9.086 292.000 C 8.964 295.917 11.860 313.069 13.392 317.500 C 14.152 319.700 16.001 326.000 17.500 331.500 C 18.999 337.000 20.549 341.950 20.944 342.500 C 21.339 343.050 22.657 346.298 23.873 349.717 C 27.205 359.088 38.803 382.482 43.705 389.721 C 50.384 399.584 58.254 410.751 61.615 415.133 C 72.382 429.177 94.646 450.212 110.500 461.320 C 114.900 464.403 119.604 467.730 120.954 468.713 C 127.042 473.145 155.566 487.949 161.000 489.496 C 162.375 489.888 164.472 490.820 165.659 491.568 C 170.418 494.564 202.375 503.494 211.500 504.377 L 217.500 504.958 210.966 503.582 C 152.652 491.300 103.242 462.248 66.259 418.500 C 57.200 407.783 43.942 388.324 37.171 375.806 C 25.160 353.598 15.784 326.300 10.963 299.500 C 9.973 294.000 9.129 290.625 9.086 292.000 "/></g>
<g fill="#E0DE30FE" stroke="#E0DE30FE">
<path d="M 304.750 146.689 C 303.209 147.092 303.000 148.544 302.998 158.823 L 302.996 170.500 308.748 170.176 L 314.500 169.851 314.191 157.926 L 313.882 146.000 310.191 146.116 C 308.161 146.180 305.713 146.438 304.750 146.689 "/></g>
<g fill="#00000002" stroke="#00000002">
<path d="M 222.000 506.032 C 234.249 508.609 242.715 509.158 263.500 508.721 C 276.985 508.438 286.468 507.814 288.000 507.108 C 290.058 506.161 289.173 506.045 283.000 506.457 C 259.489 508.022 254.328 508.108 242.445 507.134 C 235.265 506.545 226.715 505.843 223.445 505.574 C 217.718 505.103 217.665 505.119 222.000 506.032 "/></g>
<g fill="#00000002" stroke="#00000002">
<path d="M 6.756 249.000 C 6.347 256.425 6.399 266.325 6.872 271.000 C 7.564 277.835 7.710 275.190 7.616 257.500 C 7.502 235.818 7.489 235.695 6.756 249.000 "/></g>
<g fill="#FEEEEEFE" stroke="#FEEEEEFE">
<path d="M 112.044 173.000 C 110.649 182.772 110.295 189.000 111.133 189.000 C 111.610 189.000 112.058 187.088 112.130 184.750 C 112.416 175.366 112.382 170.631 112.044 173.000 "/></g>
<g fill="#FEE2E2FE" stroke="#FEE2E2FE">
<path d="M 114.637 154.716 C 114.291 156.797 113.772 159.738 113.484 161.250 C 113.196 162.763 113.362 164.000 113.851 164.000 C 114.341 164.000 115.052 161.253 115.432 157.895 C 116.200 151.109 115.622 148.798 114.637 154.716 "/></g>
<g fill="#FE6666FE" stroke="#FE6666FE">
<path d="M 269.100 318.217 C 268.330 321.673 267.263 325.063 266.728 325.750 C 266.082 326.579 266.120 327.000 266.839 327.000 C 268.084 327.000 269.940 320.797 270.273 315.524 C 270.413 313.309 269.964 314.340 269.100 318.217 "/></g>
<g fill="#FEE2E2FE" stroke="#FEE2E2FE">
<path d="M 112.903 291.000 C 112.620 292.375 112.932 295.525 113.596 298.000 C 114.970 303.120 115.284 300.210 114.135 293.000 C 113.555 289.360 113.319 288.978 112.903 291.000 "/></g>
<g fill="#FE6666FE" stroke="#FE6666FE">
<path d="M 299.533 295.533 C 299.143 299.177 299.034 302.367 299.291 302.624 C 299.547 302.881 300.077 300.110 300.467 296.467 C 300.857 292.823 300.966 289.633 300.709 289.376 C 300.453 289.119 299.923 291.890 299.533 295.533 "/></g>
<g fill="#FE6666FE" stroke="#FE6666FE">
<path d="M 184.000 201.966 L 177.500 208.547 184.000 201.966 L 190.500 195.385 184.000 201.966 "/></g>
<g fill="#000000BE" stroke="#000000BE">
<path d="M 81.500 433.500 L 88.000 440.000 81.500 433.500 L 75.000 427.000 81.500 433.500 "/></g>
<g fill="#FEF2F2FE" stroke="#FEF2F2FE">
<path d="M 110.062 195.000 C 109.288 196.344 109.396 202.127 110.204 202.626 C 110.732 202.952 110.959 201.340 110.737 198.847 C 110.524 196.456 110.220 194.725 110.062 195.000 "/></g>
<g fill="#FE6666FE" stroke="#FE6666FE">
<path d="M 272.615 299.615 C 272.249 302.732 272.149 305.482 272.392 305.726 C 272.636 305.969 273.152 303.635 273.538 300.538 C 273.925 297.442 274.026 294.692 273.762 294.428 C 273.498 294.164 272.982 296.498 272.615 299.615 "/></g>
<g fill="#FEF2F2FE" stroke="#FEF2F2FE">
<path d="M 108.000 222.000 C 108.000 223.650 108.420 225.000 108.933 225.000 C 109.446 225.000 109.828 223.650 109.781 222.000 C 109.734 220.350 109.314 219.000 108.848 219.000 C 108.382 219.000 108.000 220.350 108.000 222.000 "/></g>
<g fill="#FEF4F4FE" stroke="#FEF4F4FE">
<path d="M 109.000 207.667 C 109.000 210.233 109.163 212.146 109.362 211.917 C 110.239 210.909 110.720 203.000 109.905 203.000 C 109.407 203.000 109.000 205.100 109.000 207.667 "/></g>
<g fill="#FEF2F2FE" stroke="#FEF2F2FE">
<path d="M 110.072 257.000 C 109.478 260.799 109.488 264.171 110.097 265.156 C 110.463 265.749 110.660 263.819 110.535 260.867 C 110.409 257.915 110.201 256.175 110.072 257.000 "/></g>
<g fill="#FEF2F2FE" stroke="#FEF2F2FE">
<path d="M 108.000 239.167 C 108.000 242.734 109.234 242.234 109.739 238.462 C 109.920 237.108 109.603 236.000 109.034 236.000 C 108.465 236.000 108.000 237.425 108.000 239.167 "/></g>
<g fill="#FEE2E2FE" stroke="#FEE2E2FE">
<path d="M 116.250 144.684 C 114.845 147.140 114.595 150.000 115.786 150.000 C 116.218 150.000 116.634 149.213 116.711 148.250 C 116.788 147.288 116.997 145.600 117.176 144.500 C 117.474 142.659 117.400 142.674 116.250 144.684 "/></g>
<g fill="#D69AD8FE" stroke="#D69AD8FE">
<path d="M 124.835 354.877 C 125.570 355.343 126.132 356.123 126.085 356.612 C 126.038 357.100 126.675 357.463 127.500 357.417 C 128.325 357.371 128.550 357.258 128.000 357.167 C 127.450 357.075 127.000 356.325 127.000 355.500 C 127.000 354.675 126.213 354.007 125.250 354.015 C 123.908 354.027 123.812 354.228 124.835 354.877 "/></g>
<g fill="#000000BE" stroke="#000000BE">
<path d="M 80.500 82.449 L 76.500 86.559 80.500 82.449 L 84.500 78.338 80.500 82.449 "/></g>
<g fill="#FEF2F2FE" stroke="#FEF2F2FE">
<path d="M 108.000 232.500 C 108.000 233.875 108.394 235.000 108.875 235.000 C 109.356 235.000 109.750 233.875 109.750 232.500 C 109.750 231.125 109.356 230.000 108.875 230.000 C 108.394 230.000 108.000 231.125 108.000 232.500 "/></g>
<g fill="#FEF2F2FE" stroke="#FEF2F2FE">
<path d="M 108.191 215.072 C 108.063 216.762 108.361 217.895 108.854 217.590 C 109.882 216.955 110.089 212.000 109.088 212.000 C 108.723 212.000 108.320 213.383 108.191 215.072 "/></g>
<g fill="#00000046" stroke="#00000046">
<path d="M 433.500 80.500 L 438.000 85.000 433.500 80.500 L 429.000 76.000 433.500 80.500 "/></g>
<g fill="#D69AD8FE" stroke="#D69AD8FE">
<path d="M 120.170 332.500 C 120.154 333.600 120.527 335.400 121.000 336.500 C 122.095 339.048 122.095 336.419 121.000 333.000 C 120.356 330.990 120.194 330.892 120.170 332.500 "/></g>
<g fill="#D69AD8FE" stroke="#D69AD8FE">
<path d="M 127.256 117.749 C 127.672 117.981 127.782 118.544 127.500 119.001 C 127.217 119.457 128.227 119.457 129.743 119.001 C 131.259 118.545 131.749 118.133 130.832 118.086 C 129.914 118.039 128.564 117.849 127.832 117.664 C 127.099 117.479 126.840 117.517 127.256 117.749 "/></g>
<g fill="#000000BE" stroke="#000000BE">
<path d="M 438.500 86.500 L 442.000 90.000 438.500 86.500 L 435.000 83.000 438.500 86.500 "/></g>
</svg>
